<?xml version="1.0" encoding="utf-8"?>
<!-- Generator: Adobe Illustrator 26.0.1, SVG Export Plug-In . SVG Version: 6.00 Build 0)  -->
<svg version="1.1"
	 id="Ebene_1" xmlns:cc="http://creativecommons.org/ns#" xmlns:dc="http://purl.org/dc/elements/1.1/" xmlns:inkscape="http://www.inkscape.org/namespaces/inkscape" xmlns:rdf="http://www.w3.org/1999/02/22-rdf-syntax-ns#" xmlns:svg="http://www.w3.org/2000/svg"
	 xmlns="http://www.w3.org/2000/svg" xmlns:xlink="http://www.w3.org/1999/xlink" x="0px" y="0px" viewBox="0 0 608 519.9"
	 style="enable-background:new 0 0 608 519.9;" xml:space="preserve">
<style type="text/css">
	.st0{fill:none;stroke:#000000;stroke-width:0.1134;stroke-linecap:round;stroke-linejoin:round;stroke-miterlimit:11.3386;}
	.st1{fill:none;stroke:#000000;stroke-width:0.1134;stroke-miterlimit:10;}
</style>
<g id="p-1">
	<path class="st0" d="M38.8,457.5h30.8c0.2,0,0.3-0.1,0.3-0.3v-9.9c0-0.3-0.3,0,0,0h19.8c0.3,0,0-0.3,0,0v9.9c0,0.2,0.1,0.3,0.3,0.3
		h20.4c0.2,0,0.3-0.1,0.3-0.3v-9.9c0-0.3-0.3,0,0,0h19.8c0.3,0,0-0.3,0,0v9.9c0,0.2,0.1,0.3,0.3,0.3h20.4c0.2,0,0.3-0.1,0.3-0.3
		v-9.9c0-0.3-0.3,0,0,0h19.8c0.3,0,0-0.3,0,0v9.9c0,0.2,0.1,0.3,0.3,0.3H192c0.2,0,0.3-0.1,0.3-0.3v-9.9c0-0.3-0.3,0,0,0h19.8
		c0.3,0,0-0.3,0,0v9.9c0,0.2,0.1,0.3,0.3,0.3h20.4c0.2,0,0.3-0.1,0.3-0.3v-9.9c0-0.3-0.3,0,0,0H253c0.3,0,0-0.3,0,0v9.9
		c0,0.2,0.1,0.3,0.3,0.3H284h10.2c0.2,0,0.3-0.1,0.3-0.3V447v-21.7v-21.7v-10.2c0-0.2-0.1-0.3-0.3-0.3H284h-30.8
		c-0.2,0-0.3,0.1-0.3,0.3v9.9c0,0.3,0.3,0,0,0h-19.8c-0.3,0,0,0.3,0,0v-9.9c0-0.2-0.1-0.3-0.3-0.3h-20.4c-0.2,0-0.3,0.1-0.3,0.3v9.9
		c0,0.3,0.3,0,0,0h-19.8c-0.3,0,0,0.3,0,0v-9.9c0-0.2-0.1-0.3-0.3-0.3h-20.4c-0.2,0-0.3,0.1-0.3,0.3v9.9c0,0.3,0.3,0,0,0h-19.8
		c-0.3,0,0,0.3,0,0v-9.9c0-0.2-0.1-0.3-0.3-0.3h-20.4c-0.2,0-0.3,0.1-0.3,0.3v9.9c0,0.3,0.3,0,0,0h-19.8c-0.3,0,0,0.3,0,0v-9.9
		c0-0.2-0.1-0.3-0.3-0.3H90c-0.2,0-0.3,0.1-0.3,0.3v9.9c0,0.3,0.3,0,0,0H69.9c-0.3,0,0,0.3,0,0v-9.9c0-0.2-0.1-0.3-0.3-0.3H38.8
		H28.6c-0.2,0-0.3,0.1-0.3,0.3v10.2v21.7V447v10.2c0,0.2,0.1,0.3,0.3,0.3H38.8z"/>
</g>
<g id="p-3">
	<path class="st0" d="M313.5,388.1h22.4c0.2,0,0.3-0.1,0.3-0.3v-9.9c0-0.3-0.3,0,0,0H356c0.3,0,0-0.3,0,0v9.9c0,0.2,0.1,0.3,0.3,0.3
		h20.4c0.2,0,0.3-0.1,0.3-0.3v-9.9c0-0.3-0.3,0,0,0h19.8c0.3,0,0-0.3,0,0v9.9c0,0.2,0.1,0.3,0.3,0.3h20.4c0.2,0,0.3-0.1,0.3-0.3
		v-9.9c0-0.3-0.3,0,0,0h19.8c0.3,0,0-0.3,0,0v9.9c0,0.2,0.1,0.3,0.3,0.3h20.4c0.2,0,0.3-0.1,0.3-0.3v-9.9c0-0.3-0.3,0,0,0h19.8
		c0.3,0,0-0.3,0,0v9.9c0,0.2,0.1,0.3,0.3,0.3h20.4c0.2,0,0.3-0.1,0.3-0.3v-9.9c0-0.3-0.3,0,0,0h19.8c0.3,0,0-0.3,0,0v9.9
		c0,0.2,0.1,0.3,0.3,0.3H540c0.2,0,0.3-0.1,0.3-0.3v-9.9c0-0.3-0.3,0,0,0h19.8c0.3,0,0-0.3,0,0v9.9c0,0.2,0.1,0.3,0.3,0.3h22.4
		c0.2,0,0.3-0.1,0.3-0.3v-10.2v-21.7v-21.7V324c0-0.2-0.1-0.3-0.3-0.3h-22.4c-0.2,0-0.3,0.1-0.3,0.3v9.9c0,0.3,0.3,0,0,0h-19.8
		c-0.3,0,0,0.3,0,0V324c0-0.2-0.1-0.3-0.3-0.3h-20.4c-0.2,0-0.3,0.1-0.3,0.3v9.9c0,0.3,0.3,0,0,0h-19.8c-0.3,0,0,0.3,0,0V324
		c0-0.2-0.1-0.3-0.3-0.3h-20.4c-0.2,0-0.3,0.1-0.3,0.3v9.9c0,0.3,0.3,0,0,0h-19.9c-0.3,0,0,0.3,0,0V324c0-0.2-0.1-0.3-0.3-0.3h-20.4
		c-0.2,0-0.3,0.1-0.3,0.3v9.9c0,0.3,0.3,0,0,0h-19.8c-0.3,0,0,0.3,0,0V324c0-0.2-0.1-0.3-0.3-0.3h-20.4c-0.2,0-0.3,0.1-0.3,0.3v9.9
		c0,0.3,0.3,0,0,0H377c-0.3,0,0,0.3,0,0V324c0-0.2-0.1-0.3-0.3-0.3h-20.4c-0.2,0-0.3,0.1-0.3,0.3v9.9c0,0.3,0.3,0,0,0h-19.8
		c-0.3,0,0,0.3,0,0V324c0-0.2-0.1-0.3-0.3-0.3h-22.4c-0.2,0-0.3,0.1-0.3,0.3v10.2v21.7v21.7v10.2
		C313.2,387.9,313.3,388.1,313.5,388.1z"/>
</g>
<g id="p-5">
	<path class="st0" d="M151.2,318.6h20.4c0.2,0,0.3-0.1,0.3-0.3v-9.9c0-0.3-0.3,0,0,0h19.8c0.3,0,0-0.3,0,0v9.9
		c0,0.2,0.1,0.3,0.3,0.3h20.4c0.2,0,0.3-0.1,0.3-0.3v-9.9c0-0.3-0.3,0,0,0h19.8c0.3,0,0-0.3,0,0v9.9c0,0.2,0.1,0.3,0.3,0.3h20.4
		c0.2,0,0.3-0.1,0.3-0.3v-9.9c0-0.3-0.3,0,0,0H284c0.2,0,0.3-0.1,0.3-0.3V286c0-0.3-0.3,0,0,0h9.9c0.2,0,0.3-0.1,0.3-0.3v-20.4
		c0-0.2-0.1-0.3-0.3-0.3h-9.9c-0.3,0,0,0.3,0,0v-19.8c0-0.3-0.3,0,0,0h9.9c0.2,0,0.3-0.1,0.3-0.3v-20.4c0-0.2-0.1-0.3-0.3-0.3h-9.9
		c-0.3,0,0,0.3,0,0v-19.8c0-0.3-0.3,0,0,0h9.9c0.2,0,0.3-0.1,0.3-0.3v-20.4c0-0.2-0.1-0.3-0.3-0.3h-9.9c-0.3,0,0,0.3,0,0v-19.8
		c0-0.3-0.3,0,0,0h9.9c0.2,0,0.3-0.1,0.3-0.3v-20.4c0-0.2-0.1-0.3-0.3-0.3h-9.9c-0.3,0,0,0.3,0,0v-19.8c0-0.3-0.3,0,0,0h9.9
		c0.2,0,0.3-0.1,0.3-0.3V102c0-0.2-0.1-0.3-0.3-0.3h-9.9c-0.3,0,0,0.3,0,0V81.9c0-0.3-0.3,0,0,0h9.9c0.2,0,0.3-0.1,0.3-0.3V61.2
		c0-0.2-0.1-0.3-0.3-0.3h-9.9c-0.3,0,0,0.3,0,0V38.8c0-0.2-0.1-0.3-0.3-0.3h-30.5c-0.3,0,0,0.3,0,0v-9.9c0-0.2-0.1-0.3-0.3-0.3
		h-20.4c-0.2,0-0.3,0.1-0.3,0.3v9.9c0,0.3,0.3,0,0,0h-19.8c-0.3,0,0,0.3,0,0v-9.9c0-0.2-0.1-0.3-0.3-0.3H192c-0.2,0-0.3,0.1-0.3,0.3
		v9.9c0,0.3,0.3,0,0,0h-19.8c-0.3,0,0,0.3,0,0v-9.9c0-0.2-0.1-0.3-0.3-0.3h-20.4c-0.2,0-0.3,0.1-0.3,0.3v9.9c0,0.3,0.3,0,0,0h-19.8
		c-0.3,0,0,0.3,0,0v-9.9c0-0.2-0.1-0.3-0.3-0.3h-20.4c-0.2,0-0.3,0.1-0.3,0.3v9.9c0,0.3,0.3,0,0,0H90.3c-0.3,0,0,0.3,0,0v-9.9
		c0-0.2-0.1-0.3-0.3-0.3H69.6c-0.2,0-0.3,0.1-0.3,0.3v9.9c0,0.3,0.3,0,0,0H38.8c-0.2,0-0.3,0.1-0.3,0.3v22.1c0,0.3,0.3,0,0,0h-9.9
		c-0.2,0-0.3,0.1-0.3,0.3v20.4c0,0.2,0.1,0.3,0.3,0.3h9.9c0.3,0,0-0.3,0,0v19.8c0,0.3,0.3,0,0,0h-9.9c-0.2,0-0.3,0.1-0.3,0.3v20.4
		c0,0.2,0.1,0.3,0.3,0.3h9.9c0.3,0,0-0.3,0,0v19.8c0,0.3,0.3,0,0,0h-9.9c-0.2,0-0.3,0.1-0.3,0.3v20.4c0,0.2,0.1,0.3,0.3,0.3h9.9
		c0.3,0,0-0.3,0,0v19.8c0,0.3,0.3,0,0,0h-9.9c-0.2,0-0.3,0.1-0.3,0.3V204c0,0.2,0.1,0.3,0.3,0.3h9.9c0.3,0,0-0.3,0,0v19.8
		c0,0.3,0.3,0,0,0h-9.9c-0.2,0-0.3,0.1-0.3,0.3v20.4c0,0.2,0.1,0.3,0.3,0.3h9.9c0.3,0,0-0.3,0,0V265c0,0.3,0.3,0,0,0h-9.9
		c-0.2,0-0.3,0.1-0.3,0.3v20.4c0,0.2,0.1,0.3,0.3,0.3h9.9c0.3,0,0-0.3,0,0v22.1c0,0.2,0.1,0.3,0.3,0.3h30.5c0.3,0,0-0.3,0,0v9.9
		c0,0.2,0.1,0.3,0.3,0.3H90c0.2,0,0.3-0.1,0.3-0.3v-9.9c0-0.3-0.3,0,0,0h19.8c0.3,0,0-0.3,0,0v9.9c0,0.2,0.1,0.3,0.3,0.3h20.4
		L151.2,318.6L151.2,318.6z"/>
</g>
<path class="st1" d="M271.7,349.4c-2.5-5.8-8.3-9.8-15-9.8c-6.7,0-12.4,4-15,9.8v13c2.5,5.8,8.3,9.8,15,9.8c6.7,0,12.4-4,15-9.8
	V349.4z"/>
<rect x="372.1" y="342.7" class="st1" width="30" height="26.4"/>
<rect x="55.8" y="202.9" class="st1" width="28.3" height="32.9"/>
<g>
	<path class="st1" d="M294.2,323.7H284h-30.8c-0.2,0-0.3,0.1-0.3,0.3v9.9h-19.8V324c0-0.2-0.1-0.3-0.3-0.3h-20.4
		c-0.2,0-0.3,0.1-0.3,0.3v9.9h-19.8V324c0-0.2-0.1-0.3-0.3-0.3h-20.4c-0.2,0-0.3,0.1-0.3,0.3v9.9h-14.9v21.3c0,0.8-0.6,1.4-1.4,1.4
		h-29.8c-0.8,0-1.4-0.6-1.4-1.4v-21.3h-13.1V324c0-0.2-0.1-0.3-0.3-0.3H90c-0.2,0-0.3,0.1-0.3,0.3v9.9H69.9V324
		c0-0.2-0.1-0.3-0.3-0.3H38.8H28.6c-0.2,0-0.3,0.1-0.3,0.3v10.2v21.7v21.7v10.2c0,0.2,0.1,0.3,0.3,0.3h10.2h30.8
		c0.2,0,0.3-0.1,0.3-0.3v-9.9h19.8v9.9c0,0.2,0.1,0.3,0.3,0.3h20.4c0.2,0,0.3-0.1,0.3-0.3v-9.9h19.8v9.9c0,0.2,0.1,0.3,0.3,0.3h20.4
		c0.2,0,0.3-0.1,0.3-0.3v-9.9h19.8v9.9c0,0.2,0.1,0.3,0.3,0.3H192c0.2,0,0.3-0.1,0.3-0.3v-9.9h19.8v9.9c0,0.2,0.1,0.3,0.3,0.3h20.4
		c0.2,0,0.3-0.1,0.3-0.3v-9.9H253v9.9c0,0.2,0.1,0.3,0.3,0.3H284h10.2c0.2,0,0.3-0.1,0.3-0.3v-10.2v-21.7v-21.7V324
		C294.5,323.8,294.4,323.7,294.2,323.7z"/>
</g>
<g id="p-2">
	<path class="st0" d="M313.5,457.5h22.4c0.2,0,0.3-0.1,0.3-0.3v-9.9c0-0.3-0.3,0,0,0H356c0.3,0,0-0.3,0,0v9.9c0,0.2,0.1,0.3,0.3,0.3
		h20.4c0.2,0,0.3-0.1,0.3-0.3v-9.9c0-0.3-0.3,0,0,0h19.8c0.3,0,0-0.3,0,0v9.9c0,0.2,0.1,0.3,0.3,0.3h20.4c0.2,0,0.3-0.1,0.3-0.3
		v-9.9c0-0.3-0.3,0,0,0h19.8c0.3,0,0-0.3,0,0v9.9c0,0.2,0.1,0.3,0.3,0.3h20.4c0.2,0,0.3-0.1,0.3-0.3v-9.9c0-0.3-0.3,0,0,0h19.8
		c0.3,0,0-0.3,0,0v9.9c0,0.2,0.1,0.3,0.3,0.3h20.4c0.2,0,0.3-0.1,0.3-0.3v-9.9c0-0.3-0.3,0,0,0h19.8c0.3,0,0-0.3,0,0v9.9
		c0,0.2,0.1,0.3,0.3,0.3H540c0.2,0,0.3-0.1,0.3-0.3v-9.9c0-0.3-0.3,0,0,0h19.8c0.3,0,0-0.3,0,0v9.9c0,0.2,0.1,0.3,0.3,0.3h22.4
		c0.2,0,0.3-0.1,0.3-0.3V447v-21.7v-21.7v-10.2c0-0.2-0.1-0.3-0.3-0.3h-22.4c-0.2,0-0.3,0.1-0.3,0.3v9.9c0,0.3,0.3,0,0,0h-19.8
		c-0.3,0,0,0.3,0,0v-9.9c0-0.2-0.1-0.3-0.3-0.3h-20.4c-0.2,0-0.3,0.1-0.3,0.3v9.9c0,0.3,0.3,0,0,0h-19.8c-0.3,0,0,0.3,0,0v-9.9
		c0-0.2-0.1-0.3-0.3-0.3h-20.4c-0.2,0-0.3,0.1-0.3,0.3v9.9c0,0.3,0.3,0,0,0h-19.8c-0.3,0,0,0.3,0,0v-9.9c0-0.2-0.1-0.3-0.3-0.3
		h-20.4c-0.2,0-0.3,0.1-0.3,0.3v9.9c0,0.3,0.3,0,0,0h-19.8c-0.3,0,0,0.3,0,0v-9.9c0-0.2-0.1-0.3-0.3-0.3h-20.4
		c-0.2,0-0.3,0.1-0.3,0.3v9.9c0,0.3,0.3,0,0,0H377c-0.3,0,0,0.3,0,0v-9.9c0-0.2-0.1-0.3-0.3-0.3h-20.4c-0.2,0-0.3,0.1-0.3,0.3v9.9
		c0,0.3,0.3,0,0,0h-19.8c-0.3,0,0,0.3,0,0v-9.9c0-0.2-0.1-0.3-0.3-0.3h-22.4c-0.2,0-0.3,0.1-0.3,0.3v10.2v21.7V447v10.2
		C313.2,457.3,313.3,457.5,313.5,457.5z"/>
</g>
<g id="p-6">
	<path class="st0" d="M325.5,308.4H356c0.3,0,0-0.3,0,0v9.9c0,0.2,0.1,0.3,0.3,0.3h20.4c0.2,0,0.3-0.1,0.3-0.3v-9.9c0-0.3-0.3,0,0,0
		h19.8c0.3,0,0-0.3,0,0v9.9c0,0.2,0.1,0.3,0.3,0.3h20.4c0.2,0,0.3-0.1,0.3-0.3v-9.9c0-0.3-0.3,0,0,0h19.8c0.3,0,0-0.3,0,0v9.9
		c0,0.2,0.1,0.3,0.3,0.3h20.4c0.2,0,0.3-0.1,0.3-0.3v-9.9c0-0.3-0.3,0,0,0h19.8c0.3,0,0-0.3,0,0v9.9c0,0.2,0.1,0.3,0.3,0.3h20.4
		c0.2,0,0.3-0.1,0.3-0.3v-9.9c0-0.3-0.3,0,0,0h19.8c0.3,0,0-0.3,0,0v9.9c0,0.2,0.1,0.3,0.3,0.3H540c0.2,0,0.3-0.1,0.3-0.3v-9.9
		c0-0.3-0.3,0,0,0h30.5c0.2,0,0.3-0.1,0.3-0.3V286c0-0.3-0.3,0,0,0h9.9c0.2,0,0.3-0.1,0.3-0.3v-20.4c0-0.2-0.1-0.3-0.3-0.3H571
		c-0.3,0,0,0.3,0,0v-19.8c0-0.3-0.3,0,0,0h9.9c0.2,0,0.3-0.1,0.3-0.3v-20.4c0-0.2-0.1-0.3-0.3-0.3H571c-0.3,0,0,0.3,0,0v-19.8
		c0-0.3-0.3,0,0,0h9.9c0.2,0,0.3-0.1,0.3-0.3v-20.4c0-0.2-0.1-0.3-0.3-0.3H571c-0.3,0,0,0.3,0,0v-19.8c0-0.3-0.3,0,0,0h9.9
		c0.2,0,0.3-0.1,0.3-0.3v-20.4c0-0.2-0.1-0.3-0.3-0.3H571c-0.3,0,0,0.3,0,0v-19.8c0-0.3-0.3,0,0,0h9.9c0.2,0,0.3-0.1,0.3-0.3V102
		c0-0.2-0.1-0.3-0.3-0.3H571c-0.3,0,0,0.3,0,0V81.9c0-0.3-0.3,0,0,0h9.9c0.2,0,0.3-0.1,0.3-0.3V61.2c0-0.2-0.1-0.3-0.3-0.3H571
		c-0.3,0,0,0.3,0,0V38.8c0-0.2-0.1-0.3-0.3-0.3h-30.5c-0.3,0,0,0.3,0,0v-9.9c0-0.2-0.1-0.3-0.3-0.3h-20.4c-0.2,0-0.3,0.1-0.3,0.3
		v9.9c0,0.3,0.3,0,0,0h-19.8c-0.3,0,0,0.3,0,0v-9.9c0-0.2-0.1-0.3-0.3-0.3h-20.4c-0.2,0-0.3,0.1-0.3,0.3v9.9c0,0.3,0.3,0,0,0h-19.8
		c-0.3,0,0,0.3,0,0v-9.9c0-0.2-0.1-0.3-0.3-0.3h-20.4c-0.2,0-0.3,0.1-0.3,0.3v9.9c0,0.3,0.3,0,0,0h-19.8c-0.3,0,0,0.3,0,0v-9.9
		c0-0.2-0.1-0.3-0.3-0.3h-20.4c-0.2,0-0.3,0.1-0.3,0.3v9.9c0,0.3,0.3,0,0,0H377c-0.3,0,0,0.3,0,0v-9.9c0-0.2-0.1-0.3-0.3-0.3h-20.4
		c-0.2,0-0.3,0.1-0.3,0.3v9.9c0,0.3,0.3,0,0,0h-30.5c-0.2,0-0.3,0.1-0.3,0.3v22.1c0,0.3,0.3,0,0,0h-9.9c-0.2,0-0.3,0.1-0.3,0.3v20.4
		c0,0.2,0.1,0.3,0.3,0.3h9.9c0.3,0,0-0.3,0,0v19.8c0,0.3,0.3,0,0,0h-9.9c-0.2,0-0.3,0.1-0.3,0.3v20.4c0,0.2,0.1,0.3,0.3,0.3h9.9
		c0.3,0,0-0.3,0,0v19.8c0,0.3,0.3,0,0,0h-9.9c-0.2,0-0.3,0.1-0.3,0.3v20.4c0,0.2,0.1,0.3,0.3,0.3h9.9c0.3,0,0-0.3,0,0v19.8
		c0,0.3,0.3,0,0,0h-9.9c-0.2,0-0.3,0.1-0.3,0.3V204c0,0.2,0.1,0.3,0.3,0.3h9.9c0.3,0,0-0.3,0,0v19.8c0,0.3,0.3,0,0,0h-9.9
		c-0.2,0-0.3,0.1-0.3,0.3v20.4c0,0.2,0.1,0.3,0.3,0.3h9.9c0.3,0,0-0.3,0,0V265c0,0.3,0.3,0,0,0h-9.9c-0.2,0-0.3,0.1-0.3,0.3v20.4
		c0,0.2,0.1,0.3,0.3,0.3h9.9c0.3,0,0-0.3,0,0v22.1C325.3,308.2,325.4,308.4,325.5,308.4z"/>
</g>
</svg>
