<?xml version="1.0" encoding="UTF-8" standalone="no"?>
<!-- Generator: Adobe Illustrator 26.0.1, SVG Export Plug-In . SVG Version: 6.00 Build 0)  -->

<svg
   version="1.1"
   id="Ebene_1"
   x="0px"
   y="0px"
   viewBox="0 0 608 519.9"
   style="enable-background:new 0 0 608 519.9;"
   xml:space="preserve"
   sodipodi:docname="housing.svg"
   inkscape:version="1.1.1 (3bf5ae0d25, 2021-09-20)"
   xmlns:inkscape="http://www.inkscape.org/namespaces/inkscape"
   xmlns:sodipodi="http://sodipodi.sourceforge.net/DTD/sodipodi-0.dtd"
   xmlns="http://www.w3.org/2000/svg"
   xmlns:svg="http://www.w3.org/2000/svg"><defs
   id="defs918" /><sodipodi:namedview
   id="namedview916"
   pagecolor="#ffffff"
   bordercolor="#666666"
   borderopacity="1.0"
   inkscape:pageshadow="2"
   inkscape:pageopacity="0.0"
   inkscape:pagecheckerboard="0"
   showgrid="false"
   inkscape:zoom="7.2062563"
   inkscape:cx="87.632187"
   inkscape:cy="360.31192"
   inkscape:window-width="1920"
   inkscape:window-height="1011"
   inkscape:window-x="0"
   inkscape:window-y="0"
   inkscape:window-maximized="1"
   inkscape:current-layer="g907" />
<style
   type="text/css"
   id="style888">
	.st0{fill:none;stroke:#000000;stroke-width:0.1134;stroke-linecap:round;stroke-linejoin:round;stroke-miterlimit:11.3386;}
	.st1{fill:none;stroke:#000000;stroke-width:0.1134;stroke-miterlimit:10;}
</style>
<g
   id="p-1">
	<path
   class="st0"
   d="M38.8,457.5h30.8c0.2,0,0.3-0.1,0.3-0.3v-9.9c0-0.3-0.3,0,0,0h19.8c0.3,0,0-0.3,0,0v9.9c0,0.2,0.1,0.3,0.3,0.3   h20.4c0.2,0,0.3-0.1,0.3-0.3v-9.9c0-0.3-0.3,0,0,0h19.8c0.3,0,0-0.3,0,0v9.9c0,0.2,0.1,0.3,0.3,0.3h20.4c0.2,0,0.3-0.1,0.3-0.3   v-9.9c0-0.3-0.3,0,0,0h19.8c0.3,0,0-0.3,0,0v9.9c0,0.2,0.1,0.3,0.3,0.3H192c0.2,0,0.3-0.1,0.3-0.3v-9.9c0-0.3-0.3,0,0,0h19.8   c0.3,0,0-0.3,0,0v9.9c0,0.2,0.1,0.3,0.3,0.3h20.4c0.2,0,0.3-0.1,0.3-0.3v-9.9c0-0.3-0.3,0,0,0H253c0.3,0,0-0.3,0,0v9.9   c0,0.2,0.1,0.3,0.3,0.3H284h10.2c0.2,0,0.3-0.1,0.3-0.3V447v-21.7v-21.7v-10.2c0-0.2-0.1-0.3-0.3-0.3H284h-30.8   c-0.2,0-0.3,0.1-0.3,0.3v9.9c0,0.3,0.3,0,0,0h-19.8c-0.3,0,0,0.3,0,0v-9.9c0-0.2-0.1-0.3-0.3-0.3h-20.4c-0.2,0-0.3,0.1-0.3,0.3v9.9   c0,0.3,0.3,0,0,0h-19.8c-0.3,0,0,0.3,0,0v-9.9c0-0.2-0.1-0.3-0.3-0.3h-20.4c-0.2,0-0.3,0.1-0.3,0.3v9.9c0,0.3,0.3,0,0,0h-19.8   c-0.3,0,0,0.3,0,0v-9.9c0-0.2-0.1-0.3-0.3-0.3h-20.4c-0.2,0-0.3,0.1-0.3,0.3v9.9c0,0.3,0.3,0,0,0h-19.8c-0.3,0,0,0.3,0,0v-9.9   c0-0.2-0.1-0.3-0.3-0.3H90c-0.2,0-0.3,0.1-0.3,0.3v9.9c0,0.3,0.3,0,0,0H69.9c-0.3,0,0,0.3,0,0v-9.9c0-0.2-0.1-0.3-0.3-0.3H38.8   H28.6c-0.2,0-0.3,0.1-0.3,0.3v10.2v21.7V447v10.2c0,0.2,0.1,0.3,0.3,0.3H38.8z"
   id="path890" />
</g>
<g
   id="p-3">
	<path
   class="st0"
   d="M313.5,388.1h22.4c0.2,0,0.3-0.1,0.3-0.3v-9.9c0-0.3-0.3,0,0,0H356c0.3,0,0-0.3,0,0v9.9c0,0.2,0.1,0.3,0.3,0.3   h20.4c0.2,0,0.3-0.1,0.3-0.3v-9.9c0-0.3-0.3,0,0,0h19.8c0.3,0,0-0.3,0,0v9.9c0,0.2,0.1,0.3,0.3,0.3h20.4c0.2,0,0.3-0.1,0.3-0.3   v-9.9c0-0.3-0.3,0,0,0h19.8c0.3,0,0-0.3,0,0v9.9c0,0.2,0.1,0.3,0.3,0.3h20.4c0.2,0,0.3-0.1,0.3-0.3v-9.9c0-0.3-0.3,0,0,0h19.8   c0.3,0,0-0.3,0,0v9.9c0,0.2,0.1,0.3,0.3,0.3h20.4c0.2,0,0.3-0.1,0.3-0.3v-9.9c0-0.3-0.3,0,0,0h19.8c0.3,0,0-0.3,0,0v9.9   c0,0.2,0.1,0.3,0.3,0.3H540c0.2,0,0.3-0.1,0.3-0.3v-9.9c0-0.3-0.3,0,0,0h19.8c0.3,0,0-0.3,0,0v9.9c0,0.2,0.1,0.3,0.3,0.3h22.4   c0.2,0,0.3-0.1,0.3-0.3v-10.2v-21.7v-21.7V324c0-0.2-0.1-0.3-0.3-0.3h-22.4c-0.2,0-0.3,0.1-0.3,0.3v9.9c0,0.3,0.3,0,0,0h-19.8   c-0.3,0,0,0.3,0,0V324c0-0.2-0.1-0.3-0.3-0.3h-20.4c-0.2,0-0.3,0.1-0.3,0.3v9.9c0,0.3,0.3,0,0,0h-19.8c-0.3,0,0,0.3,0,0V324   c0-0.2-0.1-0.3-0.3-0.3h-20.4c-0.2,0-0.3,0.1-0.3,0.3v9.9c0,0.3,0.3,0,0,0h-19.9c-0.3,0,0,0.3,0,0V324c0-0.2-0.1-0.3-0.3-0.3h-20.4   c-0.2,0-0.3,0.1-0.3,0.3v9.9c0,0.3,0.3,0,0,0h-19.8c-0.3,0,0,0.3,0,0V324c0-0.2-0.1-0.3-0.3-0.3h-20.4c-0.2,0-0.3,0.1-0.3,0.3v9.9   c0,0.3,0.3,0,0,0H377c-0.3,0,0,0.3,0,0V324c0-0.2-0.1-0.3-0.3-0.3h-20.4c-0.2,0-0.3,0.1-0.3,0.3v9.9c0,0.3,0.3,0,0,0h-19.8   c-0.3,0,0,0.3,0,0V324c0-0.2-0.1-0.3-0.3-0.3h-22.4c-0.2,0-0.3,0.1-0.3,0.3v10.2v21.7v21.7v10.2   C313.2,387.9,313.3,388.1,313.5,388.1z"
   id="path893" />
</g>
<g
   id="p-5">
	<path
   class="st0"
   d="M151.2,318.6h20.4c0.2,0,0.3-0.1,0.3-0.3v-9.9c0-0.3-0.3,0,0,0h19.8c0.3,0,0-0.3,0,0v9.9   c0,0.2,0.1,0.3,0.3,0.3h20.4c0.2,0,0.3-0.1,0.3-0.3v-9.9c0-0.3-0.3,0,0,0h19.8c0.3,0,0-0.3,0,0v9.9c0,0.2,0.1,0.3,0.3,0.3h20.4   c0.2,0,0.3-0.1,0.3-0.3v-9.9c0-0.3-0.3,0,0,0H284c0.2,0,0.3-0.1,0.3-0.3V286c0-0.3-0.3,0,0,0h9.9c0.2,0,0.3-0.1,0.3-0.3v-20.4   c0-0.2-0.1-0.3-0.3-0.3h-9.9c-0.3,0,0,0.3,0,0v-19.8c0-0.3-0.3,0,0,0h9.9c0.2,0,0.3-0.1,0.3-0.3v-20.4c0-0.2-0.1-0.3-0.3-0.3h-9.9   c-0.3,0,0,0.3,0,0v-19.8c0-0.3-0.3,0,0,0h9.9c0.2,0,0.3-0.1,0.3-0.3v-20.4c0-0.2-0.1-0.3-0.3-0.3h-9.9c-0.3,0,0,0.3,0,0v-19.8   c0-0.3-0.3,0,0,0h9.9c0.2,0,0.3-0.1,0.3-0.3v-20.4c0-0.2-0.1-0.3-0.3-0.3h-9.9c-0.3,0,0,0.3,0,0v-19.8c0-0.3-0.3,0,0,0h9.9   c0.2,0,0.3-0.1,0.3-0.3V102c0-0.2-0.1-0.3-0.3-0.3h-9.9c-0.3,0,0,0.3,0,0V81.9c0-0.3-0.3,0,0,0h9.9c0.2,0,0.3-0.1,0.3-0.3V61.2   c0-0.2-0.1-0.3-0.3-0.3h-9.9c-0.3,0,0,0.3,0,0V38.8c0-0.2-0.1-0.3-0.3-0.3h-30.5c-0.3,0,0,0.3,0,0v-9.9c0-0.2-0.1-0.3-0.3-0.3   h-20.4c-0.2,0-0.3,0.1-0.3,0.3v9.9c0,0.3,0.3,0,0,0h-19.8c-0.3,0,0,0.3,0,0v-9.9c0-0.2-0.1-0.3-0.3-0.3H192c-0.2,0-0.3,0.1-0.3,0.3   v9.9c0,0.3,0.3,0,0,0h-19.8c-0.3,0,0,0.3,0,0v-9.9c0-0.2-0.1-0.3-0.3-0.3h-20.4c-0.2,0-0.3,0.1-0.3,0.3v9.9c0,0.3,0.3,0,0,0h-19.8   c-0.3,0,0,0.3,0,0v-9.9c0-0.2-0.1-0.3-0.3-0.3h-20.4c-0.2,0-0.3,0.1-0.3,0.3v9.9c0,0.3,0.3,0,0,0H90.3c-0.3,0,0,0.3,0,0v-9.9   c0-0.2-0.1-0.3-0.3-0.3H69.6c-0.2,0-0.3,0.1-0.3,0.3v9.9c0,0.3,0.3,0,0,0H38.8c-0.2,0-0.3,0.1-0.3,0.3v22.1c0,0.3,0.3,0,0,0h-9.9   c-0.2,0-0.3,0.1-0.3,0.3v20.4c0,0.2,0.1,0.3,0.3,0.3h9.9c0.3,0,0-0.3,0,0v19.8c0,0.3,0.3,0,0,0h-9.9c-0.2,0-0.3,0.1-0.3,0.3v20.4   c0,0.2,0.1,0.3,0.3,0.3h9.9c0.3,0,0-0.3,0,0v19.8c0,0.3,0.3,0,0,0h-9.9c-0.2,0-0.3,0.1-0.3,0.3v20.4c0,0.2,0.1,0.3,0.3,0.3h9.9   c0.3,0,0-0.3,0,0v19.8c0,0.3,0.3,0,0,0h-9.9c-0.2,0-0.3,0.1-0.3,0.3V204c0,0.2,0.1,0.3,0.3,0.3h9.9c0.3,0,0-0.3,0,0v19.8   c0,0.3,0.3,0,0,0h-9.9c-0.2,0-0.3,0.1-0.3,0.3v20.4c0,0.2,0.1,0.3,0.3,0.3h9.9c0.3,0,0-0.3,0,0V265c0,0.3,0.3,0,0,0h-9.9   c-0.2,0-0.3,0.1-0.3,0.3v20.4c0,0.2,0.1,0.3,0.3,0.3h9.9c0.3,0,0-0.3,0,0v22.1c0,0.2,0.1,0.3,0.3,0.3h30.5c0.3,0,0-0.3,0,0v9.9   c0,0.2,0.1,0.3,0.3,0.3H90c0.2,0,0.3-0.1,0.3-0.3v-9.9c0-0.3-0.3,0,0,0h19.8c0.3,0,0-0.3,0,0v9.9c0,0.2,0.1,0.3,0.3,0.3h20.4   L151.2,318.6L151.2,318.6z"
   id="path896" />
</g>
<path
   class="st1"
   d="M271.7,349.4c-2.5-5.8-8.3-9.8-15-9.8c-6.7,0-12.4,4-15,9.8v13c2.5,5.8,8.3,9.8,15,9.8c6.7,0,12.4-4,15-9.8  V349.4z"
   id="path899" />
<rect
   x="372.1"
   y="342.7"
   class="st1"
   width="30"
   height="26.4"
   id="rect901" />
<rect
   x="55.8"
   y="202.9"
   class="st1"
   width="28.3"
   height="32.9"
   id="rect903" />
<g
   id="g907">
	<path
   class="st1"
   d="M 294.2,323.7 H 284 253.2 c -0.2,0 -0.3,0.1 -0.3,0.3 v 9.9 H 233.1 V 324 c 0,-0.2 -0.1,-0.3 -0.3,-0.3 h -20.4 c -0.2,0 -0.3,0.1 -0.3,0.3 v 9.9 H 192.3 V 324 c 0,-0.2 -0.1,-0.3 -0.3,-0.3 h -20.4 c -0.2,0 -0.3,0.1 -0.3,0.3 v 9.9 h -20.9 v 25.3 c 0,0.8 -0.6,1.4 -1.4,1.4 h -29.8 c -0.8,0 -1.4,-0.6 -1.4,-1.4 v -25.3 h -7.1 V 324 c 0,-0.2 -0.1,-0.3 -0.3,-0.3 H 90 c -0.2,0 -0.3,0.1 -0.3,0.3 v 9.9 H 69.9 V 324 c 0,-0.2 -0.1,-0.3 -0.3,-0.3 H 38.8 28.6 c -0.2,0 -0.3,0.1 -0.3,0.3 v 10.2 21.7 21.7 10.2 c 0,0.2 0.1,0.3 0.3,0.3 h 10.2 30.8 c 0.2,0 0.3,-0.1 0.3,-0.3 v -9.9 h 19.8 v 9.9 c 0,0.2 0.1,0.3 0.3,0.3 h 20.4 c 0.2,0 0.3,-0.1 0.3,-0.3 v -9.9 h 19.8 v 9.9 c 0,0.2 0.1,0.3 0.3,0.3 h 20.4 c 0.2,0 0.3,-0.1 0.3,-0.3 v -9.9 h 19.8 v 9.9 c 0,0.2 0.1,0.3 0.3,0.3 H 192 c 0.2,0 0.3,-0.1 0.3,-0.3 v -9.9 h 19.8 v 9.9 c 0,0.2 0.1,0.3 0.3,0.3 h 20.4 c 0.2,0 0.3,-0.1 0.3,-0.3 v -9.9 H 253 v 9.9 c 0,0.2 0.1,0.3 0.3,0.3 h 30.7 10.2 c 0.2,0 0.3,-0.1 0.3,-0.3 V 377.6 355.9 334.2 324 c 0,-0.2 -0.1,-0.3 -0.3,-0.3 z"
   id="path905"
   sodipodi:nodetypes="scssccssssccssssccssssccssssccsscsscccsscssccssssccssssccssssccssssccsscsscccss" />
</g>
<g
   id="p-2">
	<path
   class="st0"
   d="M313.5,457.5h22.4c0.2,0,0.3-0.1,0.3-0.3v-9.9c0-0.3-0.3,0,0,0H356c0.3,0,0-0.3,0,0v9.9c0,0.2,0.1,0.3,0.3,0.3   h20.4c0.2,0,0.3-0.1,0.3-0.3v-9.9c0-0.3-0.3,0,0,0h19.8c0.3,0,0-0.3,0,0v9.9c0,0.2,0.1,0.3,0.3,0.3h20.4c0.2,0,0.3-0.1,0.3-0.3   v-9.9c0-0.3-0.3,0,0,0h19.8c0.3,0,0-0.3,0,0v9.9c0,0.2,0.1,0.3,0.3,0.3h20.4c0.2,0,0.3-0.1,0.3-0.3v-9.9c0-0.3-0.3,0,0,0h19.8   c0.3,0,0-0.3,0,0v9.9c0,0.2,0.1,0.3,0.3,0.3h20.4c0.2,0,0.3-0.1,0.3-0.3v-9.9c0-0.3-0.3,0,0,0h19.8c0.3,0,0-0.3,0,0v9.9   c0,0.2,0.1,0.3,0.3,0.3H540c0.2,0,0.3-0.1,0.3-0.3v-9.9c0-0.3-0.3,0,0,0h19.8c0.3,0,0-0.3,0,0v9.9c0,0.2,0.1,0.3,0.3,0.3h22.4   c0.2,0,0.3-0.1,0.3-0.3V447v-21.7v-21.7v-10.2c0-0.2-0.1-0.3-0.3-0.3h-22.4c-0.2,0-0.3,0.1-0.3,0.3v9.9c0,0.3,0.3,0,0,0h-19.8   c-0.3,0,0,0.3,0,0v-9.9c0-0.2-0.1-0.3-0.3-0.3h-20.4c-0.2,0-0.3,0.1-0.3,0.3v9.9c0,0.3,0.3,0,0,0h-19.8c-0.3,0,0,0.3,0,0v-9.9   c0-0.2-0.1-0.3-0.3-0.3h-20.4c-0.2,0-0.3,0.1-0.3,0.3v9.9c0,0.3,0.3,0,0,0h-19.8c-0.3,0,0,0.3,0,0v-9.9c0-0.2-0.1-0.3-0.3-0.3   h-20.4c-0.2,0-0.3,0.1-0.3,0.3v9.9c0,0.3,0.3,0,0,0h-19.8c-0.3,0,0,0.3,0,0v-9.9c0-0.2-0.1-0.3-0.3-0.3h-20.4   c-0.2,0-0.3,0.1-0.3,0.3v9.9c0,0.3,0.3,0,0,0H377c-0.3,0,0,0.3,0,0v-9.9c0-0.2-0.1-0.3-0.3-0.3h-20.4c-0.2,0-0.3,0.1-0.3,0.3v9.9   c0,0.3,0.3,0,0,0h-19.8c-0.3,0,0,0.3,0,0v-9.9c0-0.2-0.1-0.3-0.3-0.3h-22.4c-0.2,0-0.3,0.1-0.3,0.3v10.2v21.7V447v10.2   C313.2,457.3,313.3,457.5,313.5,457.5z"
   id="path909" />
</g>
<g
   id="p-6">
	<path
   class="st0"
   d="M325.5,308.4H356c0.3,0,0-0.3,0,0v9.9c0,0.2,0.1,0.3,0.3,0.3h20.4c0.2,0,0.3-0.1,0.3-0.3v-9.9c0-0.3-0.3,0,0,0   h19.8c0.3,0,0-0.3,0,0v9.9c0,0.2,0.1,0.3,0.3,0.3h20.4c0.2,0,0.3-0.1,0.3-0.3v-9.9c0-0.3-0.3,0,0,0h19.8c0.3,0,0-0.3,0,0v9.9   c0,0.2,0.1,0.3,0.3,0.3h20.4c0.2,0,0.3-0.1,0.3-0.3v-9.9c0-0.3-0.3,0,0,0h19.8c0.3,0,0-0.3,0,0v9.9c0,0.2,0.1,0.3,0.3,0.3h20.4   c0.2,0,0.3-0.1,0.3-0.3v-9.9c0-0.3-0.3,0,0,0h19.8c0.3,0,0-0.3,0,0v9.9c0,0.2,0.1,0.3,0.3,0.3H540c0.2,0,0.3-0.1,0.3-0.3v-9.9   c0-0.3-0.3,0,0,0h30.5c0.2,0,0.3-0.1,0.3-0.3V286c0-0.3-0.3,0,0,0h9.9c0.2,0,0.3-0.1,0.3-0.3v-20.4c0-0.2-0.1-0.3-0.3-0.3H571   c-0.3,0,0,0.3,0,0v-19.8c0-0.3-0.3,0,0,0h9.9c0.2,0,0.3-0.1,0.3-0.3v-20.4c0-0.2-0.1-0.3-0.3-0.3H571c-0.3,0,0,0.3,0,0v-19.8   c0-0.3-0.3,0,0,0h9.9c0.2,0,0.3-0.1,0.3-0.3v-20.4c0-0.2-0.1-0.3-0.3-0.3H571c-0.3,0,0,0.3,0,0v-19.8c0-0.3-0.3,0,0,0h9.9   c0.2,0,0.3-0.1,0.3-0.3v-20.4c0-0.2-0.1-0.3-0.3-0.3H571c-0.3,0,0,0.3,0,0v-19.8c0-0.3-0.3,0,0,0h9.9c0.2,0,0.3-0.1,0.3-0.3V102   c0-0.2-0.1-0.3-0.3-0.3H571c-0.3,0,0,0.3,0,0V81.9c0-0.3-0.3,0,0,0h9.9c0.2,0,0.3-0.1,0.3-0.3V61.2c0-0.2-0.1-0.3-0.3-0.3H571   c-0.3,0,0,0.3,0,0V38.8c0-0.2-0.1-0.3-0.3-0.3h-30.5c-0.3,0,0,0.3,0,0v-9.9c0-0.2-0.1-0.3-0.3-0.3h-20.4c-0.2,0-0.3,0.1-0.3,0.3   v9.9c0,0.3,0.3,0,0,0h-19.8c-0.3,0,0,0.3,0,0v-9.9c0-0.2-0.1-0.3-0.3-0.3h-20.4c-0.2,0-0.3,0.1-0.3,0.3v9.9c0,0.3,0.3,0,0,0h-19.8   c-0.3,0,0,0.3,0,0v-9.9c0-0.2-0.1-0.3-0.3-0.3h-20.4c-0.2,0-0.3,0.1-0.3,0.3v9.9c0,0.3,0.3,0,0,0h-19.8c-0.3,0,0,0.3,0,0v-9.9   c0-0.2-0.1-0.3-0.3-0.3h-20.4c-0.2,0-0.3,0.1-0.3,0.3v9.9c0,0.3,0.3,0,0,0H377c-0.3,0,0,0.3,0,0v-9.9c0-0.2-0.1-0.3-0.3-0.3h-20.4   c-0.2,0-0.3,0.1-0.3,0.3v9.9c0,0.3,0.3,0,0,0h-30.5c-0.2,0-0.3,0.1-0.3,0.3v22.1c0,0.3,0.3,0,0,0h-9.9c-0.2,0-0.3,0.1-0.3,0.3v20.4   c0,0.2,0.1,0.3,0.3,0.3h9.9c0.3,0,0-0.3,0,0v19.8c0,0.3,0.3,0,0,0h-9.9c-0.2,0-0.3,0.1-0.3,0.3v20.4c0,0.2,0.1,0.3,0.3,0.3h9.9   c0.3,0,0-0.3,0,0v19.8c0,0.3,0.3,0,0,0h-9.9c-0.2,0-0.3,0.1-0.3,0.3v20.4c0,0.2,0.1,0.3,0.3,0.3h9.9c0.3,0,0-0.3,0,0v19.8   c0,0.3,0.3,0,0,0h-9.9c-0.2,0-0.3,0.1-0.3,0.3V204c0,0.2,0.1,0.3,0.3,0.3h9.9c0.3,0,0-0.3,0,0v19.8c0,0.3,0.3,0,0,0h-9.9   c-0.2,0-0.3,0.1-0.3,0.3v20.4c0,0.2,0.1,0.3,0.3,0.3h9.9c0.3,0,0-0.3,0,0V265c0,0.3,0.3,0,0,0h-9.9c-0.2,0-0.3,0.1-0.3,0.3v20.4   c0,0.2,0.1,0.3,0.3,0.3h9.9c0.3,0,0-0.3,0,0v22.1C325.3,308.2,325.4,308.4,325.5,308.4z"
   id="path912" />
</g>
</svg>
