<?xml version="1.0" encoding="UTF-8" standalone="no"?>
<!-- Generator: Adobe Illustrator 26.0.1, SVG Export Plug-In . SVG Version: 6.00 Build 0)  -->

<svg
   version="1.1"
   id="Ebene_1"
   x="0px"
   y="0px"
   viewBox="0 0 608 519.9"
   style="enable-background:new 0 0 608 519.9;"
   xml:space="preserve"
   sodipodi:docname="housing.svg"
   inkscape:version="1.1.1 (3bf5ae0d25, 2021-09-20)"
   xmlns:inkscape="http://www.inkscape.org/namespaces/inkscape"
   xmlns:sodipodi="http://sodipodi.sourceforge.net/DTD/sodipodi-0.dtd"
   xmlns="http://www.w3.org/2000/svg"
   xmlns:svg="http://www.w3.org/2000/svg"><defs
   id="defs918" /><sodipodi:namedview
   id="namedview916"
   pagecolor="#ffffff"
   bordercolor="#666666"
   borderopacity="1.0"
   inkscape:pageshadow="2"
   inkscape:pageopacity="0.0"
   inkscape:pagecheckerboard="0"
   showgrid="false"
   inkscape:zoom="1.3468146"
   inkscape:cx="136.9899"
   inkscape:cy="321.87058"
   inkscape:window-width="1920"
   inkscape:window-height="1011"
   inkscape:window-x="0"
   inkscape:window-y="0"
   inkscape:window-maximized="1"
   inkscape:current-layer="g907" />
<style
   type="text/css"
   id="style888">
	.st0{fill:none;stroke:#000000;stroke-width:0.1134;stroke-linecap:round;stroke-linejoin:round;stroke-miterlimit:11.3386;}
	.st1{fill:none;stroke:#000000;stroke-width:0.1134;stroke-miterlimit:10;}
</style>
<g
   id="p-1">
	<path
   class="st0"
   d="M38.8,457.5h30.8c0.2,0,0.3-0.1,0.3-0.3v-9.9c0-0.3-0.3,0,0,0h19.8c0.3,0,0-0.3,0,0v9.9c0,0.2,0.1,0.3,0.3,0.3   h20.4c0.2,0,0.3-0.1,0.3-0.3v-9.9c0-0.3-0.3,0,0,0h19.8c0.3,0,0-0.3,0,0v9.9c0,0.2,0.1,0.3,0.3,0.3h20.4c0.2,0,0.3-0.1,0.3-0.3   v-9.9c0-0.3-0.3,0,0,0h19.8c0.3,0,0-0.3,0,0v9.9c0,0.2,0.1,0.3,0.3,0.3H192c0.2,0,0.3-0.1,0.3-0.3v-9.9c0-0.3-0.3,0,0,0h19.8   c0.3,0,0-0.3,0,0v9.9c0,0.2,0.1,0.3,0.3,0.3h20.4c0.2,0,0.3-0.1,0.3-0.3v-9.9c0-0.3-0.3,0,0,0H253c0.3,0,0-0.3,0,0v9.9   c0,0.2,0.1,0.3,0.3,0.3H284h10.2c0.2,0,0.3-0.1,0.3-0.3V447v-21.7v-21.7v-10.2c0-0.2-0.1-0.3-0.3-0.3H284h-30.8   c-0.2,0-0.3,0.1-0.3,0.3v9.9c0,0.3,0.3,0,0,0h-19.8c-0.3,0,0,0.3,0,0v-9.9c0-0.2-0.1-0.3-0.3-0.3h-20.4c-0.2,0-0.3,0.1-0.3,0.3v9.9   c0,0.3,0.3,0,0,0h-19.8c-0.3,0,0,0.3,0,0v-9.9c0-0.2-0.1-0.3-0.3-0.3h-20.4c-0.2,0-0.3,0.1-0.3,0.3v9.9c0,0.3,0.3,0,0,0h-19.8   c-0.3,0,0,0.3,0,0v-9.9c0-0.2-0.1-0.3-0.3-0.3h-20.4c-0.2,0-0.3,0.1-0.3,0.3v9.9c0,0.3,0.3,0,0,0h-19.8c-0.3,0,0,0.3,0,0v-9.9   c0-0.2-0.1-0.3-0.3-0.3H90c-0.2,0-0.3,0.1-0.3,0.3v9.9c0,0.3,0.3,0,0,0H69.9c-0.3,0,0,0.3,0,0v-9.9c0-0.2-0.1-0.3-0.3-0.3H38.8   H28.6c-0.2,0-0.3,0.1-0.3,0.3v10.2v21.7V447v10.2c0,0.2,0.1,0.3,0.3,0.3H38.8z"
   id="path890" />
</g>
<g
   id="p-3">
	<path
   class="st0"
   d="M313.5,388.1h22.4c0.2,0,0.3-0.1,0.3-0.3v-9.9c0-0.3-0.3,0,0,0H356c0.3,0,0-0.3,0,0v9.9c0,0.2,0.1,0.3,0.3,0.3   h20.4c0.2,0,0.3-0.1,0.3-0.3v-9.9c0-0.3-0.3,0,0,0h19.8c0.3,0,0-0.3,0,0v9.9c0,0.2,0.1,0.3,0.3,0.3h20.4c0.2,0,0.3-0.1,0.3-0.3   v-9.9c0-0.3-0.3,0,0,0h19.8c0.3,0,0-0.3,0,0v9.9c0,0.2,0.1,0.3,0.3,0.3h20.4c0.2,0,0.3-0.1,0.3-0.3v-9.9c0-0.3-0.3,0,0,0h19.8   c0.3,0,0-0.3,0,0v9.9c0,0.2,0.1,0.3,0.3,0.3h20.4c0.2,0,0.3-0.1,0.3-0.3v-9.9c0-0.3-0.3,0,0,0h19.8c0.3,0,0-0.3,0,0v9.9   c0,0.2,0.1,0.3,0.3,0.3H540c0.2,0,0.3-0.1,0.3-0.3v-9.9c0-0.3-0.3,0,0,0h19.8c0.3,0,0-0.3,0,0v9.9c0,0.2,0.1,0.3,0.3,0.3h22.4   c0.2,0,0.3-0.1,0.3-0.3v-10.2v-21.7v-21.7V324c0-0.2-0.1-0.3-0.3-0.3h-22.4c-0.2,0-0.3,0.1-0.3,0.3v9.9c0,0.3,0.3,0,0,0h-19.8   c-0.3,0,0,0.3,0,0V324c0-0.2-0.1-0.3-0.3-0.3h-20.4c-0.2,0-0.3,0.1-0.3,0.3v9.9c0,0.3,0.3,0,0,0h-19.8c-0.3,0,0,0.3,0,0V324   c0-0.2-0.1-0.3-0.3-0.3h-20.4c-0.2,0-0.3,0.1-0.3,0.3v9.9c0,0.3,0.3,0,0,0h-19.9c-0.3,0,0,0.3,0,0V324c0-0.2-0.1-0.3-0.3-0.3h-20.4   c-0.2,0-0.3,0.1-0.3,0.3v9.9c0,0.3,0.3,0,0,0h-19.8c-0.3,0,0,0.3,0,0V324c0-0.2-0.1-0.3-0.3-0.3h-20.4c-0.2,0-0.3,0.1-0.3,0.3v9.9   c0,0.3,0.3,0,0,0H377c-0.3,0,0,0.3,0,0V324c0-0.2-0.1-0.3-0.3-0.3h-20.4c-0.2,0-0.3,0.1-0.3,0.3v9.9c0,0.3,0.3,0,0,0h-19.8   c-0.3,0,0,0.3,0,0V324c0-0.2-0.1-0.3-0.3-0.3h-22.4c-0.2,0-0.3,0.1-0.3,0.3v10.2v21.7v21.7v10.2   C313.2,387.9,313.3,388.1,313.5,388.1z"
   id="path893" />
</g>
<g
   id="p-5">
	<path
   class="st0"
   d="M151.2,318.6h20.4c0.2,0,0.3-0.1,0.3-0.3v-9.9c0-0.3-0.3,0,0,0h19.8c0.3,0,0-0.3,0,0v9.9   c0,0.2,0.1,0.3,0.3,0.3h20.4c0.2,0,0.3-0.1,0.3-0.3v-9.9c0-0.3-0.3,0,0,0h19.8c0.3,0,0-0.3,0,0v9.9c0,0.2,0.1,0.3,0.3,0.3h20.4   c0.2,0,0.3-0.1,0.3-0.3v-9.9c0-0.3-0.3,0,0,0H284c0.2,0,0.3-0.1,0.3-0.3V286c0-0.3-0.3,0,0,0h9.9c0.2,0,0.3-0.1,0.3-0.3v-20.4   c0-0.2-0.1-0.3-0.3-0.3h-9.9c-0.3,0,0,0.3,0,0v-19.8c0-0.3-0.3,0,0,0h9.9c0.2,0,0.3-0.1,0.3-0.3v-20.4c0-0.2-0.1-0.3-0.3-0.3h-9.9   c-0.3,0,0,0.3,0,0v-19.8c0-0.3-0.3,0,0,0h9.9c0.2,0,0.3-0.1,0.3-0.3v-20.4c0-0.2-0.1-0.3-0.3-0.3h-9.9c-0.3,0,0,0.3,0,0v-19.8   c0-0.3-0.3,0,0,0h9.9c0.2,0,0.3-0.1,0.3-0.3v-20.4c0-0.2-0.1-0.3-0.3-0.3h-9.9c-0.3,0,0,0.3,0,0v-19.8c0-0.3-0.3,0,0,0h9.9   c0.2,0,0.3-0.1,0.3-0.3V102c0-0.2-0.1-0.3-0.3-0.3h-9.9c-0.3,0,0,0.3,0,0V81.9c0-0.3-0.3,0,0,0h9.9c0.2,0,0.3-0.1,0.3-0.3V61.2   c0-0.2-0.1-0.3-0.3-0.3h-9.9c-0.3,0,0,0.3,0,0V38.8c0-0.2-0.1-0.3-0.3-0.3h-30.5c-0.3,0,0,0.3,0,0v-9.9c0-0.2-0.1-0.3-0.3-0.3   h-20.4c-0.2,0-0.3,0.1-0.3,0.3v9.9c0,0.3,0.3,0,0,0h-19.8c-0.3,0,0,0.3,0,0v-9.9c0-0.2-0.1-0.3-0.3-0.3H192c-0.2,0-0.3,0.1-0.3,0.3   v9.9c0,0.3,0.3,0,0,0h-19.8c-0.3,0,0,0.3,0,0v-9.9c0-0.2-0.1-0.3-0.3-0.3h-20.4c-0.2,0-0.3,0.1-0.3,0.3v9.9c0,0.3,0.3,0,0,0h-19.8   c-0.3,0,0,0.3,0,0v-9.9c0-0.2-0.1-0.3-0.3-0.3h-20.4c-0.2,0-0.3,0.1-0.3,0.3v9.9c0,0.3,0.3,0,0,0H90.3c-0.3,0,0,0.3,0,0v-9.9   c0-0.2-0.1-0.3-0.3-0.3H69.6c-0.2,0-0.3,0.1-0.3,0.3v9.9c0,0.3,0.3,0,0,0H38.8c-0.2,0-0.3,0.1-0.3,0.3v22.1c0,0.3,0.3,0,0,0h-9.9   c-0.2,0-0.3,0.1-0.3,0.3v20.4c0,0.2,0.1,0.3,0.3,0.3h9.9c0.3,0,0-0.3,0,0v19.8c0,0.3,0.3,0,0,0h-9.9c-0.2,0-0.3,0.1-0.3,0.3v20.4   c0,0.2,0.1,0.3,0.3,0.3h9.9c0.3,0,0-0.3,0,0v19.8c0,0.3,0.3,0,0,0h-9.9c-0.2,0-0.3,0.1-0.3,0.3v20.4c0,0.2,0.1,0.3,0.3,0.3h9.9   c0.3,0,0-0.3,0,0v19.8c0,0.3,0.3,0,0,0h-9.9c-0.2,0-0.3,0.1-0.3,0.3V204c0,0.2,0.1,0.3,0.3,0.3h9.9c0.3,0,0-0.3,0,0v19.8   c0,0.3,0.3,0,0,0h-9.9c-0.2,0-0.3,0.1-0.3,0.3v20.4c0,0.2,0.1,0.3,0.3,0.3h9.9c0.3,0,0-0.3,0,0V265c0,0.3,0.3,0,0,0h-9.9   c-0.2,0-0.3,0.1-0.3,0.3v20.4c0,0.2,0.1,0.3,0.3,0.3h9.9c0.3,0,0-0.3,0,0v22.1c0,0.2,0.1,0.3,0.3,0.3h30.5c0.3,0,0-0.3,0,0v9.9   c0,0.2,0.1,0.3,0.3,0.3H90c0.2,0,0.3-0.1,0.3-0.3v-9.9c0-0.3-0.3,0,0,0h19.8c0.3,0,0-0.3,0,0v9.9c0,0.2,0.1,0.3,0.3,0.3h20.4   L151.2,318.6L151.2,318.6z"
   id="path896" />
</g>
<path
   class="st1"
   d="M271.7,349.4c-2.5-5.8-8.3-9.8-15-9.8c-6.7,0-12.4,4-15,9.8v13c2.5,5.8,8.3,9.8,15,9.8c6.7,0,12.4-4,15-9.8  V349.4z"
   id="path899" />
<rect
   x="372.1"
   y="342.7"
   class="st1"
   width="30"
   height="26.4"
   id="rect901" />
<rect
   x="55.8"
   y="202.9"
   class="st1"
   width="28.3"
   height="32.9"
   id="rect903" />
<g
   id="g907">
	<path
   class="st1"
   d="M 294.2,323.7 H 284 253.2 c -0.2,0 -0.3,0.1 -0.3,0.3 v 9.9 H 233.1 V 324 c 0,-0.2 -0.1,-0.3 -0.3,-0.3 h -20.4 c -0.2,0 -0.3,0.1 -0.3,0.3 v 9.9 H 192.3 V 324 c 0,-0.2 -0.1,-0.3 -0.3,-0.3 h -20.4 c -0.2,0 -0.3,0.1 -0.3,0.3 v 9.9 h -20.9 v 25.3 c 0,0.8 -0.6,1.4 -1.4,1.4 h -29.8 c -0.8,0 -1.4,-0.6 -1.4,-1.4 v -25.3 h -7.1 V 324 c 0,-0.2 -0.1,-0.3 -0.3,-0.3 H 90 c -0.2,0 -0.3,0.1 -0.3,0.3 v 9.9 H 69.9 V 324 c 0,-0.2 -0.1,-0.3 -0.3,-0.3 H 38.8 28.6 c -0.2,0 -0.3,0.1 -0.3,0.3 v 10.2 21.7 21.7 10.2 c 0,0.2 0.1,0.3 0.3,0.3 h 10.2 30.8 c 0.2,0 0.3,-0.1 0.3,-0.3 v -9.9 h 19.8 v 9.9 c 0,0.2 0.1,0.3 0.3,0.3 h 20.4 c 0.2,0 0.3,-0.1 0.3,-0.3 v -9.9 h 19.8 v 9.9 c 0,0.2 0.1,0.3 0.3,0.3 h 20.4 c 0.2,0 0.3,-0.1 0.3,-0.3 v -9.9 h 19.8 v 9.9 c 0,0.2 0.1,0.3 0.3,0.3 H 192 c 0.2,0 0.3,-0.1 0.3,-0.3 v -9.9 h 19.8 v 9.9 c 0,0.2 0.1,0.3 0.3,0.3 h 20.4 c 0.2,0 0.3,-0.1 0.3,-0.3 v -9.9 H 253 v 9.9 c 0,0.2 0.1,0.3 0.3,0.3 h 30.7 10.2 c 0.2,0 0.3,-0.1 0.3,-0.3 V 377.6 355.9 334.2 324 c 0,-0.2 -0.1,-0.3 -0.3,-0.3 z"
   id="path905"
   sodipodi:nodetypes="scssccssssccssssccssssccssssccsscsscccsscssccssssccssssccssssccssssccsscsscccss" />
<g
   id="g933"
   transform="matrix(0,0.24014877,0.24014877,0,99.096908,73.762966)"
   style="clip-rule:evenodd;fill-rule:evenodd;image-rendering:optimizeQuality;shape-rendering:geometricPrecision;text-rendering:geometricPrecision" /><g
   id="g937"
   transform="matrix(0,0.24014877,0.24014877,0,99.096908,73.762966)"
   style="clip-rule:evenodd;fill-rule:evenodd;image-rendering:optimizeQuality;shape-rendering:geometricPrecision;text-rendering:geometricPrecision" /><g
   id="g981"
   transform="matrix(0,0.24014877,0.24014877,0,99.096908,73.762966)"
   style="clip-rule:evenodd;fill-rule:evenodd;image-rendering:optimizeQuality;shape-rendering:geometricPrecision;text-rendering:geometricPrecision" /><g
   id="g985"
   transform="matrix(0,0.24014877,0.24014877,0,99.096908,73.762966)"
   style="clip-rule:evenodd;fill-rule:evenodd;image-rendering:optimizeQuality;shape-rendering:geometricPrecision;text-rendering:geometricPrecision" /><g
   id="g993"
   transform="matrix(0,0.24014877,0.24014877,0,99.096908,73.762966)"
   style="clip-rule:evenodd;fill-rule:evenodd;image-rendering:optimizeQuality;shape-rendering:geometricPrecision;text-rendering:geometricPrecision" /><g
   id="g1005"
   transform="matrix(0,0.24014877,0.24014877,0,99.096908,73.762966)"
   style="clip-rule:evenodd;fill-rule:evenodd;image-rendering:optimizeQuality;shape-rendering:geometricPrecision;text-rendering:geometricPrecision" /><g
   id="g1009"
   transform="matrix(0,0.24014877,0.24014877,0,99.096908,73.762966)"
   style="clip-rule:evenodd;fill-rule:evenodd;image-rendering:optimizeQuality;shape-rendering:geometricPrecision;text-rendering:geometricPrecision" /><g
   id="g1013"
   transform="matrix(0,0.24014877,0.24014877,0,99.096908,73.762966)"
   style="clip-rule:evenodd;fill-rule:evenodd;image-rendering:optimizeQuality;shape-rendering:geometricPrecision;text-rendering:geometricPrecision" /><g
   id="g1017"
   transform="matrix(0,0.24014877,0.24014877,0,99.096908,73.762966)"
   style="clip-rule:evenodd;fill-rule:evenodd;image-rendering:optimizeQuality;shape-rendering:geometricPrecision;text-rendering:geometricPrecision" /><g
   id="g1021"
   transform="matrix(0,0.24014877,0.24014877,0,99.096908,73.762966)"
   style="clip-rule:evenodd;fill-rule:evenodd;image-rendering:optimizeQuality;shape-rendering:geometricPrecision;text-rendering:geometricPrecision" /><g
   id="g1025"
   transform="matrix(0,0.24014877,0.24014877,0,99.096908,73.762966)"
   style="clip-rule:evenodd;fill-rule:evenodd;image-rendering:optimizeQuality;shape-rendering:geometricPrecision;text-rendering:geometricPrecision" /><g
   id="g1033"
   transform="matrix(0,0.24014877,0.24014877,0,99.096908,73.762966)"
   style="clip-rule:evenodd;fill-rule:evenodd;image-rendering:optimizeQuality;shape-rendering:geometricPrecision;text-rendering:geometricPrecision" /><g
   id="g1037"
   transform="matrix(0,0.24014877,0.24014877,0,99.096908,73.762966)"
   style="clip-rule:evenodd;fill-rule:evenodd;image-rendering:optimizeQuality;shape-rendering:geometricPrecision;text-rendering:geometricPrecision" /><g
   id="g1049"
   transform="matrix(0,0.24014877,0.24014877,0,99.096908,73.762966)"
   style="clip-rule:evenodd;fill-rule:evenodd;image-rendering:optimizeQuality;shape-rendering:geometricPrecision;text-rendering:geometricPrecision" /><g
   id="g1053"
   transform="matrix(0,0.24014877,0.24014877,0,99.096908,73.762966)"
   style="clip-rule:evenodd;fill-rule:evenodd;image-rendering:optimizeQuality;shape-rendering:geometricPrecision;text-rendering:geometricPrecision" /><g
   id="g1061"
   transform="matrix(0,0.24014877,0.24014877,0,99.096908,73.762966)"
   style="clip-rule:evenodd;fill-rule:evenodd;image-rendering:optimizeQuality;shape-rendering:geometricPrecision;text-rendering:geometricPrecision" /><g
   id="g1081"
   transform="matrix(0,0.24014877,0.24014877,0,99.096908,73.762966)"
   style="clip-rule:evenodd;fill-rule:evenodd;image-rendering:optimizeQuality;shape-rendering:geometricPrecision;text-rendering:geometricPrecision" /><g
   id="g1085"
   transform="matrix(0,0.24014877,0.24014877,0,99.096908,73.762966)"
   style="clip-rule:evenodd;fill-rule:evenodd;image-rendering:optimizeQuality;shape-rendering:geometricPrecision;text-rendering:geometricPrecision" /><g
   id="g1093"
   transform="matrix(0,0.24014877,0.24014877,0,99.096908,73.762966)"
   style="clip-rule:evenodd;fill-rule:evenodd;image-rendering:optimizeQuality;shape-rendering:geometricPrecision;text-rendering:geometricPrecision" /><g
   id="g1101"
   transform="matrix(0,0.24014877,0.24014877,0,99.096908,73.762966)"
   style="clip-rule:evenodd;fill-rule:evenodd;image-rendering:optimizeQuality;shape-rendering:geometricPrecision;text-rendering:geometricPrecision" /><g
   id="g1109"
   transform="matrix(0,0.24014877,0.24014877,0,99.096908,73.762966)"
   style="clip-rule:evenodd;fill-rule:evenodd;image-rendering:optimizeQuality;shape-rendering:geometricPrecision;text-rendering:geometricPrecision" /><g
   id="g1133"
   transform="matrix(0,0.24014877,0.24014877,0,99.096908,73.762966)"
   style="clip-rule:evenodd;fill-rule:evenodd;image-rendering:optimizeQuality;shape-rendering:geometricPrecision;text-rendering:geometricPrecision" /><g
   id="g3923"
   transform="matrix(0.51280309,0,0,0.51280309,136.23814,13.319233)"><path
     style="clip-rule:evenodd;opacity:0.995;fill:none;fill-rule:evenodd;stroke-width:0.240149;image-rendering:optimizeQuality;shape-rendering:geometricPrecision;text-rendering:geometricPrecision"
     fill="#719d5e"
     d="m 98.976834,170.90314 c 0,0.16018 0,0.32012 0,0.4803 0.800495,0.40033 1.600996,0.80042 2.401486,1.20074 38.29677,21.27022 76.64036,42.48352 115.03126,63.63943 -0.56675,-1.12774 -0.8069,-2.32848 -0.72044,-3.60223 0.37007,-2.30951 0.49014,-4.63103 0.36022,-6.96432 -0.42458,-1.71634 -1.46515,-2.43679 -3.12194,-2.16134 0.27714,2.47113 0.43708,4.95259 0.4803,7.44462 -0.17699,0.8518 -0.61718,1.53215 -1.32082,2.04126 -0.9678,-0.54946 -2.00836,-1.02976 -3.12193,-1.44089 -0.86862,-1.26583 -1.14887,-2.66685 -0.84052,-4.20261 0.30571,-0.92649 0.54586,-1.88708 0.72045,-2.88178 0.92289,-1.52567 1.96369,-2.96656 3.12193,-4.32268 0.66353,-1.37341 1.10372,-2.8143 1.32082,-4.32268 1.13638,-0.29058 2.05711,-0.93105 2.76171,-1.92119 1.18033,-1.63973 2.30086,-3.32077 3.36208,-5.04312 0.25912,-0.6155 0.3792,-1.25574 0.36022,-1.92119 -0.28217,-0.0526 -0.52232,0.0274 -0.72044,0.24015 -1.61524,2.37699 -3.45622,4.57819 -5.52342,6.60409 -1.59099,0.14025 -2.11139,-0.5401 -1.56097,-2.04127 0.64048,-0.64047 1.28071,-1.28071 1.92119,-1.92119 1.06434,-2.18751 2.50523,-4.1087 4.32268,-5.76357 0.2596,-1.19498 0.49975,-2.39572 0.72044,-3.60223 1.07755,-1.19498 2.03815,-2.47569 2.88179,-3.84238 0.78745,-2.21513 1.82801,-4.2965 3.12193,-6.24387 0.82059,-2.65988 1.30089,-5.38149 1.4409,-8.16505 0.72212,-2.08354 1.44257,-4.1649 2.16134,-6.24387 0.18731,-1.78119 0.0672,-3.5422 -0.36023,-5.28328 1.46275,-6.13604 1.58282,-12.29994 0.36023,-18.49145 -0.16018,-3.60223 -0.16018,-7.20446 0,-10.8067 0.0485,-0.4217 0.16858,-0.82178 0.36022,-1.20074 0.73101,0.99926 1.1712,2.12003 1.32082,3.36208 0.10422,2.82896 0.42458,5.63077 0.96059,8.40521 0.7644,1.72403 2.08521,2.72473 3.96246,3.00186 0.69859,0.90272 0.53865,1.5833 -0.4803,2.04126 -0.85493,-0.13424 -1.4152,-0.61454 -1.68104,-1.44089 -1.10397,-0.80402 -1.74444,-0.52376 -1.92119,0.84052 0.21109,2.06528 1.13158,3.70622 2.76171,4.92305 0.81818,0.95411 0.77808,1.8746 -0.12008,2.76171 -2.53453,0.48967 -3.05469,1.81049 -1.56096,3.96246 1.81,0.85949 2.57031,2.26052 2.28141,4.2026 -0.24015,0.16018 -0.4803,0.16018 -0.72045,0 -0.49782,-0.64672 -1.01823,-1.24709 -1.56096,-1.80111 -0.55739,0.23702 -0.95748,0.63735 -1.20075,1.20074 -0.3266,4.67522 -1.3273,9.19818 -3.00186,13.56841 0.12512,1.01943 0.52521,1.90005 1.20075,2.64163 0.57347,0.20773 0.9337,0.008 1.08067,-0.60037 0.08,-0.9606 0.16018,-1.92119 0.24015,-2.88179 0.47909,-0.53961 1.07946,-0.77976 1.80111,-0.72044 0.0519,1.58066 -0.38832,3.02155 -1.32082,4.32268 -0.23846,0.94666 -0.39864,1.90726 -0.48029,2.88178 -0.17747,0.25792 -0.41762,0.4181 -0.72045,0.4803 -0.80714,-0.52449 -1.64766,-1.00478 -2.52156,-1.44089 -1.09916,0.34125 -1.45939,1.06169 -1.08067,2.16134 1.37053,5.05104 1.69064,10.17414 0.96059,15.36952 -0.39672,1.83257 -1.11717,3.51361 -2.16134,5.04312 -0.33933,0.45965 -0.77976,0.77976 -1.32081,0.9606 -1.27423,-0.82588 -2.55495,-0.86574 -3.84239,-0.12008 -1.25285,1.66687 -2.41349,3.38802 -3.48215,5.1632 -0.14025,0.66209 -0.06,1.30233 0.24015,1.92119 2.01244,3.34455 3.73359,6.82671 5.1632,10.44647 -0.26777,2.43919 -1.42841,3.03956 -3.48216,1.80112 -0.30739,0.0271 -0.50744,0.18731 -0.60037,0.48029 0.86933,1.59387 2.15029,2.03431 3.84238,1.32082 2.69014,-2.30518 3.41059,-5.107 2.16134,-8.4052 -0.34126,-1.04297 -0.78145,-2.04343 -1.32082,-3.00186 -1.12078,-1.28072 -2.24131,-2.56167 -3.36209,-3.84238 -0.21973,-1.34268 0.10063,-2.54342 0.9606,-3.60224 0.8362,-0.37871 1.47643,-0.13856 1.92119,0.72045 0.57179,1.07299 1.05209,2.19376 1.44089,3.36208 0.60782,0.88903 1.36837,1.08908 2.28142,0.60038 0.40537,-1.05066 1.04584,-1.93128 1.92119,-2.64164 0.8093,-0.32324 1.52974,-0.76343 2.16133,-1.32082 -0.93682,-1.353 -1.57705,-2.83399 -1.92119,-4.44275 0.11408,-0.89744 0.39433,-1.73796 0.84053,-2.52156 0.81506,-0.42627 1.4553,-0.26609 1.92119,0.48029 0.0968,1.6054 0.49686,3.12626 1.20074,4.56283 0.77064,1.25094 1.49108,1.25094 2.16134,0 0.76991,-3.44902 1.57033,-6.89131 2.40149,-10.3264 0.22453,-3.47807 0.70483,-6.92012 1.44089,-10.32639 1.48916,-5.72467 2.80998,-11.48824 3.96245,-17.29071 -0.10302,-0.89936 -0.50335,-1.61981 -1.20074,-2.16134 0.4791,-0.99686 0.83932,-2.03767 1.08067,-3.12194 0.08,-4.00256 0.16018,-8.00488 0.24015,-12.00744 0.12007,-0.96059 0.24015,-1.92119 0.36022,-2.88178 -0.55018,-3.7468 -0.63015,-7.50897 -0.24015,-11.28699 -0.67073,-7.04045 -1.1909,-14.08497 -1.56097,-21.1331 -0.2937,-0.98821 -0.77399,-1.86883 -1.44089,-2.64163 -0.65464,-1.42 -0.73485,-2.86089 -0.24015,-4.32268 0.76416,-0.94234 1.4846,-0.94234 2.16134,0 0.0608,1.77134 0.2207,3.53235 0.4803,5.28327 0.69307,1.9589 1.21347,3.96006 1.56097,6.00372 -0.25816,1.83786 -0.37824,3.67908 -0.36023,5.52342 0.64192,1.20531 1.04225,2.48602 1.20075,3.84238 0.68802,9.0344 0.92817,18.07984 0.72044,27.13682 -0.77592,8.8173 -1.65654,17.62283 -2.64163,26.41636 -1.23077,4.8426 -2.27133,9.72579 -3.12194,14.64908 -0.31651,2.42045 0.16378,4.662 1.4409,6.72416 0.4313,0.30427 0.8715,0.30427 1.32081,0 0.48006,-0.47862 0.84028,-1.03912 1.08067,-1.68104 0.30067,-1.8441 0.62079,-3.68532 0.9606,-5.52342 0.57924,-1.46083 1.53983,-1.78095 2.88178,-0.9606 0.0389,1.28936 -0.0812,2.57007 -0.36022,3.84238 0.0226,1.44114 0.78313,2.16158 2.28141,2.16134 0.47238,-0.0101 0.91281,-0.13016 1.32082,-0.36022 0.68971,-0.95099 1.29008,-1.95145 1.80112,-3.00186 1.37197,2.53405 1.01174,4.81546 -1.08067,6.84424 -0.51008,0.37991 -1.03024,0.42002 -1.56097,0.12007 -0.50383,-1.21347 -1.26438,-2.21417 -2.28141,-3.00186 -0.32012,-0.16018 -0.64048,-0.16018 -0.9606,0 -1.17577,1.86164 -1.65606,3.9029 -1.44089,6.1238 -0.17819,2.67141 0.42218,5.15311 1.80112,7.44461 0.53601,0.91857 1.01631,0.91857 1.44089,0 0.24639,-1.26919 0.40657,-2.5499 0.4803,-3.84238 0.12031,-1.481 0.72068,-2.72185 1.80111,-3.72231 0.65249,-0.24807 1.09292,-0.048 1.32082,0.60037 0.21157,2.0307 0.0514,4.0321 -0.4803,6.00372 -0.33837,1.0581 -1.05881,1.69858 -2.16134,1.92119 -0.15801,0.97789 -0.078,1.93849 0.24015,2.88179 0.60734,1.42192 1.16785,2.86281 1.68104,4.32268 1.8309,-0.008 2.47114,0.87222 1.92119,2.64163 -1.23076,1.63133 -2.55158,3.1923 -3.96245,4.6829 -1.62148,0.2255 -2.70215,-0.45484 -3.24201,-2.04126 -0.28866,-1.03096 -0.008,-1.87148 0.84052,-2.52156 1.23533,-0.54514 2.51628,-0.94547 3.84238,-1.20075 0.10975,-0.0994 0.18996,-0.21949 0.24015,-0.36022 -0.95435,-0.30571 -1.91495,-0.58596 -2.88178,-0.84052 -0.66209,-1.48316 -1.34244,-2.96416 -2.04127,-4.44275 -0.58524,-0.76464 -1.30569,-1.00478 -2.16134,-0.72045 0.33741,1.97547 0.7776,3.93676 1.32082,5.88365 -0.0901,1.15103 -0.3302,2.2718 -0.72045,3.36208 0.6328,1.56481 0.1525,2.5254 -1.44089,2.88178 -0.451,0.37055 -0.81122,0.81075 -1.08067,1.32082 0.16018,2.08473 0.12032,4.16586 -0.12007,6.24387 -0.64528,0.0394 -1.28576,-7.2e-4 -1.92119,-0.12007 -0.28842,-0.21686 -0.4887,-0.49687 -0.60037,-0.84052 -0.16018,-1.76101 -0.16018,-3.52227 0,-5.28328 0.37559,-1.99851 0.73581,-3.99967 1.08067,-6.00372 -0.51152,-1.51461 -1.19186,-2.95551 -2.04127,-4.32267 -0.24015,-0.80042 -0.4803,-1.60108 -0.72045,-2.40149 -0.35325,-0.97164 -0.95363,-1.17169 -1.80111,-0.60037 -0.23054,0.34077 -0.43059,0.70099 -0.60037,1.08067 -0.16018,2.32151 -0.16018,4.64279 0,6.96431 0.38279,2.0307 1.18321,3.87192 2.40148,5.52342 0.57492,1.17553 0.45485,2.2562 -0.36022,3.24201 -0.32012,0.16018 -0.64048,0.16018 -0.96059,0 -0.47646,-0.51248 -0.79682,-1.11285 -0.9606,-1.80112 -0.317,-0.42506 -0.67722,-0.50503 -1.08067,-0.24014 -0.0351,0.85445 -0.2351,1.65486 -0.60037,2.40148 2.93005,1.66495 5.89181,3.26603 8.8855,4.80298 -0.0773,-0.53361 0.0829,-0.97404 0.4803,-1.32082 1.29729,-0.0281 2.21802,-0.62847 2.76171,-1.80112 0.14409,-1.34435 0.024,-2.66517 -0.36022,-3.96245 -0.0848,-0.76848 0.15538,-1.40895 0.72045,-1.92119 0.79129,0.21469 1.5516,0.57492 2.28141,1.08067 0.08,1.12077 0.16018,2.24131 0.24015,3.36208 0.8362,0.37872 1.47643,0.13857 1.92119,-0.72044 0.22886,-1.20771 0.66929,-2.32849 1.32082,-3.36209 0.83812,-0.62534 1.39862,-0.3852 1.68104,0.72045 0.0999,3.75953 -0.0202,7.5217 -0.36023,11.28699 -0.83523,1.49541 -1.79583,1.57538 -2.88178,0.24015 -0.08,-0.80042 -0.16018,-1.60107 -0.24015,-2.40149 -0.21109,-0.68346 -0.61142,-0.84364 -1.20074,-0.48029 -0.0411,1.07202 -0.56123,1.71226 -1.56097,1.92119 2.28189,1.42144 4.60341,2.78236 6.96431,4.08252 0.24015,0 0.4803,0 0.72045,0 -0.0175,-0.3667 0.14265,-0.60685 0.4803,-0.72044 0,-60.75764 0,-121.51528 0,-182.272918 -0.40033,0 -0.80042,0 -1.20075,0 -16.93096,10.666664 -33.82159,21.393317 -50.67139,32.179938 -34.46086,21.75339 -68.96232,43.44699 -103.504116,65.08031 z"
     id="path923" /><path
     id="path927"
     d="m 101.37832,172.58418 c 0.1872,-1.19305 0.74754,-2.19375 1.68104,-3.00185 2.14993,-0.75383 4.07112,-1.87461 5.76357,-3.36209 1.53621,-0.69427 2.77699,-0.33404 3.72231,1.08067 0.2967,1.9027 0.45679,3.82389 0.4803,5.76357 0.80373,1.9272 1.52417,1.84723 2.16134,-0.24015 0.43363,-2.718 0.43363,-5.43961 0,-8.16505 -0.18785,-0.61863 -0.54807,-1.09893 -1.08067,-1.4409 0.82772,-0.2937 1.62823,-0.65392 2.40148,-1.08067 5.53546,-4.40985 11.45918,-8.25223 17.77101,-11.52714 2.36403,-1.6222 4.68531,-3.30324 6.96432,-5.04312 2.44375,-1.16496 4.88534,-2.3256 7.32453,-3.48216 0.55619,0.10423 1.03649,0.34437 1.4409,0.72045 0.46204,4.03186 0.42194,8.07428 -0.12008,12.12751 0.30907,1.79127 0.54922,3.59239 0.72045,5.40335 -0.17843,2.15461 -0.65873,4.23598 -1.44089,6.24387 0.35854,1.58714 0.47861,3.18821 0.36022,4.80297 -1.46683,2.33473 -2.38732,2.09458 -2.76171,-0.72045 0.34845,-1.52734 0.74878,-3.0482 1.20074,-4.56282 -0.5533,-2.1318 -0.63351,-4.29314 -0.24015,-6.48402 -0.22766,-1.88541 -0.46781,-3.76649 -0.72044,-5.64349 0.11311,-1.48605 0.27329,-2.96704 0.4803,-4.44276 0.0113,-0.67121 -0.10879,-1.31145 -0.36023,-1.92119 -1.5893,-1.44281 -2.87002,-1.20266 -3.84238,0.72045 -0.30283,2.17238 -0.9032,4.25375 -1.80111,6.24387 0.0401,0.24015 0.08,0.48029 0.12007,0.72044 0.77184,0.56699 1.29224,1.28744 1.56097,2.16134 -0.3888,2.29655 -1.54968,2.85681 -3.48216,1.68104 0.068,-1.37004 0.26801,-2.73097 0.60037,-4.08253 -0.14097,-1.18393 -0.50119,-2.30446 -1.08067,-3.36208 -0.96059,-0.96059 -1.92119,-0.96059 -2.88178,0 -0.83524,1.06146 -1.39551,2.2622 -1.68104,3.60223 -0.12128,1.77134 -0.32132,3.53235 -0.60038,5.28328 0.4061,1.33835 0.52617,2.69903 0.36023,4.08253 -0.45821,0.652 -0.77832,1.37245 -0.9606,2.16133 -0.32612,3.03597 -0.40609,6.07793 -0.24015,9.12566 1.20747,3.98094 1.56769,8.02337 1.08067,12.12751 -0.67313,0.18131 -1.31361,0.10134 -1.92119,-0.24015 -0.84916,-1.01751 -1.60947,-2.09818 -2.28141,-3.24201 -0.64072,1.56097 -1.60131,1.80112 -2.88179,0.72045 -0.4301,-1.04297 -0.23006,-1.96346 0.60038,-2.76171 1.51798,0.1035 2.43871,-0.57684 2.76171,-2.04127 -0.12608,-3.56092 -0.32613,-7.12329 -0.60038,-10.68662 0.0195,-1.33018 0.13953,-2.651 0.36023,-3.96245 0.55498,-2.30015 0.99541,-4.62166 1.32082,-6.96432 -0.0182,-1.11837 -0.49855,-1.95889 -1.4409,-2.52156 -1.37221,0.005 -2.2927,0.68515 -2.76171,2.04127 -1.14695,3.59935 -1.9075,7.28155 -2.28141,11.04684 0.39937,3.35488 0.71949,6.71696 0.96059,10.08625 -0.0401,0.80042 -0.08,1.60107 -0.12007,2.40149 -0.0656,0.43923 -0.26584,0.79945 -0.60037,1.08067 -0.74302,0.15657 -1.46347,0.0764 -2.16134,-0.24015 -1.44089,-0.80042 -2.88179,-1.60107 -4.32268,-2.40149 -1.38825,-0.49399 -2.74908,-1.05425 -4.08253,-1.68104 -0.97217,-0.89239 -2.0128,-1.69305 -3.12193,-2.40149 -2.45072,-0.58428 -4.53202,-1.78503 -6.24387,-3.60223 -1.35033,-0.71973 -2.71118,-0.75959 -4.08253,-0.12008 z m 6.72417,-3.36208 c 0.0112,0.73678 0.13129,1.45722 0.36022,2.16134 0.61003,0.33045 1.09032,0.17051 1.44089,-0.4803 0.197,-1.44449 -0.40338,-2.005 -1.80111,-1.68104 z m 10.32639,-1.68104 c -0.04,2.64284 5e-5,5.28447 0.12008,7.92491 0.52595,2.38828 1.72669,2.86858 3.60223,1.44089 0.33714,-0.51368 0.53726,-1.07394 0.60037,-1.68104 -0.33289,-1.74492 -0.49298,-3.50593 -0.4803,-5.28327 0.20279,-2.40773 0.4029,-4.80922 0.60038,-7.20446 -0.24207,-1.94617 -1.12263,-2.3465 -2.64164,-1.20075 -1.01424,1.89958 -1.61462,3.90074 -1.80112,6.00372 z"
     style="clip-rule:evenodd;fill:#ff0000;fill-opacity:1;fill-rule:evenodd;stroke-width:0.240149;image-rendering:optimizeQuality;shape-rendering:geometricPrecision;text-rendering:geometricPrecision" /><g
     id="g941"
     transform="matrix(0,0.24014877,0.24014877,0,99.096908,73.762966)"
     style="clip-rule:evenodd;fill:#ff0000;fill-opacity:1;fill-rule:evenodd;image-rendering:optimizeQuality;shape-rendering:geometricPrecision;text-rendering:geometricPrecision"><path
       style="opacity:1;fill:#ff0000;fill-opacity:1"
       fill="#090c08"
       d="m 424.5,164.5 c 5.117,1.155 6.284,4.155 3.5,9 -3.184,3.344 -7.018,4.511 -11.5,3.5 -2.124,-2.408 -1.957,-4.908 0.5,-7.5 2.426,-1.952 4.926,-3.619 7.5,-5 z"
       id="path939" /></g><g
     id="g945"
     transform="matrix(0,0.24014877,0.24014877,0,99.096908,73.762966)"
     style="clip-rule:evenodd;fill:#ff0000;fill-opacity:1;fill-rule:evenodd;image-rendering:optimizeQuality;shape-rendering:geometricPrecision;text-rendering:geometricPrecision"><path
       style="opacity:1;fill:#ff0000;fill-opacity:1"
       fill="#040603"
       d="m 381.5,166.5 c 4.467,-0.367 8.8,0.133 13,1.5 1.337,4.662 -0.33,7.995 -5,10 -3.333,0.667 -6.667,0.667 -10,0 -6.961,-5.005 -6.295,-8.838 2,-11.5 z"
       id="path943" /></g><g
     id="g949"
     transform="matrix(0,0.24014877,0.24014877,0,99.096908,73.762966)"
     style="clip-rule:evenodd;fill:#ff0000;fill-opacity:1;fill-rule:evenodd;image-rendering:optimizeQuality;shape-rendering:geometricPrecision;text-rendering:geometricPrecision"><path
       style="opacity:1;fill:#ff0000;fill-opacity:1"
       fill="#060805"
       d="m 450.5,167.5 c 7.914,-0.888 12.414,2.445 13.5,10 -7.351,2.799 -12.851,0.799 -16.5,-6 0.672,-1.66 1.672,-2.993 3,-4 z"
       id="path947" /></g><g
     id="g953"
     transform="matrix(0,0.24014877,0.24014877,0,99.096908,73.762966)"
     style="clip-rule:evenodd;fill:#ff0000;fill-opacity:1;fill-rule:evenodd;image-rendering:optimizeQuality;shape-rendering:geometricPrecision;text-rendering:geometricPrecision"><path
       style="opacity:1;fill:#ff0000;fill-opacity:1"
       fill="#040604"
       d="m 421.5,191.5 c 0.751,-1.073 1.751,-1.24 3,-0.5 3.61,1.944 6.943,4.277 10,7 14.734,-0.058 16.734,4.942 6,15 -3.695,3.214 -7.695,3.88 -12,2 -1.77,-1.967 -2.77,-4.3 -3,-7 0.997,-4.138 1.164,-8.304 0.5,-12.5 -0.792,-2.144 -2.292,-3.477 -4.5,-4 z"
       id="path951" /></g><g
     id="g957"
     transform="matrix(0,0.24014877,0.24014877,0,99.096908,73.762966)"
     style="clip-rule:evenodd;fill:#ff0000;fill-opacity:1;fill-rule:evenodd;image-rendering:optimizeQuality;shape-rendering:geometricPrecision;text-rendering:geometricPrecision"><path
       style="opacity:1;fill:#ff0000;fill-opacity:1"
       fill="#050604"
       d="m 469.5,204.5 c 8.306,-1.018 14.972,1.649 20,8 -2.038,3.355 -5.038,5.188 -9,5.5 -6.351,1.856 -12.684,1.856 -19,0 -4.046,-1.471 -4.879,-3.971 -2.5,-7.5 3.101,-2.852 6.601,-4.852 10.5,-6 z"
       id="path955" /></g><g
     id="g961"
     transform="matrix(0,0.24014877,0.24014877,0,99.096908,73.762966)"
     style="clip-rule:evenodd;fill-rule:evenodd;image-rendering:optimizeQuality;shape-rendering:geometricPrecision;text-rendering:geometricPrecision"><path
       style="opacity:1;fill:#ff0000;fill-opacity:1"
       fill="#040503"
       d="m 322.5,218.5 c 4.016,-0.6 7.516,0.4 10.5,3 -0.141,4.829 -2.641,7.996 -7.5,9.5 -18.368,2.094 -36.368,5.761 -54,11 -5.687,5.821 -4.354,9.321 4,10.5 8.362,-2.398 16.695,-4.898 25,-7.5 5.647,0.3 11.314,0.3 17,0 3.51,-1.518 7.01,-3.018 10.5,-4.5 6.568,1.993 8.068,5.826 4.5,11.5 -15.269,2.156 -30.269,5.489 -45,10 -3.6,2.048 -7.1,4.214 -10.5,6.5 -9.25,-2.586 -18.416,-2.086 -27.5,1.5 -1.727,1.389 -3.061,3.056 -4,5 0.362,1.885 1.529,2.719 3.5,2.5 6.66,-1.914 13.16,-4.248 19.5,-7 2.829,0.048 5.163,1.048 7,3 -5.498,4.66 -11.165,9.16 -17,13.5 -4.294,1.682 -8.628,1.849 -13,0.5 -1.273,-6.163 -2.773,-12.163 -4.5,-18 2.615,-4.283 5.615,-8.283 9,-12 3.03,-9.109 7.197,-17.609 12.5,-25.5 3.054,-2.194 6.388,-3.861 10,-5 12.317,-1.083 24.65,-2.083 37,-3 4.654,-1.334 8.987,-3.167 13,-5.5 z"
       id="path959" /></g><g
     id="g965"
     transform="matrix(0,0.24014877,0.24014877,0,99.096908,73.762966)"
     style="clip-rule:evenodd;fill:#ff0000;fill-opacity:1;fill-rule:evenodd;image-rendering:optimizeQuality;shape-rendering:geometricPrecision;text-rendering:geometricPrecision"><path
       style="opacity:1;fill:#ff0000;fill-opacity:1"
       fill="#050704"
       d="m 399.5,230.5 c 7.503,0.512 10.17,4.346 8,11.5 -5.218,1.563 -10.551,1.896 -16,1 -5.272,-1.816 -5.939,-4.482 -2,-8 3.315,-1.83 6.649,-3.33 10,-4.5 z"
       id="path963" /></g><g
     id="g969"
     transform="matrix(0,0.24014877,0.24014877,0,99.096908,73.762966)"
     style="clip-rule:evenodd;fill:#ff0000;fill-opacity:1;fill-rule:evenodd;image-rendering:optimizeQuality;shape-rendering:geometricPrecision;text-rendering:geometricPrecision"><path
       style="opacity:1;fill:#ff0000;fill-opacity:1"
       fill="#060705"
       d="m 439.5,231.5 c 5.992,0.082 11.825,1.082 17.5,3 2.893,0.726 5.059,2.393 6.5,5 -2.568,3.12 -5.901,4.953 -10,5.5 -8.42,1.409 -16.42,0.242 -24,-3.5 -1.114,-1.223 -1.281,-2.556 -0.5,-4 3.069,-2.946 6.569,-4.946 10.5,-6 z"
       id="path967" /></g><path
     id="path971"
     d="m 137.03009,189.41148 c -0.002,-0.58375 0.44166,-0.98958 1.33114,-1.21763 0.93154,0.56556 1.93224,0.96588 3.00186,1.20075 0.28026,-0.08 0.56027,-0.16018 0.84052,-0.24015 0.82299,-1.83882 1.90366,-2.07897 3.24201,-0.72045 0.2961,2.13589 1.2968,3.85679 3.00186,5.1632 1.50453,0.70556 2.70528,0.3852 3.60223,-0.96059 1.04225,-0.16402 1.72259,0.27617 2.04127,1.32082 0.2596,1.13734 0.57972,2.25811 0.96059,3.36208 1.13062,2.17214 2.81166,2.73265 5.04313,1.68104 0.83403,-1.23989 0.79417,-2.44063 -0.12008,-3.60223 -2.49418,-1.31434 -3.49464,-3.3155 -3.00186,-6.00372 1.44089,-1.28071 2.88179,-2.56167 4.32268,-3.84238 0.62054,-1.04057 1.02087,-2.16134 1.20074,-3.36208 0.16018,-2.64164 0.16018,-5.28328 0,-7.92491 -1.02183,-1.56337 -1.78238,-3.24441 -2.28141,-5.04313 0.51512,-1.57994 0.95531,-3.18077 1.32082,-4.80297 0.0867,-4.08445 0.0867,-8.16698 0,-12.24759 0.68322,-2.33257 1.40367,-4.65408 2.16134,-6.96431 0.902,-2.04607 2.10274,-3.88729 3.60223,-5.52343 0.73822,-1.9392 1.77878,-3.70021 3.12193,-5.28327 0.16018,-0.4803 0.16018,-0.96059 0,-1.44089 -0.84244,-0.50119 -1.6431,-1.06146 -2.40149,-1.68104 -0.29154,-1.16304 -0.0113,-2.16374 0.84053,-3.00186 4.528,-2.30231 8.77071,-5.02416 12.72788,-8.16506 0.60638,-0.21517 1.12678,-0.0951 1.56097,0.36022 0.11983,0.95723 0.15994,1.91783 0.12007,2.88179 h 0.9606 c 0.0992,-1.29537 0.29946,-2.57608 0.60037,-3.84238 0.20821,-1.04873 0.80858,-1.76918 1.80111,-2.16134 1.38086,0.58068 2.10131,1.62148 2.16134,3.12193 0.79442,0.12632 1.31458,-0.1938 1.56097,-0.96059 -0.009,-1.05306 -0.0891,-2.09362 -0.24015,-3.12194 2.50331,-1.86187 4.8647,-3.90314 7.08439,-6.12379 0.84893,-0.40969 1.72955,-0.73005 2.64164,-0.9606 0.85349,-1.18945 1.73411,-2.35009 2.64163,-3.48215 1.56289,-0.17051 3.08399,-0.53073 4.56283,-1.08067 1.24205,-0.74086 2.44279,-1.54152 3.60223,-2.40149 0.73918,-0.0476 1.41976,0.15249 2.04127,0.60037 0.2937,0.98821 0.774,1.86884 1.44089,2.64164 2.95791,1.83257 5.19922,4.31403 6.72416,7.44461 1.27832,0.77256 1.87869,0.37223 1.80112,-1.20074 -0.50791,-2.1868 -0.58788,-4.38824 -0.24015,-6.6041 -0.45652,-2.78788 -2.05735,-3.90866 -4.80297,-3.36208 -0.32517,1.1311 -1.04561,1.69161 -2.16134,1.68104 -1.72979,-0.64984 -2.05015,-1.6904 -0.9606,-3.12193 2.20049,-1.621485 4.522,-3.062258 6.96432,-4.322678 1.68104,-1.360851 3.36208,-2.721678 5.04312,-4.082529 1.41135,-0.764946 2.85225,-1.485393 4.32268,-2.161339 2.34409,-1.489019 4.5854,-3.090019 6.72416,-4.802976 1.27856,-0.473309 2.59937,-0.753467 3.96246,-0.840521 1.20939,-0.120842 2.04991,0.359455 2.52156,1.440893 0.20773,0.260009 0.44788,0.300042 0.72045,0.120075 0.39624,-0.946259 0.59629,-1.946887 0.60037,-3.00186 0.24015,-0.400256 0.4803,-0.800488 0.72045,-1.200744 1.74107,-1.742063 3.62216,-3.30303 5.64349,-4.682901 0.79345,-0.250211 1.31386,0.02995 1.56097,0.840521 0.49519,2.213019 0.69523,4.454423 0.60037,6.724165 -1.25478,0.04863 -2.37555,-0.311593 -3.36208,-1.080669 -0.4803,-0.160107 -0.9606,-0.160107 -1.4409,0 -0.91952,1.839828 -0.95963,3.720985 -0.12007,5.643496 0.37271,0.352082 0.81314,0.592231 1.32082,0.720446 0.25528,1.421873 0.69571,2.782724 1.32082,4.082529 0.8129,0.892657 1.53335,1.853252 2.16134,2.881786 0.23678,1.122935 -0.20365,1.643097 -1.32082,1.560967 -0.50792,-0.528256 -1.06842,-1.008553 -1.68104,-1.440893 -0.77328,-0.172019 -1.49373,-0.4522 -2.16134,-0.840521 -0.35999,-1.27944 -0.72021,-2.560226 -1.08067,-3.84238 -0.26777,-1.139554 -0.94811,-1.900033 -2.04127,-2.281413 -1.41615,-0.333999 -2.29678,0.186307 -2.64163,1.560967 0.37079,1.142651 0.81098,2.263354 1.32082,3.362082 0.0137,1.794608 0.25383,3.555643 0.72044,5.283277 0.47718,1.5223 1.3578,2.72304 2.64164,3.60223 0.18539,-0.0348 0.34557,-0.11479 0.4803,-0.24015 -0.0934,-1.05209 0.2668,-1.89261 1.08066,-2.52156 0.92482,-0.59965 1.60516,-0.39937 2.04127,0.60037 0.19428,1.16784 0.0341,2.28862 -0.4803,3.36208 -0.63135,0.86814 -1.15175,1.78863 -1.56097,2.76171 0.08,0.20005 0.16018,0.40033 0.24015,0.60037 1.16641,0.0209 2.16711,0.42099 3.00186,1.20075 -0.0488,2.24371 -0.12872,4.48526 -0.24015,6.72416 0.08,0.72045 0.4803,1.12078 1.20075,1.20075 0.45844,1.11669 0.45844,2.23722 0,3.36208 -0.50672,0.93322 -0.94691,1.89381 -1.32082,2.88179 0.45508,1.41183 1.01535,2.77251 1.68104,4.08252 -0.0461,0.49879 -0.16618,0.97909 -0.36022,1.4409 -0.58092,0.56435 -1.14119,1.12485 -1.68104,1.68104 -0.2548,1.10564 -0.41474,2.22642 -0.4803,3.36208 l -0.36022,0.36022 c -0.62055,0.0197 -1.18082,-0.18035 -1.68105,-0.60037 -0.78648,-0.7082 -0.86669,-1.46851 -0.24014,-2.28141 1.36932,-0.56795 2.20985,-1.56841 2.52156,-3.00186 0.16018,-2.00116 0.16018,-4.00256 0,-6.00372 -0.45508,-3.02395 -0.69523,-6.06568 -0.72045,-9.12565 l -0.72044,-3.60223 c -0.95772,-1.26103 -2.19857,-2.14165 -3.72231,-2.64164 -0.22622,0.0259 -0.42626,0.10591 -0.60037,0.24015 -0.0728,0.57347 -0.27305,1.09388 -0.60037,1.56097 -0.82852,0.70051 -1.66904,0.74037 -2.52157,0.12007 -0.26104,-0.82515 -0.46132,-1.66567 -0.60037,-2.52156 0.35518,-1.97427 0.31508,-3.93556 -0.12007,-5.88365 -1.43681,-1.637092 -2.91757,-3.238067 -4.44275,-4.802973 0.34845,-1.160543 1.0689,-1.560775 2.16133,-1.200744 0.42795,1.158118 0.98846,1.238159 1.68105,0.240149 -1.01535,-1.784665 -1.45579,-3.705856 -1.32082,-5.76357 -0.0392,-0.522564 -0.23919,-0.962829 -0.60037,-1.320819 -1.2872,-0.07954 -2.12772,0.520835 -2.52157,1.801116 -0.36887,1.500786 -0.44907,3.021744 -0.24015,4.562827 0.35206,3.27988 0.67218,6.561824 0.9606,9.846104 0.21109,1.11333 0.61118,2.15389 1.20074,3.12193 1.12078,0.80042 2.08137,1.76101 2.88179,2.88178 0.24567,2.24564 -0.55499,2.8059 -2.40149,1.68105 -0.41233,0.54441 -0.85253,1.06482 -1.32082,1.56096 -0.49638,0.12872 -0.93682,0.009 -1.32082,-0.36022 -0.59965,-1.87268 -0.99973,-3.79387 -1.20074,-5.76357 -0.47285,-2.10731 -1.47331,-3.90842 -3.00186,-5.40335 -1.54896,-0.79441 -2.94975,-1.79487 -4.2026,-3.001858 -0.48582,-0.895754 -0.92602,-1.816317 -1.32082,-2.76171 -2.10514,-0.787953 -3.38586,-0.06751 -3.84238,2.161339 0.57876,2.519159 1.7795,4.680499 3.60223,6.484019 0.57972,0.45268 1.2202,0.61286 1.92119,0.48029 0.26056,-0.5216 0.58092,-1.0019 0.9606,-1.44089 0.40032,-0.16018 0.80041,-0.16018 1.20074,0 0.4546,0.70052 0.57468,1.46107 0.36022,2.28142 -0.28169,2.72929 -1.68248,3.60991 -4.2026,2.64163 -0.22622,0.0259 -0.42626,0.10591 -0.60037,0.24015 -0.43035,1.27135 -0.83068,2.5523 -1.20075,3.84238 -0.88062,0.72045 -1.76101,1.44089 -2.64163,2.16134 -1.3446,2.52492 -2.78549,2.52492 -4.32268,0 -0.34269,-1.10997 -0.82299,-2.15053 -1.44089,-3.12193 -4.43435,-6.08513 -8.15666,-5.6447 -11.16692,1.32081 -1.13422,0.26801 -2.01485,-0.0922 -2.64164,-1.08067 -0.45436,1.05402 -0.85469,2.13469 -1.20074,3.24201 -0.29514,0.18756 -0.61526,0.30763 -0.9606,0.36023 -3.59598,-2.00236 -5.9175,-1.04177 -6.96431,2.88178 0.22382,1.08139 0.74398,1.24157 1.56097,0.4803 0.50095,-1.20411 1.2615,-2.20481 2.28141,-3.00186 0.34677,-0.18756 0.66689,-0.14745 0.96059,0.12007 0.61286,1.28528 0.57276,2.56623 -0.12007,3.84238 -1.14623,1.57154 -2.10683,3.25258 -2.88179,5.04313 -0.16017,0.32012 -0.16017,0.64048 0,0.96059 0.39145,0.4157 0.6717,0.896 0.84053,1.4409 -0.0118,0.86549 -0.4121,1.46586 -1.20075,1.80111 -1.11525,-0.0699 -2.23602,-0.0699 -3.36208,0 -1.40079,1.08067 -2.64164,2.32152 -3.72231,3.72231 -1.10492,2.14333 -2.30567,4.22469 -3.60223,6.24387 -0.79681,3.66202 -1.79751,7.26426 -3.00186,10.80669 0.36359,1.1311 0.80378,2.25164 1.32082,3.36208 0.16018,0.56027 0.16018,1.12078 0,1.68104 -2.18103,1.7968 -3.50185,4.11832 -3.96245,6.96432 0.17098,1.58234 0.93153,2.06264 2.28141,1.44089 0.18948,-0.80065 0.46973,-1.56121 0.84052,-2.28141 0.32012,-0.16018 0.64048,-0.16018 0.96059,0 0.58381,1.36644 0.62391,2.76723 0.12008,4.2026 -1.29464,1.69521 -2.49539,3.45646 -3.60223,5.28327 -0.32492,2.25524 -0.005,4.41658 0.96059,6.48402 0.896,1.94064 1.41616,1.7807 1.56097,-0.4803 -0.3595,-1.35468 -0.63952,-2.7156 -0.84052,-4.08253 0.88062,-0.96059 1.76101,-0.96059 2.64164,0 0.55666,2.53045 0.95699,5.09212 1.20074,7.68477 0.96756,4.58684 2.72857,8.82955 5.28327,12.72788 0.18203,0.5449 0.14193,1.0653 -0.12007,1.56097 -1.00983,0.0764 -1.85035,-0.28386 -2.52156,-1.08067 -0.74687,-1.41712 -1.6676,-2.69783 -2.76172,-3.84238 -0.08,0.20004 -0.16017,0.40033 -0.24014,0.60037 0.73821,1.49757 0.89815,3.05853 0.48029,4.6829 -0.52736,-0.0216 -1.04777,-0.10158 -1.56096,-0.24015 -0.45509,0.0276 -0.85541,0.1878 -1.20075,0.4803 -0.35085,1.67312 -0.91112,3.27395 -1.68104,4.80297 -0.82347,0.66161 -1.66399,1.30209 -2.52156,1.92119 -1.2615,1.98267 -1.86187,4.14401 -1.80112,6.48402 0.4803,0.64048 0.9606,0.64048 1.4409,0 0.08,-0.72044 0.16018,-1.44089 0.24014,-2.16134 0.24688,-0.44691 0.6071,-0.76727 1.08067,-0.96059 0.58549,0.5533 1.26583,0.95339 2.04127,1.20074 0.38544,-0.14433 0.70556,-0.38448 0.96059,-0.72044 0.32012,-1.68057 0.88039,-3.28164 1.68105,-4.80298 1.91038,-1.28816 2.51075,-3.04917 1.80111,-5.28327 0.16114,-0.34726 0.44139,-0.5072 0.84052,-0.4803 1.19498,0.47069 2.19568,1.23124 3.00186,2.28141 0.85157,0.28194 1.73219,0.44188 2.64164,0.4803 1.80472,1.64478 3.44565,3.44589 4.92305,5.40335 1.38686,2.80974 3.26818,5.25133 5.64349,7.32453 0.38712,0.17291 0.74735,0.13305 1.08067,-0.12007 0.0617,-0.60445 -0.0985,-1.16472 -0.48029,-1.68104 -1.88685,-1.88949 -3.40772,-4.05083 -4.56283,-6.48402 -3.36304,-4.32051 -6.24483,-8.96331 -8.64536,-13.92863 -0.33741,-0.85781 -0.41738,-1.73843 -0.24015,-2.64163 0.83692,-0.59125 1.55737,-0.43131 2.16134,0.48029 1.23413,2.78861 2.59505,5.51046 4.08253,8.16506 2.17551,3.05662 4.25688,6.17855 6.24387,9.3658 1.97378,1.97403 3.57461,4.21534 4.80298,6.72417 0.79633,1.01271 1.83689,1.57297 3.12193,1.68104 0.08,0.64048 0.16018,1.28072 0.24015,1.92119 1.14647,0.60133 1.38662,1.48172 0.72044,2.64164 -1.02399,0.68322 -1.98458,0.60325 -2.88178,-0.24015 -0.68202,-1.00382 -1.20243,-2.08449 -1.56097,-3.24201 -0.24015,-0.16018 -0.48029,-0.16018 -0.72044,0 -0.75743,0.66641 -0.87751,1.42697 -0.36023,2.28141 3.65363,2.88755 3.89378,6.00949 0.72045,9.36581 -0.16018,0.48029 -0.16018,0.96059 0,1.44089 1.67552,2.90676 0.99518,3.74728 -2.04127,2.52156 -3.25953,-2.71128 -6.86177,-4.87262 -10.80669,-6.48402 -2.27901,-1.73987 -4.60029,-3.42091 -6.96431,-5.04312 -4.04747,-2.18415 -8.21021,-4.10534 -12.48774,-5.76357 -1.14503,-1.14527 -2.42574,-2.10586 -3.84238,-2.88179 -1.17745,-0.78576 -1.25766,-1.66639 -0.24015,-2.64163 0.95867,-0.17171 1.87916,-0.0516 2.76171,0.36022 0.67218,-0.0317 1.15248,-0.35182 1.44089,-0.96059 0.37079,-1.58114 0.45076,-3.18222 0.24015,-4.80298 -0.0363,-0.62895 -0.23654,-1.18946 -0.60037,-1.68104 -0.14073,0.0502 -0.2608,0.1304 -0.36022,0.24015 -0.0197,1.35996 -0.34005,2.64067 -0.9606,3.84238 -0.3595,0.5228 -0.8398,0.84292 -1.44089,0.96059 -2.26845,-0.82899 -3.70934,-2.43006 -4.32268,-4.80297 -1.98771,-1.78623 -2.86809,-1.30593 -2.64163,1.44089 0.64047,1.28071 1.60107,2.24131 2.88178,2.88179 0.96564,1.79343 0.44524,2.63395 -1.56097,2.52156 -1.0432,-0.52136 -2.0038,-1.1616 -2.88178,-1.92119 -1.0031,-0.49447 -2.04367,-0.8948 -3.12194,-1.20075 -1.12077,-0.96059 -2.2413,-1.92119 -3.36208,-2.88178 -1.31529,-0.3852 -2.59625,-0.8655 -3.84238,-1.44089 -4.40217,-3.52347 -9.28511,-6.24507 -14.64907,-8.16506 -0.24576,-0.40335 -0.36941,-0.75801 -0.37055,-1.06379 z m 22.90842,0.69325 c -4.9e-4,0.0469 -4.9e-4,0.0935 0,0.14024 9.6e-4,0.0935 0.004,0.18675 0.008,0.27955 0.0511,1.11354 0.34057,2.17783 0.86866,3.19276 1.71538,1.03072 3.07631,0.63039 4.08253,-1.20075 0.53097,-2.08089 0.0106,-3.80203 -1.56097,-5.1632 -0.48029,-0.16018 -0.96059,-0.16018 -1.44089,0 -0.85901,0.49807 -1.49949,1.17841 -1.92119,2.04127 -0.018,0.19107 -0.0291,0.38063 -0.0338,0.56894 -0.001,0.0471 -0.002,0.0943 -0.002,0.14119 z m 4.33534,-29.45153 c 0.004,0.31113 0.0921,0.60587 0.2636,0.88414 l 0.24015,-0.24015 c 0.78985,-1.54031 1.67047,-3.02131 2.64163,-4.44275 1.1287,-0.27257 1.76894,0.16786 1.92119,1.32082 -0.62318,1.9099 -1.22355,3.83109 -1.80111,5.76357 -1.01295,2.02589 -1.89358,4.10702 -2.64164,6.24387 -0.37127,2.62963 -0.45124,5.27126 -0.24015,7.92491 0.0264,0.7555 0.34654,0.99565 0.9606,0.72044 0.15201,-1.73723 0.0319,-3.45838 -0.36023,-5.1632 0.0891,-0.68586 0.20917,-1.3662 0.36023,-2.04126 0.98917,-1.57874 1.78983,-3.25978 2.40148,-5.04312 1.39719,-1.08428 2.23771,-0.72405 2.52157,1.08067 -0.73174,2.40677 -1.33211,4.84812 -1.80112,7.32453 -0.24783,1.56361 -0.12776,3.08447 0.36022,4.56283 0.40033,0.32012 0.80042,0.32012 1.20075,0 0.63735,-1.69257 1.75813,-2.89331 3.36208,-3.60223 1.76581,-2.33065 3.08663,-4.89231 3.96246,-7.68476 0.68946,-4.56283 0.72957,-9.12566 0.12007,-13.68848 0.29538,-1.05858 0.65561,-2.09914 1.08067,-3.12194 0.43131,-2.85993 0.95171,-5.70161 1.56097,-8.52528 0.0636,-0.81122 -0.17651,-1.4918 -0.72045,-2.04126 -0.89143,1.49877 -1.93224,2.89955 -3.12193,4.2026 -1.81841,0.87702 -2.7389,0.35662 -2.76171,-1.56097 0.72885,-1.76941 2.04967,-2.6899 3.96245,-2.76171 2.49419,-2.10202 2.53429,-4.22325 0.12007,-6.36394 -0.40681,-1.08451 -0.84724,-2.12532 -1.32081,-3.12193 -0.14073,0.0502 -0.26081,0.1304 -0.36023,0.24015 -0.15994,1.60539 -0.11983,3.20622 0.12008,4.80297 -0.0247,1.36717 -0.42507,2.60802 -1.20075,3.72231 -0.79897,0.23294 -1.31913,-0.0473 -1.56096,-0.84052 l -0.9606,0.96059 c -0.9469,2.18511 -1.74732,4.42666 -2.40149,6.72417 -2.04895,4.49318 -4.01024,8.97604 -5.88364,13.44833 -0.0171,0.10734 -0.0249,0.21289 -0.0235,0.3166 z m 5.51263,34.61238 c -7.2e-4,0.0916 -1e-4,0.18314 10e-4,0.27439 0.0181,1.09499 0.18911,2.1684 0.51313,3.22043 0.18588,0.29082 0.38592,0.29082 0.60037,0 0.08,-1.52086 0.16018,-3.04196 0.24015,-4.56283 1.18322,-2.60585 2.78429,-4.92737 4.80298,-6.96431 1.41664,-1.83258 2.4171,-3.87384 3.00186,-6.12379 -0.16018,-1.84483 -1.04081,-3.20551 -2.64164,-4.08253 -0.4803,-0.16018 -0.96059,-0.16018 -1.44089,0 -1.42673,1.5869 -2.66757,3.30805 -3.72231,5.1632 -0.27977,2.3914 -0.43995,4.79288 -0.48029,7.20446 -0.20605,1.72739 -0.48607,3.40843 -0.84053,5.04312 -0.021,0.27733 -0.0324,0.55319 -0.0342,0.82786 z m 5.07736,-2.5089 c 0.10951,1.66015 0.62968,3.18101 1.56097,4.56283 0.8996,0.9349 1.77998,0.9349 2.64164,0 0.69043,-2.01149 0.24999,-3.73239 -1.32082,-5.1632 -1.11549,-0.5533 -2.07609,-0.35326 -2.88179,0.60037 z m 2.81988,-3.41274 c -1.3e-4,0.0405 2.4e-4,0.0808 9.6e-4,0.12055 0.0378,2.22643 1.33872,3.20388 3.90335,2.93197 0.52353,-2.11571 -0.0367,-3.95693 -1.68104,-5.52342 -0.40032,-0.16018 -0.80041,-0.16018 -1.20074,0 -0.41978,0.48342 -0.74014,1.00382 -0.9606,1.56096 -0.0404,0.32292 -0.061,0.6261 -0.0619,0.90994 z m 0.28752,-63.46634 c 1.7e-4,0.60185 0.0449,1.20133 0.13461,1.79876 1.03168,0.26345 1.75213,-0.13664 2.16134,-1.20074 0.27185,-1.05761 -0.0884,-1.77806 -1.08067,-2.16134 -0.54922,0.15058 -0.94955,0.47069 -1.20074,0.9606 -0.01,0.20112 -0.0146,0.4021 -0.0145,0.60272 z m 2.13554,4.87332 c -0.003,0.13227 0.005,0.25249 0.023,0.3607 0.10852,0.64921 0.59462,0.86503 1.45825,0.64727 0.7387,-0.73509 1.01895,-1.61572 0.84052,-2.64163 -0.4145,-0.2584 -0.85469,-0.29851 -1.32082,-0.12008 -0.3547,0.43515 -0.67482,0.87535 -0.96059,1.32082 -0.0239,0.15637 -0.0375,0.30066 -0.0403,0.43292 z m 2.18245,79.2749 c -4.8e-4,0.0507 -1.6e-4,0.10137 4.8e-4,0.15197 0.007,0.60716 0.0937,1.20399 0.25891,1.79079 1.20938,0.44092 2.04991,0.0406 2.52156,-1.20074 0.30523,-1.69545 -0.37512,-2.29582 -2.04127,-1.80112 -0.20965,0.25096 -0.4498,0.451 -0.72044,0.60038 -0.0113,0.1535 -0.0179,0.30647 -0.0192,0.45872 z m 0.25938,-75.86544 c -0.008,1.67912 0.67265,2.07945 2.04126,1.20075 0.11935,-0.55475 0.15922,-1.11502 0.12007,-1.68105 -0.78144,-0.0704 -1.50189,0.0898 -2.16133,0.4803 z m 2.61959,69.26182 c 9.6e-4,0.0609 0.003,0.12096 0.006,0.17964 0.0883,1.64291 1.05426,2.39046 2.89773,2.24295 0.91064,-0.72621 1.31073,-1.68681 1.20074,-2.88179 0.20245,-1.8782 -0.59821,-2.51868 -2.40148,-1.92119 -0.61647,0.5754 -1.17673,1.17577 -1.68105,1.80112 -0.0174,0.20344 -0.0248,0.39639 -0.022,0.57927 z m 0.46388,-77.06853 c 0.0131,1.30697 0.74633,1.98788 2.1998,2.04314 0.30355,-1.38998 -0.13665,-2.43054 -1.32082,-3.12193 -0.31291,0.11479 -0.59293,0.27497 -0.84052,0.48029 -0.0275,0.21226 -0.0403,0.41179 -0.0385,0.5985 z m 5.08158,79.61119 c -0.0271,1.37269 0.61334,2.05328 1.92119,2.04127 0.91353,-1.64694 0.43323,-2.44736 -1.44089,-2.40149 -0.13064,0.17219 -0.29082,0.29226 -0.4803,0.36022 z m 3.84238,6.24387 c -0.0963,1.27303 0.30403,2.3537 1.20075,3.24201 0.32012,0.16018 0.64047,0.16018 0.96059,0 0.51512,-0.79537 1.1556,-1.47595 1.92119,-2.04126 1.1652,0.24927 1.76558,0.96972 1.80112,2.16133 0.35062,0.65081 0.83091,0.81075 1.44089,0.4803 0.18972,-0.75262 0.10975,-1.47307 -0.24015,-2.16134 -0.98893,-1.46923 -2.14957,-2.79005 -3.48215,-3.96245 -0.52713,-0.32973 -1.08764,-0.4097 -1.68105,-0.24015 -0.89119,0.68562 -1.53142,1.52615 -1.92119,2.52156 z M 229.82696,94.277393 c 2.3e-4,0.07733 10e-4,0.154375 0.004,0.231237 0.0321,0.922352 0.24095,1.81187 0.62711,2.668841 1.1018,1.243971 2.14236,1.243971 3.12193,0 0.23823,-1.772538 -0.042,-3.453579 -0.84052,-5.043124 -0.40609,-0.421749 -0.88639,-0.541824 -1.44089,-0.360223 -0.63712,0.512405 -1.11742,1.112777 -1.4409,1.801116 -0.0215,0.236036 -0.0317,0.470163 -0.0309,0.702153 z"
     style="clip-rule:evenodd;fill:#ff0000;fill-opacity:1;fill-rule:evenodd;stroke-width:0.240149;image-rendering:optimizeQuality;shape-rendering:geometricPrecision;text-rendering:geometricPrecision" /><g
     id="g977"
     transform="matrix(0,0.24014877,0.24014877,0,99.096908,73.762966)"
     style="clip-rule:evenodd;fill:#ff0000;fill-opacity:1;fill-rule:evenodd;image-rendering:optimizeQuality;shape-rendering:geometricPrecision;text-rendering:geometricPrecision"><path
       style="opacity:1;fill:#ff0000;fill-opacity:1"
       fill="#090b07"
       d="m 360.5,233.5 c 5.477,-0.572 9.81,1.261 13,5.5 -3.285,5.873 -8.285,8.54 -15,8 -4.756,-2.339 -5.923,-5.839 -3.5,-10.5 1.876,-1.109 3.709,-2.109 5.5,-3 z"
       id="path975" /></g><g
     id="g989"
     transform="matrix(0,0.24014877,0.24014877,0,99.096908,73.762966)"
     style="clip-rule:evenodd;fill:#ff0000;fill-opacity:1;fill-rule:evenodd;image-rendering:optimizeQuality;shape-rendering:geometricPrecision;text-rendering:geometricPrecision"><path
       style="opacity:1;fill:#ff0000;fill-opacity:1"
       fill="#070a06"
       d="m 320.5,293.5 c 2.357,-0.163 4.69,0.003 7,0.5 1.385,4.326 -0.282,6.992 -5,8 -2.333,0.667 -4.667,0.667 -7,0 -1.054,-1.388 -1.22,-2.888 -0.5,-4.5 1.812,-1.477 3.645,-2.81 5.5,-4 z"
       id="path987" /></g><g
     id="g997"
     transform="matrix(0,0.24014877,0.24014877,0,99.096908,73.762966)"
     style="clip-rule:evenodd;fill:#ff0000;fill-opacity:1;fill-rule:evenodd;image-rendering:optimizeQuality;shape-rendering:geometricPrecision;text-rendering:geometricPrecision"><path
       style="opacity:1;fill:#ff0000;fill-opacity:1"
       fill="#090c07"
       d="m 339.5,310.5 c 4.532,-0.431 8.865,0.069 13,1.5 -0.959,1.464 -2.292,2.297 -4,2.5 -4.633,0.948 -9.299,1.614 -14,2 0.249,-3.244 1.916,-5.244 5,-6 z"
       id="path995" /></g><g
     id="g1001"
     transform="matrix(0,0.24014877,0.24014877,0,99.096908,73.762966)"
     style="clip-rule:evenodd;fill:#ff0000;fill-opacity:1;fill-rule:evenodd;image-rendering:optimizeQuality;shape-rendering:geometricPrecision;text-rendering:geometricPrecision"><path
       style="opacity:1;fill:#ff0000;fill-opacity:1"
       fill="#080b07"
       d="m 381.5,310.5 c 2.427,0.023 4.76,0.523 7,1.5 1.299,5.689 -1.034,7.689 -7,6 -2.62,-2.559 -2.62,-5.059 0,-7.5 z"
       id="path999" /></g><g
     id="g1029"
     transform="matrix(0,0.24014877,0.24014877,0,99.096908,73.762966)"
     style="clip-rule:evenodd;fill:#ff0000;fill-opacity:1;fill-rule:evenodd;image-rendering:optimizeQuality;shape-rendering:geometricPrecision;text-rendering:geometricPrecision"><path
       style="opacity:1;fill:#ff0000;fill-opacity:1"
       fill="#060805"
       d="m 303.5,351.5 c 5.948,-0.321 8.781,2.345 8.5,8 -2.917,1.893 -6.084,2.393 -9.5,1.5 -4.121,-3.671 -3.788,-6.837 1,-9.5 z"
       id="path1027" /></g><g
     id="g1041"
     transform="matrix(0,0.24014877,0.24014877,0,99.096908,73.762966)"
     style="clip-rule:evenodd;fill:#ff0000;fill-opacity:1;fill-rule:evenodd;image-rendering:optimizeQuality;shape-rendering:geometricPrecision;text-rendering:geometricPrecision"><path
       style="opacity:1;fill:#ff0000;fill-opacity:1"
       fill="#070905"
       d="m 272.5,364.5 c 4.191,0.084 6.858,2.084 8,6 -0.029,1.529 -0.696,2.696 -2,3.5 -9.723,3.361 -18.723,8.027 -27,14 -3.396,2.036 -6.562,1.869 -9.5,-0.5 -0.63,-2.403 0.203,-4.237 2.5,-5.5 4.451,-0.13 8.784,-0.796 13,-2 5.258,-5.089 10.258,-10.255 15,-15.5 z"
       id="path1039" /></g><path
     id="path1043"
     style="clip-rule:evenodd;fill:#ff0000;fill-opacity:1;fill-rule:evenodd;stroke-width:0.240149;image-rendering:optimizeQuality;shape-rendering:geometricPrecision;text-rendering:geometricPrecision"
     d="m 212.97461,111.94336 c -1.55585,0.012 -2.97278,0.49214 -4.25,1.44336 -2.60057,2.27805 -4.24034,5.11984 -4.92188,8.52539 -1.51149,0.0502 -2.87387,0.531 -4.08398,1.44141 -0.63975,2.0744 -1.27896,4.15604 -1.91992,6.24414 -0.93298,1.86619 -1.73449,3.78748 -2.40235,5.76367 -0.89791,3.91298 -2.01793,7.75556 -3.36132,11.52734 -0.2596,1.75092 -0.41967,3.51186 -0.48047,5.28321 -0.3583,1.51318 -0.67877,3.03395 -0.96094,4.5625 0.0574,5.12212 0.0574,10.24508 0,15.36914 -0.18107,1.25165 -0.86116,2.05292 -2.04102,2.40234 -0.24519,0.33644 -0.4856,0.65715 -0.7207,0.96094 -0.01,0.22106 -0.0157,0.44153 -0.0156,0.66211 1.1e-4,0.66176 0.0449,1.32074 0.13476,1.97851 0.0598,0.26992 0.18097,0.51033 0.36133,0.7207 0.37799,-0.77544 0.77875,-1.53583 1.20117,-2.28124 0.49639,-0.12873 0.93631,-0.009 1.32031,0.35937 0.71516,3.75089 2.15564,7.19271 4.32227,10.32617 0.71636,1.59363 1.43759,3.19641 2.16211,4.80469 3.94877,5.94968 7.99063,11.83279 12.12695,17.65039 0.63399,0.20148 1.19486,0.0803 1.68164,-0.36133 2.322,-3.52203 4.52263,-7.1242 6.60352,-10.80664 0.87366,-2.05375 1.67493,-4.13344 2.40234,-6.24219 0.70748,-0.94498 1.30752,-1.94577 1.80078,-3.00195 -0.10782,-0.54826 -0.42852,-0.90984 -0.96093,-1.08203 -1.90414,2.02542 -3.98554,3.82749 -6.24414,5.4043 -0.76223,0.41426 -1.56351,0.73471 -2.40235,0.96093 -1.53863,0.24303 -3.05917,0.56155 -4.5625,0.95899 -0.32012,0.4803 -0.64082,0.9611 -0.96094,1.4414 -0.82995,0.26968 -1.51028,0.0704 -2.04101,-0.5996 -1.56073,-2.1599 -3.00121,-4.40165 -4.32227,-6.72461 -0.8045,-1.27855 -1.00378,-2.63899 -0.59961,-4.08204 0.19884,-0.21974 0.43926,-0.37984 0.72071,-0.48046 0.64696,0.48678 1.20587,1.04789 1.67968,1.68164 0.60158,-0.42098 1.2425,-0.78256 1.92188,-1.08203 3.69493,-0.84244 7.21682,-2.12257 10.56641,-3.8418 1.21227,-0.89215 2.05271,-2.05306 2.52148,-3.48242 1.94593,-2.20865 3.46646,-4.69081 4.5625,-7.44532 0.61118,-5.18433 0.85158,-10.38733 0.7207,-15.60937 -1.38662,-5.29552 -3.98823,-9.8985 -7.80468,-13.80859 -0.08,-0.0401 -0.16024,-0.079 -0.24024,-0.11915 -0.27665,0.62583 -0.31558,1.26505 -0.11914,1.91993 0.42818,1.33691 0.98734,2.61923 1.67969,3.84375 0.18756,0.34677 0.14839,0.66723 -0.11914,0.96093 -2.81814,-4.41898 -6.50038,-7.94281 -11.04688,-10.56836 -0.18924,-1.05737 -0.83015,-1.53625 -1.92187,-1.43945 -0.85829,0.0459 -1.65761,0.28627 -2.40039,0.7207 -0.28001,-0.44788 -0.19996,-0.84863 0.24023,-1.20117 1.53023,-0.68727 3.13106,-0.88854 4.80274,-0.60156 1.91422,0.53145 3.75545,1.25267 5.52343,2.16211 4.49606,0.90656 8.29776,3.02714 11.40625,6.36328 0.5946,1.22236 1.23577,2.42438 1.92188,3.60352 0.23174,0.42266 0.51131,0.50296 0.83984,0.24023 0.40825,-1.29464 0.20898,-2.49666 -0.59961,-3.60352 -0.64984,-0.56938 -1.2107,-1.20836 -1.68164,-1.91992 -0.16018,-0.72044 -0.16018,-1.44166 0,-2.16211 0.54202,-1.00598 0.66124,-2.04594 0.35938,-3.12109 -0.42243,-0.30115 -0.78206,-0.2211 -1.08008,0.24023 -0.20101,0.68802 -0.40029,1.36813 -0.59961,2.04102 -0.56027,0.16018 -1.12137,0.16018 -1.68164,0 -2.76963,-2.50643 -5.97106,-4.26737 -9.60547,-5.2832 -0.97908,-0.42915 -1.89958,-0.94913 -2.76172,-1.56055 -0.24807,-0.65248 -0.0488,-1.09436 0.59961,-1.32227 1.26079,-0.28193 2.54116,-0.44226 3.8418,-0.48046 0.81699,-0.42891 0.93816,-1.02895 0.36133,-1.80079 -0.74831,-0.33789 -1.50869,-0.65835 -2.28125,-0.96093 -1.08067,-0.9241 -0.96145,-1.5633 0.35937,-1.91993 2.75787,0.78601 3.87984,2.627 3.36328,5.52344 1.17481,1.08715 2.41406,2.08771 3.72071,3.00196 2.80132,1.18153 4.28269,0.26103 4.44335,-2.76172 -1.04057,-1.92119 -2.08052,-3.84249 -3.12109,-5.76368 -0.87126,-0.44211 -1.35211,-1.16332 -1.44141,-2.1621 -0.262,-2.7975 -0.50241,-5.5984 -0.7207,-8.4043 -1.0192,-1.18033 -2.1801,-2.18088 -3.48242,-3.00195 -0.10496,-0.003 -0.20878,-0.005 -0.3125,-0.004 z m -11.45508,11.65039 c 0.08,0 0.16015,0.041 0.24024,0.12109 0.42698,0.51272 0.58733,1.11276 0.48046,1.80078 h -1.43945 v -1.20117 c 0.1842,-0.16138 0.34259,-0.36066 0.47852,-0.59961 0.0801,-0.0801 0.1602,-0.12109 0.24023,-0.12109 z m -0.47851,17.65039 c 1.45554,0.0831 2.89602,0.32349 4.32226,0.7207 1.36356,0.92241 2.80405,1.72369 4.32227,2.40235 1.52878,2.21418 3.09044,4.41503 4.68359,6.60351 0.5396,1.23364 0.69801,2.51377 0.47852,3.8418 -0.50576,0.81914 -0.86539,1.70072 -1.08008,2.64258 0.0461,0.49879 0.16729,0.9796 0.36133,1.4414 0.9104,0.33285 1.83114,0.65136 2.76171,0.95899 0.62439,0.61022 0.6244,1.2122 0,1.80273 -3.2276,0.01 -3.98798,1.40921 -2.28124,4.20118 0.16017,0.96058 0.16017,1.92222 0,2.88281 -1.76606,3.50762 -4.52779,5.86859 -8.28516,7.08398 -2.86233,0.47142 -5.74525,0.67071 -8.64649,0.59961 v -0.95898 c 1.21755,-0.54009 2.49769,-0.62015 3.8418,-0.24024 3.28643,-0.37703 6.20828,-1.57906 8.76563,-3.60351 0.29154,-1.10805 0.53195,-2.22783 0.7207,-3.36133 2.04535,-4.38728 2.04535,-8.79097 0,-13.20899 -1.16256,-2.00572 -2.3237,-4.00731 -3.48242,-6.0039 0.12055,-0.2452 0.28066,-0.28436 0.48047,-0.11914 1.99539,1.67432 3.63735,3.63477 4.92382,5.88281 l 0.48047,-0.48047 c 0.21301,-1.09796 0.0527,-2.13768 -0.48047,-3.12109 -1.48508,-2.44399 -3.28714,-4.64486 -5.40429,-6.60352 -1.54896,-1.48844 -3.3902,-2.04931 -5.52344,-1.68164 -0.41114,0.4205 -0.88999,0.58085 -1.43945,0.48047 -0.40585,-0.84653 -0.24574,-1.56774 0.48047,-2.16211 z m -0.48047,8.28516 c 2.96152,0.82179 5.32249,2.50267 7.08398,5.04297 1.33499,3.01362 0.41425,4.93491 -2.76172,5.76367 -0.49447,0.69523 -1.09451,1.25634 -1.80078,1.68164 -0.20005,-0.08 -0.40151,-0.16024 -0.60156,-0.24024 -0.70844,-2.05087 -1.94964,-2.45163 -3.72266,-1.20117 -0.84365,1.88468 -2.12377,3.40523 -3.84179,4.5625 -0.087,-0.17074 -0.13182,-0.3484 -0.13282,-0.5332 -5e-4,-0.0616 0.005,-0.12235 0.0137,-0.18555 0.67985,-1.5199 1.19984,-3.12269 1.56054,-4.80469 0.33044,-2.49466 0.7312,-4.97486 1.20117,-7.44335 0.5999,-1.36188 1.6007,-2.24321 3.00196,-2.64258 z" /><g
     id="g1065"
     transform="matrix(0,0.24014877,0.24014877,0,99.096908,73.762966)"
     style="clip-rule:evenodd;fill-rule:evenodd;image-rendering:optimizeQuality;shape-rendering:geometricPrecision;text-rendering:geometricPrecision" /><g
     id="g1069"
     transform="matrix(0,0.24014877,0.24014877,0,99.096908,73.762966)"
     style="clip-rule:evenodd;fill:#ff0000;fill-opacity:1;fill-rule:evenodd;image-rendering:optimizeQuality;shape-rendering:geometricPrecision;text-rendering:geometricPrecision"><path
       style="opacity:1;fill:#ff0000;fill-opacity:1"
       fill="#040603"
       d="m 475.5,431.5 c 11.427,0.085 18.427,5.752 21,17 -4.735,9.139 -9.235,18.473 -13.5,28 -5.626,7.294 -11.626,14.294 -18,21 -3.994,7.297 -7.994,14.631 -12,22 -3.077,3.309 -6.577,3.809 -10.5,1.5 -3.892,-2.004 -4.725,-4.837 -2.5,-8.5 8.924,-7.919 15.924,-17.253 21,-28 20.251,-12.538 24.085,-29.038 11.5,-49.5 0.571,-1.599 1.571,-2.766 3,-3.5 z"
       id="path1067" /></g><path
     id="path1071"
     style="clip-rule:evenodd;opacity:0.998;fill:#ff0000;fill-opacity:1;fill-rule:evenodd;stroke-width:0.240149;image-rendering:optimizeQuality;shape-rendering:geometricPrecision;text-rendering:geometricPrecision"
     d="m 208.00344,228.46474 c 0.003,-0.36709 0.0439,-0.7427 0.12101,-1.12664 0.30571,-0.92649 0.54586,-1.88708 0.72045,-2.88178 0.92289,-1.52567 1.96369,-2.96656 3.12193,-4.32268 0.66353,-1.37341 1.10372,-2.8143 1.32082,-4.32268 1.13638,-0.29058 2.05711,-0.93105 2.76171,-1.92119 1.18033,-1.63973 2.30086,-3.32077 3.36208,-5.04312 0.25912,-0.6155 0.3792,-1.25574 0.36022,-1.92119 -0.28217,-0.0526 -0.52232,0.0274 -0.72044,0.24015 -1.61524,2.37699 -3.45622,4.57819 -5.52342,6.60409 -1.59099,0.14025 -2.11139,-0.5401 -1.56097,-2.04127 l 1.92119,-1.92119 c 1.06434,-2.18751 2.50523,-4.1087 4.32268,-5.76357 0.2596,-1.19498 0.49975,-2.39572 0.72044,-3.60223 1.07755,-1.19498 2.03815,-2.47569 2.88179,-3.84238 0.78745,-2.21513 1.82801,-4.2965 3.12193,-6.24387 0.82059,-2.65988 1.30089,-5.38149 1.4409,-8.16505 0.72212,-2.08354 1.44257,-4.1649 2.16134,-6.24387 0.18731,-1.78119 0.0672,-3.5422 -0.36023,-5.28328 1.46275,-6.13604 1.58282,-12.29994 0.36023,-18.49145 -0.16018,-3.60223 -0.16018,-7.20446 0,-10.8067 0.0485,-0.4217 0.16858,-0.82178 0.36022,-1.20074 0.73101,0.99926 1.1712,2.12003 1.32082,3.36208 0.10422,2.82896 0.42458,5.63077 0.96059,8.40521 0.7644,1.72403 2.08521,2.72473 3.96246,3.00186 0.69859,0.90272 0.53865,1.5833 -0.4803,2.04126 -0.85493,-0.13424 -1.4152,-0.61454 -1.68104,-1.44089 -1.10397,-0.80402 -1.74444,-0.52376 -1.92119,0.84052 0.21109,2.06528 1.13158,3.70622 2.76171,4.92305 0.81818,0.95411 0.77808,1.8746 -0.12008,2.76171 -2.53453,0.48967 -3.05469,1.81049 -1.56096,3.96246 1.81,0.85949 2.57031,2.26052 2.28141,4.2026 -0.24015,0.16018 -0.4803,0.16018 -0.72045,0 -0.49782,-0.64672 -1.01823,-1.24709 -1.56096,-1.80111 -0.55739,0.23702 -0.95748,0.63735 -1.20075,1.20074 -0.3266,4.67522 -1.3273,9.19818 -3.00186,13.56841 0.12512,1.01943 0.52521,1.90005 1.20075,2.64163 0.57347,0.20773 0.9337,0.008 1.08067,-0.60037 0.08,-0.9606 0.16018,-1.92119 0.24015,-2.88179 0.47909,-0.53961 1.07946,-0.77976 1.80111,-0.72044 0.0519,1.58066 -0.38832,3.02155 -1.32082,4.32268 -0.23846,0.94666 -0.39864,1.90726 -0.48029,2.88178 -0.17747,0.25792 -0.41762,0.4181 -0.72045,0.4803 -0.80714,-0.52449 -1.64766,-1.00478 -2.52156,-1.44089 -1.09916,0.34125 -1.45939,1.06169 -1.08067,2.16134 1.37053,5.05104 1.69064,10.17414 0.96059,15.36952 -0.39672,1.83257 -1.11717,3.51361 -2.16134,5.04312 -0.33933,0.45965 -0.77976,0.77976 -1.32081,0.9606 -1.27423,-0.82588 -2.55495,-0.86574 -3.84239,-0.12008 -1.25285,1.66687 -2.41349,3.38802 -3.48215,5.1632 -0.14025,0.66209 -0.06,1.30233 0.24015,1.92119 2.01244,3.34455 3.73359,6.82671 5.1632,10.44647 -0.26777,2.43919 -1.42841,3.03956 -3.48216,1.80112 -0.30739,0.0271 -0.50744,0.18731 -0.60037,0.48029 0.86933,1.59387 2.15029,2.03431 3.84238,1.32082 2.69014,-2.30518 3.41059,-5.107 2.16134,-8.4052 -0.34126,-1.04297 -0.78145,-2.04343 -1.32082,-3.00186 -1.12078,-1.28072 -2.24131,-2.56167 -3.36209,-3.84238 -0.21973,-1.34268 0.10063,-2.54342 0.9606,-3.60224 0.8362,-0.37871 1.47643,-0.13856 1.92119,0.72045 0.57179,1.07299 1.05209,2.19376 1.44089,3.36208 0.60782,0.88903 1.36837,1.08908 2.28142,0.60038 0.40537,-1.05066 1.04584,-1.93128 1.92119,-2.64164 0.8093,-0.32324 1.52974,-0.76343 2.16133,-1.32082 -0.93682,-1.353 -1.57705,-2.83399 -1.92119,-4.44275 0.11408,-0.89744 0.39433,-1.73796 0.84053,-2.52156 0.81506,-0.42627 1.4553,-0.26609 1.92119,0.48029 0.0968,1.6054 0.49686,3.12626 1.20074,4.56283 0.77064,1.25094 1.49108,1.25094 2.16134,0 0.76991,-3.44902 1.57033,-6.89131 2.40149,-10.3264 0.22453,-3.47807 0.70483,-6.92012 1.44089,-10.32639 1.48916,-5.72467 2.80998,-11.48824 3.96245,-17.29071 -0.10302,-0.89936 -0.50335,-1.61981 -1.20074,-2.16134 0.4791,-0.99686 0.83932,-2.03767 1.08067,-3.12194 0.08,-4.00256 0.16018,-8.00488 0.24015,-12.00744 l 0.36022,-2.88178 c -0.55018,-3.7468 -0.63015,-7.50897 -0.24015,-11.28699 -0.67073,-7.04045 -1.1909,-14.08497 -1.56097,-21.1331 -0.2937,-0.98821 -0.77399,-1.86883 -1.44089,-2.64163 -0.65464,-1.42 -0.73485,-2.86089 -0.24015,-4.32268 0.76416,-0.94234 1.4846,-0.94234 2.16134,0 0.0608,1.77134 0.2207,3.53235 0.4803,5.28327 0.69307,1.9589 1.21347,3.96006 1.56097,6.00372 -0.25816,1.83786 -0.37824,3.67908 -0.36023,5.52342 0.64192,1.20531 1.04225,2.48602 1.20075,3.84238 0.68802,9.0344 0.92817,18.07984 0.72044,27.13682 -0.77592,8.8173 -1.65654,17.62283 -2.64163,26.41636 -1.23077,4.8426 -2.27133,9.72579 -3.12194,14.64908 -0.31651,2.42045 0.16378,4.662 1.4409,6.72416 0.4313,0.30427 0.8715,0.30427 1.32081,0 0.48006,-0.47862 0.84028,-1.03912 1.08067,-1.68104 0.30067,-1.8441 0.62079,-3.68532 0.9606,-5.52342 0.57924,-1.46083 1.53983,-1.78095 2.88178,-0.9606 0.0389,1.28936 -0.0812,2.57007 -0.36022,3.84238 0.0226,1.44114 0.78313,2.16158 2.28141,2.16134 0.47238,-0.0101 0.91281,-0.13016 1.32082,-0.36022 0.68971,-0.95099 1.29008,-1.95145 1.80112,-3.00186 1.37197,2.53405 1.01174,4.81546 -1.08067,6.84424 -0.51008,0.37991 -1.03024,0.42002 -1.56097,0.12007 -0.50383,-1.21347 -1.26438,-2.21417 -2.28141,-3.00186 -0.32012,-0.16018 -0.64048,-0.16018 -0.9606,0 -1.17577,1.86164 -1.65606,3.9029 -1.44089,6.1238 -0.17819,2.67141 0.42218,5.15311 1.80112,7.44461 0.53601,0.91857 1.01631,0.91857 1.44089,0 0.24639,-1.26919 0.40657,-2.5499 0.4803,-3.84238 0.12031,-1.481 0.72068,-2.72185 1.80111,-3.72231 0.65249,-0.24807 1.09292,-0.048 1.32082,0.60037 0.21157,2.0307 0.0514,4.0321 -0.4803,6.00372 -0.33837,1.0581 -1.05881,1.69858 -2.16134,1.92119 -0.15801,0.97789 -0.078,1.93849 0.24015,2.88179 0.60734,1.42192 1.16785,2.86281 1.68104,4.32268 1.8309,-0.008 2.47114,0.87222 1.92119,2.64163 -1.23076,1.63133 -2.55158,3.1923 -3.96245,4.6829 -1.62148,0.2255 -2.70215,-0.45484 -3.24201,-2.04126 -0.28866,-1.03096 -0.008,-1.87148 0.84052,-2.52156 1.23533,-0.54514 2.51628,-0.94547 3.84238,-1.20075 0.10975,-0.0994 0.18996,-0.21949 0.24015,-0.36022 -0.95435,-0.30571 -1.91495,-0.58596 -2.88178,-0.84052 -0.66209,-1.48316 -1.34244,-2.96416 -2.04127,-4.44275 -0.58524,-0.76464 -1.30569,-1.00478 -2.16134,-0.72045 0.33741,1.97547 0.7776,3.93676 1.32082,5.88365 -0.0901,1.15103 -0.3302,2.2718 -0.72045,3.36208 0.6328,1.56481 0.1525,2.5254 -1.44089,2.88178 -0.451,0.37055 -0.81122,0.81075 -1.08067,1.32082 0.16018,2.08473 0.12032,4.16586 -0.12007,6.24387 -0.64528,0.0394 -1.28576,-7.2e-4 -1.92119,-0.12007 -0.28842,-0.21686 -0.4887,-0.49687 -0.60037,-0.84052 -0.16018,-1.76101 -0.16018,-3.52227 0,-5.28328 0.37559,-1.99851 0.73581,-3.99967 1.08067,-6.00372 -0.51152,-1.51461 -1.19186,-2.95551 -2.04127,-4.32267 -0.24015,-0.80042 -0.4803,-1.60108 -0.72045,-2.40149 -0.35325,-0.97164 -0.95363,-1.17169 -1.80111,-0.60037 -0.23054,0.34077 -0.43059,0.70099 -0.60037,1.08067 -0.16018,2.32151 -0.16018,4.64279 0,6.96431 0.38279,2.0307 1.18321,3.87192 2.40148,5.52342 0.57492,1.17553 0.45485,2.2562 -0.36022,3.24201 -0.32012,0.16018 -0.64048,0.16018 -0.96059,0 -0.47646,-0.51248 -0.79682,-1.11285 -0.9606,-1.80112 -0.317,-0.42506 -0.67722,-0.50503 -1.08067,-0.24014 -0.0351,0.85445 -0.2351,1.65486 -0.60037,2.40148 -5.40191,-2.90099 -10.76515,-5.86275 -16.08997,-8.8855 -0.56675,-1.12774 -0.8069,-2.32848 -0.72044,-3.60223 0.37007,-2.30951 0.49014,-4.63103 0.36022,-6.96432 -0.42458,-1.71634 -1.46515,-2.43679 -3.12194,-2.16134 0.27714,2.47113 0.43708,4.95259 0.4803,7.44462 -0.17699,0.8518 -0.61718,1.53215 -1.32082,2.04126 -0.9678,-0.54946 -2.00836,-1.02976 -3.12193,-1.44089 -0.65146,-0.94937 -0.97208,-1.9747 -0.96153,-3.07597 z m 13.92347,-27.71045 c 0.0783,1.18125 0.80096,1.59736 2.16743,1.24812 0.93898,-0.97861 0.93898,-1.9392 0,-2.88179 -0.98173,-0.14961 -1.70217,0.21061 -2.16134,1.08067 -0.0151,0.19999 -0.0173,0.38425 -0.006,0.553 z m 1.20543,5.33628 c 0.004,1.27784 0.64445,1.91626 1.9226,1.91556 0.847,-1.27903 0.52664,-2.11955 -0.9606,-2.52156 -0.3266,0.1633 -0.64672,0.32348 -0.96059,0.48029 -0.001,0.0426 -0.001,0.0845 -0.001,0.12571 z m 2.55674,29.30284 c 0.0127,1.60572 0.6819,2.96311 2.00749,4.07221 1.54488,0.0987 2.3453,-0.66185 2.40149,-2.28142 -0.0523,-1.50693 -0.69259,-2.66757 -1.92119,-3.48215 -0.94162,-0.27353 -1.74204,-0.0733 -2.40149,0.60037 -0.0419,0.26125 -0.0688,0.51669 -0.0802,0.76641 -0.005,0.10926 -0.007,0.21753 -0.006,0.32458 z m 1.25656,-11.93146 c -2.1e-4,0.10205 4.8e-4,0.20393 0.002,0.30535 0.0536,2.8397 0.94356,5.43088 2.66978,7.77341 0.88039,0.30523 1.48076,0.025 1.80112,-0.84052 1.6796,-3.72879 1.99972,-7.57117 0.96059,-11.52714 -0.98845,-1.14047 -2.02901,-1.22044 -3.12193,-0.24015 -0.11623,0.57948 -0.036,1.13974 0.24015,1.68104 0.56026,0.64048 1.12077,1.28071 1.68104,1.92119 0.20341,0.74158 0.0833,1.42192 -0.36022,2.04126 -0.30836,0.16427 -0.58861,0.12416 -0.84052,-0.12007 -0.08,-0.64048 -0.16018,-1.28071 -0.24015,-1.92119 -0.4061,-0.89167 -1.08668,-1.17169 -2.04127,-0.84052 -0.27281,0.27497 -0.51296,0.55522 -0.72044,0.84052 -0.0199,0.31186 -0.0299,0.62068 -0.0305,0.92682 z m 8.90521,-4.56892 c 0.0106,2.18323 0.45475,4.27758 1.3316,6.28374 1.49493,1.41015 2.77564,1.24997 3.84238,-0.4803 0.47333,-3.30973 -0.0872,-6.43167 -1.68104,-9.3658 -1.08595,-1.33523 -2.04655,-1.25526 -2.88179,0.24014 -0.19091,0.91545 -0.3912,1.79608 -0.60037,2.64164 -0.008,0.22775 -0.0119,0.45473 -0.0108,0.68058 z" /><g
     id="g1077"
     transform="matrix(0,0.24014877,0.24014877,0,99.096908,73.762966)"
     style="clip-rule:evenodd;fill:#ff0000;fill-opacity:1;fill-rule:evenodd;image-rendering:optimizeQuality;shape-rendering:geometricPrecision;text-rendering:geometricPrecision"><path
       style="opacity:1;fill:#ff0000;fill-opacity:1"
       fill="#070906"
       d="m 201.5,503.5 c 5.579,-0.391 9.246,1.942 11,7 -3.824,7.158 -8.658,7.825 -14.5,2 -1.335,-4.108 -0.168,-7.108 3.5,-9 z"
       id="path1075" /></g><g
     id="g1089"
     transform="matrix(0,0.24014877,0.24014877,0,99.096908,73.762966)"
     style="clip-rule:evenodd;fill:#ff0000;fill-opacity:1;fill-rule:evenodd;image-rendering:optimizeQuality;shape-rendering:geometricPrecision;text-rendering:geometricPrecision"><path
       style="opacity:1;fill:#ff0000;fill-opacity:1"
       fill="#090d08"
       d="m 183.5,524.5 c 6.928,0.109 10.762,3.443 11.5,10 -6.757,2.714 -11.59,0.547 -14.5,-6.5 0.571,-1.599 1.571,-2.766 3,-3.5 z"
       id="path1087" /></g><g
     id="g1097"
     transform="matrix(0,0.24014877,0.24014877,0,99.096908,73.762966)"
     style="clip-rule:evenodd;fill:#ff0000;fill-opacity:1;fill-rule:evenodd;image-rendering:optimizeQuality;shape-rendering:geometricPrecision;text-rendering:geometricPrecision"><path
       style="opacity:1;fill:#ff0000;fill-opacity:1"
       fill="#070906"
       d="m 218.5,532.5 c 4.947,-0.872 9.113,0.461 12.5,4 0.092,3.589 -1.741,5.756 -5.5,6.5 -4.125,0.854 -8.125,0.52 -12,-1 -2.12,-1.523 -2.453,-3.356 -1,-5.5 1.79,-1.816 3.79,-3.149 6,-4 z"
       id="path1095" /></g><g
     id="g1105"
     transform="matrix(0,0.24014877,0.24014877,0,99.096908,73.762966)"
     style="clip-rule:evenodd;fill:#ff0000;fill-opacity:1;fill-rule:evenodd;image-rendering:optimizeQuality;shape-rendering:geometricPrecision;text-rendering:geometricPrecision"><path
       style="opacity:1;fill:#ff0000;fill-opacity:1"
       fill="#080b07"
       d="m 163.5,543.5 c 9.991,1.181 10.658,4.681 2,10.5 -2.333,0.667 -4.667,0.667 -7,0 -0.693,-4.454 0.973,-7.954 5,-10.5 z"
       id="path1103" /></g><g
     id="g1113"
     transform="matrix(0,0.24014877,0.24014877,0,99.096908,73.762966)"
     style="clip-rule:evenodd;fill:#ff0000;fill-opacity:1;fill-rule:evenodd;image-rendering:optimizeQuality;shape-rendering:geometricPrecision;text-rendering:geometricPrecision"><path
       style="opacity:1;fill:#ff0000;fill-opacity:1"
       fill="#040503"
       d="m 535.5,544.5 c 9.657,0.523 10.657,4.023 3,10.5 -7.21,2.97 -14.543,5.637 -22,8 -31.462,7.359 -63.128,13.692 -95,19 -23.684,0.381 -47.351,1.214 -71,2.5 -21.634,-1.442 -43.301,-2.276 -65,-2.5 -9.679,-1.252 -19.345,-2.585 -29,-4 -3.137,-0.601 -6.137,-1.601 -9,-3 -2.767,-2.899 -2.1,-4.899 2,-6 3,-0.167 6,-0.333 9,-0.5 10.444,0.694 20.777,2.194 31,4.5 46.02,0.942 92.02,0.609 138,-1 36.304,-8.487 72.304,-17.654 108,-27.5 z"
       id="path1111" /></g><g
     id="g1117"
     transform="matrix(0,0.24014877,0.24014877,0,99.096908,73.762966)"
     style="clip-rule:evenodd;fill:#ff0000;fill-opacity:1;fill-rule:evenodd;image-rendering:optimizeQuality;shape-rendering:geometricPrecision;text-rendering:geometricPrecision"><path
       style="opacity:1;fill:#ff0000;fill-opacity:1"
       fill="#060805"
       d="m 282.5,551.5 c 8.265,1.338 9.598,4.838 4,10.5 -3.493,1.004 -6.659,0.504 -9.5,-1.5 -0.667,-1.333 -0.667,-2.667 0,-4 1.73,-1.902 3.563,-3.569 5.5,-5 z"
       id="path1115" /></g><g
     id="g1121"
     transform="matrix(0,0.24014877,0.24014877,0,99.096908,73.762966)"
     style="clip-rule:evenodd;fill:#ff0000;fill-opacity:1;fill-rule:evenodd;image-rendering:optimizeQuality;shape-rendering:geometricPrecision;text-rendering:geometricPrecision"><path
       style="opacity:1;fill:#ff0000;fill-opacity:1"
       fill="#050604"
       d="m 186.5,552.5 c 5.099,-0.325 10.099,0.175 15,1.5 2.894,2.909 3.727,6.409 2.5,10.5 -1.313,1.073 -2.813,1.74 -4.5,2 -4.702,-0.44 -9.036,-1.94 -13,-4.5 -3.722,-3.064 -3.722,-6.23 0,-9.5 z"
       id="path1119" /></g><g
     id="g1125"
     transform="matrix(0,0.24014877,0.24014877,0,99.096908,73.762966)"
     style="clip-rule:evenodd;fill:#ff0000;fill-opacity:1;fill-rule:evenodd;image-rendering:optimizeQuality;shape-rendering:geometricPrecision;text-rendering:geometricPrecision"><path
       style="opacity:1;fill:#ff0000;fill-opacity:1"
       fill="#090c07"
       d="m 434.5,553.5 c 3.877,-0.269 6.044,1.398 6.5,5 -3.589,2.895 -6.422,2.229 -8.5,-2 0.693,-1.018 1.359,-2.018 2,-3 z"
       id="path1123" /></g><g
     id="g1129"
     transform="matrix(0,0.24014877,0.24014877,0,99.096908,73.762966)"
     style="clip-rule:evenodd;fill:#ff0000;fill-opacity:1;fill-rule:evenodd;image-rendering:optimizeQuality;shape-rendering:geometricPrecision;text-rendering:geometricPrecision"><path
       style="opacity:1;fill:#ff0000;fill-opacity:1"
       fill="#080a06"
       d="m 226.5,559.5 c 4.08,-0.419 6.08,1.414 6,5.5 -0.705,7.18 -4.372,9.513 -11,7 -1.816,-5.538 -0.149,-9.705 5,-12.5 z"
       id="path1127" /></g><g
     id="g1137"
     transform="matrix(0,0.24014877,0.24014877,0,99.096908,73.762966)"
     style="clip-rule:evenodd;fill:#ff0000;fill-opacity:1;fill-rule:evenodd;image-rendering:optimizeQuality;shape-rendering:geometricPrecision;text-rendering:geometricPrecision"><path
       style="opacity:0.992;fill:#ff0000;fill-opacity:1"
       fill="#030402"
       d="m 733.5,592.5 c 4.171,6.338 7.837,13.004 11,20 -0.87,4.163 -3.536,6.329 -8,6.5 -1.513,2.454 -0.846,4.121 2,5 3.333,0.333 6.667,0.667 10,1 5.56,4.522 5.227,8.522 -1,12 -15.679,1.416 -31.345,1.916 -47,1.5 -4.604,-1.176 -5.604,-3.51 -3,-7 4.304,-2.713 8.971,-4.547 14,-5.5 3.577,-1.852 4.577,-4.518 3,-8 -4.667,-0.333 -9.333,-0.667 -14,-1 -2.106,-3.039 -3.606,-6.205 -4.5,-9.5 2.133,-2.353 4.8,-3.353 8,-3 5.402,1.6 10.902,2.1 16.5,1.5 4.883,-2.264 7.383,-6.098 7.5,-11.5 1.444,-1.655 3.278,-2.322 5.5,-2 z"
       id="path1135" /></g><g
     id="g1141"
     transform="matrix(0,0.24014877,0.24014877,0,99.096908,73.762966)"
     style="clip-rule:evenodd;fill:#ff0000;fill-opacity:1;fill-rule:evenodd;image-rendering:optimizeQuality;shape-rendering:geometricPrecision;text-rendering:geometricPrecision"><path
       style="opacity:1;fill:#ff0000;fill-opacity:1"
       fill="#050804"
       d="m 508.5,604.5 c 5.794,-0.634 9.794,1.7 12,7 -0.628,1.758 -1.628,3.258 -3,4.5 -8.052,4.611 -15.886,4.444 -23.5,-0.5 -0.63,-2.403 0.203,-4.237 2.5,-5.5 3.951,-2.145 7.951,-3.979 12,-5.5 z"
       id="path1139" /></g><g
     id="g1145"
     transform="matrix(0,0.24014877,0.24014877,0,99.096908,73.762966)"
     style="clip-rule:evenodd;fill:#ff0000;fill-opacity:1;fill-rule:evenodd;image-rendering:optimizeQuality;shape-rendering:geometricPrecision;text-rendering:geometricPrecision"><path
       style="opacity:1;fill:#ff0000;fill-opacity:1"
       fill="#060805"
       d="m 172.5,605.5 c 6.505,0.752 12.505,2.918 18,6.5 3.539,0.282 7.039,0.782 10.5,1.5 4.124,-1.072 8.29,-1.238 12.5,-0.5 5.492,2.942 6.158,6.609 2,11 -3.667,0.667 -7.333,0.667 -11,0 -4.91,-2.623 -9.91,-4.956 -15,-7 -7.435,-0.61 -14.769,-0.277 -22,1 -1.918,-1.77 -2.418,-3.937 -1.5,-6.5 1.494,-2.814 3.66,-4.814 6.5,-6 z"
       id="path1143" /></g><g
     id="g1149"
     transform="matrix(0,0.24014877,0.24014877,0,99.096908,73.762966)"
     style="clip-rule:evenodd;fill:#ff0000;fill-opacity:1;fill-rule:evenodd;image-rendering:optimizeQuality;shape-rendering:geometricPrecision;text-rendering:geometricPrecision"><path
       style="opacity:1;fill:#ff0000;fill-opacity:1"
       fill="#050604"
       d="m 469.5,609.5 c 9.66,0.69 10.66,4.524 3,11.5 -7.246,3.897 -13.913,3.23 -20,-2 4.868,-4.763 10.534,-7.93 17,-9.5 z"
       id="path1147" /></g><g
     id="g1153"
     transform="matrix(0,0.24014877,0.24014877,0,99.096908,73.762966)"
     style="clip-rule:evenodd;fill:#ff0000;fill-opacity:1;fill-rule:evenodd;image-rendering:optimizeQuality;shape-rendering:geometricPrecision;text-rendering:geometricPrecision"><path
       style="opacity:1;fill:#ff0000;fill-opacity:1"
       fill="#090c07"
       d="m 272.5,609.5 c 4.177,-0.658 5.677,1.008 4.5,5 -3.012,3.98 -5.512,3.813 -7.5,-0.5 0.457,-1.94 1.457,-3.44 3,-4.5 z"
       id="path1151" /></g><g
     id="g1157"
     transform="matrix(0,0.24014877,0.24014877,0,99.096908,73.762966)"
     style="clip-rule:evenodd;fill:#ff0000;fill-opacity:1;fill-rule:evenodd;image-rendering:optimizeQuality;shape-rendering:geometricPrecision;text-rendering:geometricPrecision"><path
       style="opacity:1;fill:#ff0000;fill-opacity:1"
       fill="#030503"
       d="m 423.5,612.5 c 8.367,-0.169 10.7,3.331 7,10.5 -4.375,2.085 -8.542,1.918 -12.5,-0.5 -0.667,-1.667 -0.667,-3.333 0,-5 1.73,-1.902 3.563,-3.569 5.5,-5 z"
       id="path1155" /></g><g
     id="g1161"
     transform="matrix(0,0.24014877,0.24014877,0,99.096908,73.762966)"
     style="clip-rule:evenodd;fill:#ff0000;fill-opacity:1;fill-rule:evenodd;image-rendering:optimizeQuality;shape-rendering:geometricPrecision;text-rendering:geometricPrecision"><path
       style="opacity:1;fill:#ff0000;fill-opacity:1"
       fill="#0a0d08"
       d="m 382.5,614.5 c 11.188,0.072 11.854,2.905 2,8.5 -8.224,-0.958 -8.89,-3.791 -2,-8.5 z"
       id="path1159" /></g><g
     id="g1165"
     transform="matrix(0,0.24014877,0.24014877,0,99.096908,73.762966)"
     style="clip-rule:evenodd;fill:#ff0000;fill-opacity:1;fill-rule:evenodd;image-rendering:optimizeQuality;shape-rendering:geometricPrecision;text-rendering:geometricPrecision"><path
       style="opacity:1;fill:#ff0000;fill-opacity:1"
       fill="#080b07"
       d="m 339.5,615.5 c 4.583,-1.157 7.25,0.51 8,5 -1.723,4.696 -5.056,6.529 -10,5.5 -1.074,-0.739 -1.741,-1.739 -2,-3 0.957,-2.749 2.29,-5.249 4,-7.5 z"
       id="path1163" /></g><g
     id="g1169"
     transform="matrix(0,0.24014877,0.24014877,0,99.096908,73.762966)"
     style="clip-rule:evenodd;fill:#ff0000;fill-opacity:1;fill-rule:evenodd;image-rendering:optimizeQuality;shape-rendering:geometricPrecision;text-rendering:geometricPrecision"><path
       style="opacity:1;fill:#ff0000;fill-opacity:1"
       fill="#040604"
       d="m 522.5,628.5 c 4.467,-0.367 8.8,0.133 13,1.5 4.585,5.057 3.585,8.723 -3,11 -4.94,1.041 -9.606,0.374 -14,-2 -2.125,-1.737 -2.958,-3.904 -2.5,-6.5 2.013,-1.748 4.18,-3.082 6.5,-4 z"
       id="path1167" /></g><g
     id="g1173"
     transform="matrix(0,0.24014877,0.24014877,0,99.096908,73.762966)"
     style="clip-rule:evenodd;fill:#ff0000;fill-opacity:1;fill-rule:evenodd;image-rendering:optimizeQuality;shape-rendering:geometricPrecision;text-rendering:geometricPrecision"><path
       style="opacity:1;fill:#ff0000;fill-opacity:1"
       fill="#040603"
       d="m 275.5,629.5 c 3.018,-0.165 6.018,0.002 9,0.5 2.819,4.758 2.153,9.092 -2,13 -5.516,1.101 -10.683,0.267 -15.5,-2.5 -0.756,-2.309 -0.256,-4.309 1.5,-6 2.224,-1.934 4.558,-3.601 7,-5 z"
       id="path1171" /></g><g
     id="g1177"
     transform="matrix(0,0.24014877,0.24014877,0,99.096908,73.762966)"
     style="clip-rule:evenodd;fill:#ff0000;fill-opacity:1;fill-rule:evenodd;image-rendering:optimizeQuality;shape-rendering:geometricPrecision;text-rendering:geometricPrecision"><path
       style="opacity:1;fill:#ff0000;fill-opacity:1"
       fill="#050604"
       d="m 479.5,629.5 c 5.724,-0.668 11.057,0.332 16,3 0.915,0.828 1.581,1.828 2,3 -3.214,4.369 -7.548,6.869 -13,7.5 -3,0.667 -6,0.667 -9,0 -1.723,-0.775 -2.723,-2.108 -3,-4 1.058,-4.209 3.391,-7.375 7,-9.5 z"
       id="path1175" /></g><g
     id="g1181"
     transform="matrix(0,0.24014877,0.24014877,0,99.096908,73.762966)"
     style="clip-rule:evenodd;fill:#ff0000;fill-opacity:1;fill-rule:evenodd;image-rendering:optimizeQuality;shape-rendering:geometricPrecision;text-rendering:geometricPrecision"><path
       style="opacity:1;fill:#ff0000;fill-opacity:1"
       fill="#080b07"
       d="m 321.5,629.5 c 1.984,-0.016 2.984,0.984 3,3 -0.202,2.423 -1.369,4.089 -3.5,5 -1.732,-0.234 -2.566,-1.234 -2.5,-3 0.592,-1.923 1.592,-3.589 3,-5 z"
       id="path1179" /></g><g
     id="g1185"
     transform="matrix(0,0.24014877,0.24014877,0,99.096908,73.762966)"
     style="clip-rule:evenodd;fill:#ff0000;fill-opacity:1;fill-rule:evenodd;image-rendering:optimizeQuality;shape-rendering:geometricPrecision;text-rendering:geometricPrecision"><path
       style="opacity:1;fill:#ff0000;fill-opacity:1"
       fill="#060805"
       d="m 56.5,632.5 c 3.6625,0.766 7.3292,1.6 11,2.5 1.2047,4.034 -0.1286,7.034 -4,9 -4.722,0.777 -9.3887,0.61 -14,-0.5 -1.9442,-6.452 0.3891,-10.119 7,-11 z"
       id="path1183" /></g><g
     id="g1189"
     transform="matrix(0,0.24014877,0.24014877,0,99.096908,73.762966)"
     style="clip-rule:evenodd;fill:#ff0000;fill-opacity:1;fill-rule:evenodd;image-rendering:optimizeQuality;shape-rendering:geometricPrecision;text-rendering:geometricPrecision"><path
       style="opacity:1;fill:#ff0000;fill-opacity:1"
       fill="#0a0d08"
       d="m 350.5,633.5 c 2.357,-0.163 4.69,0.003 7,0.5 1.421,4.298 -0.246,6.965 -5,8 -8.255,-1.013 -8.921,-3.847 -2,-8.5 z"
       id="path1187" /></g><g
     id="g1193"
     transform="matrix(0,0.24014877,0.24014877,0,99.096908,73.762966)"
     style="clip-rule:evenodd;fill:#ff0000;fill-opacity:1;fill-rule:evenodd;image-rendering:optimizeQuality;shape-rendering:geometricPrecision;text-rendering:geometricPrecision"><path
       style="opacity:1;fill:#ff0000;fill-opacity:1"
       fill="#060905"
       d="m 438.5,633.5 c 5.436,-1.113 9.436,0.72 12,5.5 -0.667,2 -2,3.333 -4,4 -3,0.667 -6,0.667 -9,0 -2.313,-0.641 -3.98,-1.974 -5,-4 1.259,-2.764 3.259,-4.597 6,-5.5 z"
       id="path1191" /></g><g
     id="g1197"
     transform="matrix(0,0.24014877,0.24014877,0,99.096908,73.762966)"
     style="clip-rule:evenodd;fill:#ff0000;fill-opacity:1;fill-rule:evenodd;image-rendering:optimizeQuality;shape-rendering:geometricPrecision;text-rendering:geometricPrecision"><path
       style="opacity:1;fill:#ff0000;fill-opacity:1"
       fill="#0a0e08"
       d="m 380.5,633.5 c 5.942,-0.593 7.442,1.741 4.5,7 -3.602,4.215 -6.435,3.882 -8.5,-1 0.932,-2.265 2.265,-4.265 4,-6 z"
       id="path1195" /></g></g></g>
<g
   id="p-2">
	<path
   class="st0"
   d="M313.5,457.5h22.4c0.2,0,0.3-0.1,0.3-0.3v-9.9c0-0.3-0.3,0,0,0H356c0.3,0,0-0.3,0,0v9.9c0,0.2,0.1,0.3,0.3,0.3   h20.4c0.2,0,0.3-0.1,0.3-0.3v-9.9c0-0.3-0.3,0,0,0h19.8c0.3,0,0-0.3,0,0v9.9c0,0.2,0.1,0.3,0.3,0.3h20.4c0.2,0,0.3-0.1,0.3-0.3   v-9.9c0-0.3-0.3,0,0,0h19.8c0.3,0,0-0.3,0,0v9.9c0,0.2,0.1,0.3,0.3,0.3h20.4c0.2,0,0.3-0.1,0.3-0.3v-9.9c0-0.3-0.3,0,0,0h19.8   c0.3,0,0-0.3,0,0v9.9c0,0.2,0.1,0.3,0.3,0.3h20.4c0.2,0,0.3-0.1,0.3-0.3v-9.9c0-0.3-0.3,0,0,0h19.8c0.3,0,0-0.3,0,0v9.9   c0,0.2,0.1,0.3,0.3,0.3H540c0.2,0,0.3-0.1,0.3-0.3v-9.9c0-0.3-0.3,0,0,0h19.8c0.3,0,0-0.3,0,0v9.9c0,0.2,0.1,0.3,0.3,0.3h22.4   c0.2,0,0.3-0.1,0.3-0.3V447v-21.7v-21.7v-10.2c0-0.2-0.1-0.3-0.3-0.3h-22.4c-0.2,0-0.3,0.1-0.3,0.3v9.9c0,0.3,0.3,0,0,0h-19.8   c-0.3,0,0,0.3,0,0v-9.9c0-0.2-0.1-0.3-0.3-0.3h-20.4c-0.2,0-0.3,0.1-0.3,0.3v9.9c0,0.3,0.3,0,0,0h-19.8c-0.3,0,0,0.3,0,0v-9.9   c0-0.2-0.1-0.3-0.3-0.3h-20.4c-0.2,0-0.3,0.1-0.3,0.3v9.9c0,0.3,0.3,0,0,0h-19.8c-0.3,0,0,0.3,0,0v-9.9c0-0.2-0.1-0.3-0.3-0.3   h-20.4c-0.2,0-0.3,0.1-0.3,0.3v9.9c0,0.3,0.3,0,0,0h-19.8c-0.3,0,0,0.3,0,0v-9.9c0-0.2-0.1-0.3-0.3-0.3h-20.4   c-0.2,0-0.3,0.1-0.3,0.3v9.9c0,0.3,0.3,0,0,0H377c-0.3,0,0,0.3,0,0v-9.9c0-0.2-0.1-0.3-0.3-0.3h-20.4c-0.2,0-0.3,0.1-0.3,0.3v9.9   c0,0.3,0.3,0,0,0h-19.8c-0.3,0,0,0.3,0,0v-9.9c0-0.2-0.1-0.3-0.3-0.3h-22.4c-0.2,0-0.3,0.1-0.3,0.3v10.2v21.7V447v10.2   C313.2,457.3,313.3,457.5,313.5,457.5z"
   id="path909" />
</g>
<g
   id="p-6">
	<path
   class="st0"
   d="M325.5,308.4H356c0.3,0,0-0.3,0,0v9.9c0,0.2,0.1,0.3,0.3,0.3h20.4c0.2,0,0.3-0.1,0.3-0.3v-9.9c0-0.3-0.3,0,0,0   h19.8c0.3,0,0-0.3,0,0v9.9c0,0.2,0.1,0.3,0.3,0.3h20.4c0.2,0,0.3-0.1,0.3-0.3v-9.9c0-0.3-0.3,0,0,0h19.8c0.3,0,0-0.3,0,0v9.9   c0,0.2,0.1,0.3,0.3,0.3h20.4c0.2,0,0.3-0.1,0.3-0.3v-9.9c0-0.3-0.3,0,0,0h19.8c0.3,0,0-0.3,0,0v9.9c0,0.2,0.1,0.3,0.3,0.3h20.4   c0.2,0,0.3-0.1,0.3-0.3v-9.9c0-0.3-0.3,0,0,0h19.8c0.3,0,0-0.3,0,0v9.9c0,0.2,0.1,0.3,0.3,0.3H540c0.2,0,0.3-0.1,0.3-0.3v-9.9   c0-0.3-0.3,0,0,0h30.5c0.2,0,0.3-0.1,0.3-0.3V286c0-0.3-0.3,0,0,0h9.9c0.2,0,0.3-0.1,0.3-0.3v-20.4c0-0.2-0.1-0.3-0.3-0.3H571   c-0.3,0,0,0.3,0,0v-19.8c0-0.3-0.3,0,0,0h9.9c0.2,0,0.3-0.1,0.3-0.3v-20.4c0-0.2-0.1-0.3-0.3-0.3H571c-0.3,0,0,0.3,0,0v-19.8   c0-0.3-0.3,0,0,0h9.9c0.2,0,0.3-0.1,0.3-0.3v-20.4c0-0.2-0.1-0.3-0.3-0.3H571c-0.3,0,0,0.3,0,0v-19.8c0-0.3-0.3,0,0,0h9.9   c0.2,0,0.3-0.1,0.3-0.3v-20.4c0-0.2-0.1-0.3-0.3-0.3H571c-0.3,0,0,0.3,0,0v-19.8c0-0.3-0.3,0,0,0h9.9c0.2,0,0.3-0.1,0.3-0.3V102   c0-0.2-0.1-0.3-0.3-0.3H571c-0.3,0,0,0.3,0,0V81.9c0-0.3-0.3,0,0,0h9.9c0.2,0,0.3-0.1,0.3-0.3V61.2c0-0.2-0.1-0.3-0.3-0.3H571   c-0.3,0,0,0.3,0,0V38.8c0-0.2-0.1-0.3-0.3-0.3h-30.5c-0.3,0,0,0.3,0,0v-9.9c0-0.2-0.1-0.3-0.3-0.3h-20.4c-0.2,0-0.3,0.1-0.3,0.3   v9.9c0,0.3,0.3,0,0,0h-19.8c-0.3,0,0,0.3,0,0v-9.9c0-0.2-0.1-0.3-0.3-0.3h-20.4c-0.2,0-0.3,0.1-0.3,0.3v9.9c0,0.3,0.3,0,0,0h-19.8   c-0.3,0,0,0.3,0,0v-9.9c0-0.2-0.1-0.3-0.3-0.3h-20.4c-0.2,0-0.3,0.1-0.3,0.3v9.9c0,0.3,0.3,0,0,0h-19.8c-0.3,0,0,0.3,0,0v-9.9   c0-0.2-0.1-0.3-0.3-0.3h-20.4c-0.2,0-0.3,0.1-0.3,0.3v9.9c0,0.3,0.3,0,0,0H377c-0.3,0,0,0.3,0,0v-9.9c0-0.2-0.1-0.3-0.3-0.3h-20.4   c-0.2,0-0.3,0.1-0.3,0.3v9.9c0,0.3,0.3,0,0,0h-30.5c-0.2,0-0.3,0.1-0.3,0.3v22.1c0,0.3,0.3,0,0,0h-9.9c-0.2,0-0.3,0.1-0.3,0.3v20.4   c0,0.2,0.1,0.3,0.3,0.3h9.9c0.3,0,0-0.3,0,0v19.8c0,0.3,0.3,0,0,0h-9.9c-0.2,0-0.3,0.1-0.3,0.3v20.4c0,0.2,0.1,0.3,0.3,0.3h9.9   c0.3,0,0-0.3,0,0v19.8c0,0.3,0.3,0,0,0h-9.9c-0.2,0-0.3,0.1-0.3,0.3v20.4c0,0.2,0.1,0.3,0.3,0.3h9.9c0.3,0,0-0.3,0,0v19.8   c0,0.3,0.3,0,0,0h-9.9c-0.2,0-0.3,0.1-0.3,0.3V204c0,0.2,0.1,0.3,0.3,0.3h9.9c0.3,0,0-0.3,0,0v19.8c0,0.3,0.3,0,0,0h-9.9   c-0.2,0-0.3,0.1-0.3,0.3v20.4c0,0.2,0.1,0.3,0.3,0.3h9.9c0.3,0,0-0.3,0,0V265c0,0.3,0.3,0,0,0h-9.9c-0.2,0-0.3,0.1-0.3,0.3v20.4   c0,0.2,0.1,0.3,0.3,0.3h9.9c0.3,0,0-0.3,0,0v22.1C325.3,308.2,325.4,308.4,325.5,308.4z"
   id="path912" />
</g>
</svg>
