<?xml version="1.0" encoding="UTF-8" standalone="no"?>
<svg
   version="1.1"
   width="762px"
   height="647px"
   style="shape-rendering:geometricPrecision; text-rendering:geometricPrecision; image-rendering:optimizeQuality; fill-rule:evenodd; clip-rule:evenodd"
   id="svg1199"
   sodipodi:docname="Illuminati_Eye.svg"
   inkscape:version="1.1.1 (3bf5ae0d25, 2021-09-20)"
   xmlns:inkscape="http://www.inkscape.org/namespaces/inkscape"
   xmlns:sodipodi="http://sodipodi.sourceforge.net/DTD/sodipodi-0.dtd"
   xmlns="http://www.w3.org/2000/svg"
   xmlns:svg="http://www.w3.org/2000/svg">
  <defs
     id="defs1203" />
  <sodipodi:namedview
     id="namedview1201"
     pagecolor="#ffffff"
     bordercolor="#666666"
     borderopacity="1.0"
     inkscape:pageshadow="2"
     inkscape:pageopacity="0.0"
     inkscape:pagecheckerboard="0"
     showgrid="false"
     inkscape:zoom="0.34119942"
     inkscape:cx="660.90382"
     inkscape:cy="889.50913"
     inkscape:window-width="1920"
     inkscape:window-height="1011"
     inkscape:window-x="0"
     inkscape:window-y="0"
     inkscape:window-maximized="1"
     inkscape:current-layer="svg1199" />
  <g
     id="g2175">
    <path
       style="opacity:0.995;fill:none"
       fill="#719d5e"
       d="m 404.5,-0.5 c 0.667,0 1.333,0 2,0 1.667,3.33333 3.333,6.66667 5,10 88.571,159.471 176.905,319.137 265,479 -4.696,-2.36 -9.696,-3.36 -15,-3 -9.617,1.541 -19.284,2.041 -29,1.5 -7.147,-1.768 -10.147,-6.101 -9,-13 10.29,1.154 20.623,1.82 31,2 3.547,-0.737 6.38,-2.57 8.5,-5.5 -2.288,-4.03 -4.288,-8.363 -6,-13 -5.271,-3.617 -11.105,-4.784 -17.5,-3.5 -3.858,1.273 -7.858,2.273 -12,3 -6.353,3.843 -12.353,8.177 -18,13 -5.719,2.763 -11.719,4.596 -18,5.5 -1.21,4.732 -3.877,8.566 -8,11.5 -6.828,4.915 -13.828,9.581 -21,14 -2.563,1.079 -5.229,1.579 -8,1.5 -0.219,-1.175 0.114,-2.175 1,-3 9.898,-6.726 19.064,-14.392 27.5,-23 0.584,-6.625 -2.249,-8.792 -8.5,-6.5 -2.667,2.667 -5.333,5.333 -8,8 -9.109,4.432 -17.109,10.432 -24,18 -4.976,1.081 -9.976,2.081 -15,3 -4.976,4.487 -10.309,8.487 -16,12 -9.224,3.279 -17.891,7.612 -26,13 -11.076,3.417 -22.409,5.417 -34,6 -8.676,3.007 -17.343,6.007 -26,9 -7.417,0.78 -14.75,0.28 -22,-1.5 -25.551,6.091 -51.218,6.591 -77,1.5 -15,-0.667 -30,-0.667 -45,0 -1.756,0.202 -3.422,0.702 -5,1.5 4.161,3.044 8.828,4.877 14,5.5 11.78,0.434 23.447,1.768 35,4 7.179,3.183 11.346,8.683 12.5,16.5 3.759,2.909 6.593,2.243 8.5,-2 -0.559,-3.56 -2.559,-5.893 -6,-7 -3.348,-4.597 -2.181,-7.264 3.5,-8 8.6,0.879 15.433,4.712 20.5,11.5 3.973,3.407 7.806,3.24 11.5,-0.5 2.039,-10.554 7.539,-12.72 16.5,-6.5 3.579,7.537 9.413,10.703 17.5,9.5 0.667,-1 0.667,-2 0,-3 -2.693,-2.073 -5.193,-4.24 -7.5,-6.5 0.987,-2.321 2.654,-3.987 5,-5 19.468,-1.36 38.302,-5.527 56.5,-12.5 4.245,0.521 7.912,2.187 11,5 0.865,2.388 0.032,3.888 -2.5,4.5 -4,0.333 -8,0.667 -12,1 -2.247,1.995 -3.247,4.495 -3,7.5 6.582,0.216 12.582,-1.617 18,-5.5 3.942,-0.993 7.942,-1.66 12,-2 1.074,-0.739 1.741,-1.739 2,-3 -2.184,-3.361 -4.184,-6.861 -6,-10.5 1.421,-4.577 4.421,-6.077 9,-4.5 21.033,5.707 42.366,7.04 64,4 7.631,-1.652 14.631,-4.652 21,-9 1.914,-1.413 3.247,-3.247 4,-5.5 -3.439,-5.306 -3.605,-10.639 -0.5,-16 6.941,-5.217 14.108,-10.05 21.5,-14.5 2.757,-0.584 5.423,-0.25 8,1 13.927,8.38 28.427,15.547 43.5,21.5 10.157,-1.115 12.657,-5.948 7.5,-14.5 0.113,-1.28 0.78,-2.113 2,-2.5 6.637,3.62 8.471,8.954 5.5,16 -9.599,11.202 -21.266,14.202 -35,9 -4.343,-1.421 -8.509,-3.254 -12.5,-5.5 -5.333,-4.667 -10.667,-9.333 -16,-14 -5.591,-0.915 -10.591,0.419 -15,4 -1.577,3.482 -0.577,6.148 3,8 4.468,2.381 9.135,4.381 14,6 3.702,2.531 4.535,5.698 2.5,9.5 -4.375,1.688 -8.042,4.355 -11,8 -1.346,3.37 -3.179,6.37 -5.5,9 -5.634,-3.901 -11.801,-6.567 -18.5,-8 -3.737,0.475 -7.237,1.642 -10.5,3.5 -1.775,3.394 -1.108,6.06 2,8 6.685,0.403 13.018,2.069 19,5 5.209,3.209 5.209,6.209 0,9 -14.362,3.206 -28.696,6.539 -43,10 -14.483,0.935 -28.816,2.935 -43,6 -23.838,6.201 -47.838,11.701 -72,16.5 -3.745,-0.429 -6.745,-2.096 -9,-5 -4.151,1.995 -8.485,3.495 -13,4.5 -16.667,0.333 -33.333,0.667 -50,1 -4,0.5 -8,1 -12,1.5 -15.602,-2.291 -31.268,-2.624 -47,-1 -29.317,-2.793 -58.651,-4.959 -88,-6.5 -4.115,-1.223 -7.782,-3.223 -11,-6 -5.913,-2.726 -11.913,-3.06 -18,-1 -3.924,3.182 -3.924,6.182 0,9 7.376,0.253 14.709,0.919 22,2 8.157,2.886 16.49,5.053 25,6.5 7.653,-1.075 15.32,-1.575 23,-1.5 5.019,2.673 10.352,4.34 16,5 37.62,2.865 75.286,3.865 113,3 36.716,-3.231 73.383,-6.898 110,-11 20.165,-5.125 40.499,-9.458 61,-13 10.079,-1.318 19.413,0.682 28,6 1.267,1.796 1.267,3.629 0,5.5 -1.993,1.999 -4.327,3.499 -7,4.5 -7.679,1.252 -15.346,2.585 -23,4 -6.083,2.412 -7.416,6.412 -4,12 5.369,0.162 10.702,-0.338 16,-1.5 6.001,0.094 9.001,3.261 9,9.5 -0.042,1.967 -0.542,3.801 -1.5,5.5 -3.96,2.872 -8.126,5.372 -12.5,7.5 10.552,5.713 20.052,4.213 28.5,-4.5 1.582,-2.124 1.749,-4.29 0.5,-6.5 -5.053,-2.098 -9.22,-5.265 -12.5,-9.5 -0.667,-1.333 -0.667,-2.667 0,-4 7.752,-4.896 16.252,-6.896 25.5,-6 11.124,-0.742 21.458,1.758 31,7.5 3.825,2.232 3.825,4.232 0,6 -5.285,1.026 -10.618,1.693 -16,2 -6.167,0.501 -11.334,3.001 -15.5,7.5 -1.033,2.717 -0.2,4.551 2.5,5.5 8.456,0.881 16.79,0.214 25,-2 4.406,-1.409 7.073,-4.409 8,-9 4.072,-0.658 8.072,-0.325 12,1 5.921,2.529 11.921,4.863 18,7 -0.034,7.624 3.632,10.29 11,8 6.793,-5.125 13.293,-10.625 19.5,-16.5 0.939,-6.752 -1.894,-11.252 -8.5,-13.5 -4.293,-1.202 -7.793,-0.035 -10.5,3.5 -2.27,5.144 -3.937,10.478 -5,16 -0.414,0.457 -0.914,0.791 -1.5,1 -1.273,-3.974 -2.44,-7.974 -3.5,-12 -6.176,-2.757 -12.343,-5.59 -18.5,-8.5 -3.184,-2.437 -4.184,-5.437 -3,-9 8.226,1.405 16.393,3.238 24.5,5.5 4.793,-0.375 9.46,-1.375 14,-3 6.516,2.635 10.516,0.635 12,-6 1.543,-1.878 3.376,-3.378 5.5,-4.5 8.681,0.667 17.347,0.501 26,-0.5 0.164,-2.687 -0.003,-5.354 -0.5,-8 -0.903,-1.201 -2.069,-2.035 -3.5,-2.5 -7.333,-0.667 -14.667,-0.667 -22,0 -8.322,1.564 -16.655,3.064 -25,4.5 -6.307,-2.13 -12.307,-4.963 -18,-8.5 -3.333,-1 -6.667,-2 -10,-3 -4.046,-1.471 -4.879,-3.971 -2.5,-7.5 1.419,-0.96 2.919,-1.793 4.5,-2.5 9.667,-0.667 19.333,-0.667 29,0 8.456,1.594 16.123,4.927 23,10 4.895,2.394 9.395,1.894 13.5,-1.5 0.667,-1.333 0.667,-2.667 0,-4 -2.134,-1.984 -4.634,-3.318 -7.5,-4 -1.77,-1.32 -2.103,-2.82 -1,-4.5 3.558,-0.146 6.891,-0.979 10,-2.5 6.933,12.201 13.6,24.534 20,37 -2.222,-0.322 -4.056,0.345 -5.5,2 -0.117,5.402 -2.617,9.236 -7.5,11.5 -5.598,0.6 -11.098,0.1 -16.5,-1.5 -3.2,-0.353 -5.867,0.647 -8,3 0.894,3.295 2.394,6.461 4.5,9.5 4.667,0.333 9.333,0.667 14,1 1.577,3.482 0.577,6.148 -3,8 -5.029,0.953 -9.696,2.787 -14,5.5 -2.604,3.49 -1.604,5.824 3,7 15.655,0.416 31.321,-0.084 47,-1.5 6.227,-3.478 6.56,-7.478 1,-12 -3.333,-0.333 -6.667,-0.667 -10,-1 -2.846,-0.879 -3.513,-2.546 -2,-5 4.464,-0.171 7.13,-2.337 8,-6.5 5.919,9.502 11.586,19.169 17,29 0,1 0,2 0,3 -1.527,-0.073 -2.527,0.594 -3,2 -253,0 -506,0 -759,0 0,-1.667 0,-3.333 0,-5 44.4169,-70.502 89.0836,-140.836 134,-211 90.583,-143.498 180.917,-287.165 271,-431 z"
       id="path923" />
    <path
       id="path927"
       d="M 411.5 9.5 C 406.532 10.2795 402.365 12.6128 399 16.5 C 395.861 25.4525 391.194 33.4525 385 40.5 C 382.109 46.8969 383.609 52.0636 389.5 56 C 397.423 57.2355 405.423 57.9021 413.5 58 C 421.525 61.3468 421.192 64.3468 412.5 67 C 401.182 68.8057 389.849 68.8057 378.5 67 C 375.924 66.2178 373.924 64.7178 372.5 62.5 C 371.277 65.9467 369.777 69.2801 368 72.5 C 349.637 95.5501 333.637 120.217 320 146.5 C 313.245 156.344 306.245 166.01 299 175.5 C 294.149 185.676 289.316 195.843 284.5 206 C 284.934 208.316 285.934 210.316 287.5 212 C 304.289 213.924 321.122 213.757 338 211.5 C 345.459 212.787 352.959 213.787 360.5 214.5 C 369.472 213.757 378.139 211.757 386.5 208.5 C 393.109 209.993 399.776 210.493 406.5 210 C 416.222 203.892 415.222 200.059 403.5 198.5 C 397.14 199.951 390.807 201.618 384.5 203.5 C 375.623 201.196 366.623 200.862 357.5 202.5 C 349.649 201.552 341.816 200.552 334 199.5 C 327.812 199.971 321.645 200.638 315.5 201.5 C 312.705 201.547 310.039 201.047 307.5 200 C 301.492 193.382 302.492 188.049 310.5 184 C 319.546 182.739 328.213 180.239 336.5 176.5 C 337.5 176.667 338.5 176.833 339.5 177 C 341.861 180.214 344.861 182.381 348.5 183.5 C 358.063 181.881 360.396 177.047 355.5 169 C 349.795 169.283 344.128 170.116 338.5 171.5 C 333.57 170.913 328.904 169.413 324.5 167 C 320.5 163 320.5 159 324.5 155 C 328.92 151.522 333.92 149.189 339.5 148 C 346.876 147.495 354.209 146.662 361.5 145.5 C 367.073 147.191 372.739 147.691 378.5 147 C 381.215 145.092 384.215 143.759 387.5 143 C 400.142 141.642 412.809 141.309 425.5 142 C 442.077 147.028 458.91 148.528 476 146.5 C 476.755 143.697 476.422 141.03 475 138.5 C 470.763 134.964 466.263 131.798 461.5 129 C 468 126.332 469 122.332 464.5 117 C 460.157 115.209 456.324 116.042 453 119.5 C 453.431 125.821 450.598 129.655 444.5 131 C 429.672 130.475 414.838 129.642 400 128.5 C 394.461 128.581 388.961 129.081 383.5 130 C 373.922 132.311 364.255 134.145 354.5 135.5 C 349.843 135.424 346.343 133.424 344 129.5 C 344.019 123.786 346.853 119.953 352.5 118 C 367.488 113.224 382.821 110.057 398.5 108.5 C 412.47 110.163 426.47 111.496 440.5 112.5 C 443.833 112.333 447.167 112.167 450.5 112 C 452.329 111.727 453.829 110.893 455 109.5 C 455.652 106.406 455.318 103.406 454 100.5 C 450.667 94.5 447.333 88.5 444 82.5 C 441.943 76.7192 439.61 71.0526 437 65.5 C 433.284 61.4518 429.95 57.1185 427 52.5 C 424.567 42.295 419.567 33.6283 412 26.5 C 409.003 20.8771 408.837 15.2104 411.5 9.5 z M 397.5 37.5 C 400.568 37.5467 403.568 38.0467 406.5 39 C 407.876 41.5402 407.21 43.5402 404.5 45 C 398.485 45.8203 396.151 43.3203 397.5 37.5 z M 390.5 80.5 C 401.505 80.3335 412.505 80.5002 423.5 81 C 433.445 83.1901 435.445 88.1901 429.5 96 C 427.361 97.4039 425.028 98.2372 422.5 98.5 C 415.234 97.1138 407.901 96.4472 400.5 96.5 C 390.474 97.3444 380.474 98.1777 370.5 99 C 362.396 97.992 360.729 94.3253 365.5 88 C 373.41 83.7766 381.743 81.2766 390.5 80.5 z " />
    <g
       id="g933" />
    <g
       id="g937" />
    <g
       id="g941">
      <path
         style="opacity:1"
         fill="#090c08"
         d="M 424.5,164.5 C 429.617,165.655 430.784,168.655 428,173.5C 424.816,176.844 420.982,178.011 416.5,177C 414.376,174.592 414.543,172.092 417,169.5C 419.426,167.548 421.926,165.881 424.5,164.5 Z"
         id="path939" />
    </g>
    <g
       id="g945">
      <path
         style="opacity:1"
         fill="#040603"
         d="M 381.5,166.5 C 385.967,166.133 390.3,166.633 394.5,168C 395.837,172.662 394.17,175.995 389.5,178C 386.167,178.667 382.833,178.667 379.5,178C 372.539,172.995 373.205,169.162 381.5,166.5 Z"
         id="path943" />
    </g>
    <g
       id="g949">
      <path
         style="opacity:1"
         fill="#060805"
         d="M 450.5,167.5 C 458.414,166.612 462.914,169.945 464,177.5C 456.649,180.299 451.149,178.299 447.5,171.5C 448.172,169.84 449.172,168.507 450.5,167.5 Z"
         id="path947" />
    </g>
    <g
       id="g953">
      <path
         style="opacity:1"
         fill="#040604"
         d="M 421.5,191.5 C 422.251,190.427 423.251,190.26 424.5,191C 428.11,192.944 431.443,195.277 434.5,198C 449.234,197.942 451.234,202.942 440.5,213C 436.805,216.214 432.805,216.88 428.5,215C 426.73,213.033 425.73,210.7 425.5,208C 426.497,203.862 426.664,199.696 426,195.5C 425.208,193.356 423.708,192.023 421.5,191.5 Z"
         id="path951" />
    </g>
    <g
       id="g957">
      <path
         style="opacity:1"
         fill="#050604"
         d="M 469.5,204.5 C 477.806,203.482 484.472,206.149 489.5,212.5C 487.462,215.855 484.462,217.688 480.5,218C 474.149,219.856 467.816,219.856 461.5,218C 457.454,216.529 456.621,214.029 459,210.5C 462.101,207.648 465.601,205.648 469.5,204.5 Z"
         id="path955" />
    </g>
    <g
       id="g961">
      <path
         style="opacity:1"
         fill="#040503"
         d="M 322.5,218.5 C 326.516,217.9 330.016,218.9 333,221.5C 332.859,226.329 330.359,229.496 325.5,231C 307.132,233.094 289.132,236.761 271.5,242C 265.813,247.821 267.146,251.321 275.5,252.5C 283.862,250.102 292.195,247.602 300.5,245C 306.147,245.3 311.814,245.3 317.5,245C 321.01,243.482 324.51,241.982 328,240.5C 334.568,242.493 336.068,246.326 332.5,252C 317.231,254.156 302.231,257.489 287.5,262C 283.9,264.048 280.4,266.214 277,268.5C 267.75,265.914 258.584,266.414 249.5,270C 247.773,271.389 246.439,273.056 245.5,275C 245.862,276.885 247.029,277.719 249,277.5C 255.66,275.586 262.16,273.252 268.5,270.5C 271.329,270.548 273.663,271.548 275.5,273.5C 270.002,278.16 264.335,282.66 258.5,287C 254.206,288.682 249.872,288.849 245.5,287.5C 244.227,281.337 242.727,275.337 241,269.5C 243.615,265.217 246.615,261.217 250,257.5C 253.03,248.391 257.197,239.891 262.5,232C 265.554,229.806 268.888,228.139 272.5,227C 284.817,225.917 297.15,224.917 309.5,224C 314.154,222.666 318.487,220.833 322.5,218.5 Z"
         id="path959" />
    </g>
    <g
       id="g965">
      <path
         style="opacity:1"
         fill="#050704"
         d="M 399.5,230.5 C 407.003,231.012 409.67,234.846 407.5,242C 402.282,243.563 396.949,243.896 391.5,243C 386.228,241.184 385.561,238.518 389.5,235C 392.815,233.17 396.149,231.67 399.5,230.5 Z"
         id="path963" />
    </g>
    <g
       id="g969">
      <path
         style="opacity:1"
         fill="#060705"
         d="M 439.5,231.5 C 445.492,231.582 451.325,232.582 457,234.5C 459.893,235.226 462.059,236.893 463.5,239.5C 460.932,242.62 457.599,244.453 453.5,245C 445.08,246.409 437.08,245.242 429.5,241.5C 428.386,240.277 428.219,238.944 429,237.5C 432.069,234.554 435.569,232.554 439.5,231.5 Z"
         id="path967" />
    </g>
    <path
       id="path971"
       d="M 481.57031 157.95703 C 479.13952 157.948 477.44959 159.79612 476.5 163.5 C 478.855 167.379 480.522 171.546 481.5 176 C 481.167 177.167 480.833 178.333 480.5 179.5 C 472.843 182.927 471.843 187.427 477.5 193 C 486.394 194.233 493.56 198.4 499 205.5 C 501.938 211.765 500.604 216.765 495 220.5 C 494.317 224.84 496.15 227.673 500.5 229 C 505.236 230.081 509.903 231.414 514.5 233 C 523.545 237.708 525.879 244.708 521.5 254 C 516.337 257.473 511.337 257.307 506.5 253.5 C 501.027 243.114 492.694 238.948 481.5 241 C 476.167 247 470.833 253 465.5 259 C 461.167 261.584 456.5 263.251 451.5 264 C 440.5 264.667 429.5 264.667 418.5 264 C 411.99 259.745 404.99 256.578 397.5 254.5 C 390.921 256.645 384.255 258.478 377.5 260 C 360.492 260.361 343.492 260.361 326.5 260 C 316.787 262.845 307.12 265.845 297.5 269 C 288.98 272.756 281.313 277.756 274.5 284 C 266.425 287.074 259.092 291.407 252.5 297 C 250.5 297.667 248.5 297.667 246.5 297 C 244.413 293.492 242.08 290.158 239.5 287 C 234.657 285.786 230.49 286.953 227 290.5 C 217.413 309.355 206.079 327.022 193 343.5 C 192.104 346.025 192.604 348.192 194.5 350 C 198.486 350.499 202.486 350.666 206.5 350.5 L 206.5 354.5 C 201.106 354.913 195.773 355.747 190.5 357 C 186.133 357.867 183.133 360.367 181.5 364.5 C 183.918 370.25 188.252 373.25 194.5 373.5 C 195.026 376.808 193.693 378.974 190.5 380 C 186.115 379.962 181.782 379.629 177.5 379 C 169.747 389.424 161.247 399.257 152 408.5 C 150.294 412.035 148.96 415.702 148 419.5 C 143.047 423.054 138.214 426.721 133.5 430.5 C 132.79 437.008 131.29 443.342 129 449.5 C 125.915 454.672 122.581 459.672 119 464.5 C 118.802 467.578 119.635 470.412 121.5 473 C 125.615 474.223 129.282 476.223 132.5 479 C 140.131 491.317 150.464 500.65 163.5 507 C 166.717 512.323 165.05 514.823 158.5 514.5 C 149.394 512.385 140.227 512.052 131 513.5 C 119.391 511.599 114.724 504.933 117 493.5 C 121.71 492.146 124.044 489.146 124 484.5 C 121.294 477.297 116.961 475.963 111 480.5 C 104.248 489.663 98.2485 499.33 93 509.5 C 87.3333 516.5 81.6667 523.5 76 530.5 C 72.8147 536.377 69.8147 542.377 67 548.5 C 60.7996 558.261 54.1329 567.594 47 576.5 C 45.0291 581.824 43.8625 587.324 43.5 593 C 42.9968 598.036 44.9968 601.536 49.5 603.5 C 50.5827 604.365 50.7494 605.365 50 606.5 C 46.0597 608.15 41.893 608.983 37.5 609 C 35.8333 610 34.1667 611 32.5 612 C 25.2459 619.25 18.7459 627.083 13 635.5 C 11.9581 638.804 13.1247 640.971 16.5 642 C 25.7152 644.062 35.0486 644.895 44.5 644.5 C 44.7025 639.275 43.2025 634.608 40 630.5 C 39.3333 628.5 39.3333 626.5 40 624.5 C 47.6612 620.671 55.4945 620.504 63.5 624 C 64.9661 625.552 65.9661 627.386 66.5 629.5 C 72.4208 630.563 78.0875 632.397 83.5 635 C 87.2171 638.385 91.2171 641.385 95.5 644 C 100.176 644.986 102.342 643.152 102 638.5 C 99.8003 636.385 97.8003 634.051 96 631.5 C 95.2837 628.28 94.117 625.28 92.5 622.5 C 87.1723 621.001 81.839 619.501 76.5 618 C 71.7548 616.885 68.5881 614.052 67 609.5 C 65.6092 603.603 67.7758 599.936 73.5 598.5 C 78.2581 600.044 82.9248 601.877 87.5 604 C 94.9729 604.057 102.306 605.057 109.5 607 C 115.839 608.987 120.839 612.654 124.5 618 C 124.355 618.772 124.022 619.439 123.5 620 C 119.119 619.611 115.619 621.111 113 624.5 C 110.503 628.351 111.337 631.184 115.5 633 C 120.363 633.809 125.03 633.142 129.5 631 C 133.115 628.371 136.948 626.204 141 624.5 C 141.833 624.833 142.667 625.167 143.5 625.5 C 143.587 630.357 145.253 634.524 148.5 638 C 157.843 637.797 167.177 637.464 176.5 637 C 179.5 637.333 181.167 639 181.5 642 C 186.15 643.909 190.816 643.909 195.5 642 C 199.386 639.89 203.386 638.057 207.5 636.5 C 213.379 638.395 219.045 640.728 224.5 643.5 C 226.577 643.308 228.577 642.808 230.5 642 C 232.85 639.581 235.184 637.248 237.5 635 C 242.104 633.939 246.771 633.273 251.5 633 L 253 631.5 C 253.082 628.916 252.249 626.583 250.5 624.5 C 247.551 621.225 244.385 620.891 241 623.5 C 238.635 629.202 234.469 632.702 228.5 634 C 220.167 634.667 211.833 634.667 203.5 634 C 190.908 632.105 178.242 631.105 165.5 631 L 150.5 628 C 145.249 624.012 141.582 618.845 139.5 612.5 C 139.608 611.558 139.941 610.725 140.5 610 C 142.888 609.697 145.055 608.863 147 607.5 C 149.917 604.05 150.083 600.55 147.5 597 C 144.064 595.913 140.564 595.079 137 594.5 C 128.779 595.979 120.612 595.812 112.5 594 C 105.683 588.017 99.0164 581.851 92.5 575.5 C 87.6674 576.951 86.0008 579.951 87.5 584.5 C 92.3225 586.282 92.6558 588.616 88.5 591.5 C 81.0685 587.272 73.0685 585.438 64.5 586 C 62.324 585.837 60.4907 585.004 59 583.5 C 58.6688 578.14 61.1688 574.64 66.5 573 C 72.7494 571.464 79.0828 571.13 85.5 572 C 99.1577 573.466 112.824 574.799 126.5 576 C 131.136 576.879 135.469 578.545 139.5 581 C 142.833 585.667 146.833 589.667 151.5 593 C 160.851 594.023 163.184 590.689 158.5 583 C 160.767 581.283 162.934 579.45 165 577.5 C 165.536 575.433 165.036 573.599 163.5 572 C 155.702 569.503 147.702 567.837 139.5 567 C 130.725 565.031 123.225 560.865 117 554.5 C 113.692 548.05 109.526 542.217 104.5 537 C 100.77 534.977 96.9367 533.144 93 531.5 C 89.7189 522.734 92.7189 517.401 102 515.5 C 112.49 517.91 121.49 522.91 129 530.5 C 130.885 532.914 131.552 535.581 131 538.5 C 128.828 539.585 126.828 540.919 125 542.5 C 124.333 544.167 124.333 545.833 125 547.5 C 127.917 549.393 131.084 549.893 134.5 549 C 145.865 547.827 149.532 541.994 145.5 531.5 C 145.608 530.558 145.941 529.725 146.5 529 C 151.794 527.208 157.128 525.541 162.5 524 C 165.5 520.333 168.5 516.667 171.5 513 C 182.014 507.401 182.014 501.401 171.5 495 C 166.878 493.573 162.545 491.573 158.5 489 C 133.161 470.535 134.995 455.035 164 442.5 C 165.116 437.777 163.616 434.11 159.5 431.5 C 163.889 429.608 168.389 427.941 173 426.5 C 173.781 425.271 174.281 423.938 174.5 422.5 C 166.162 407.526 170.162 397.859 186.5 393.5 C 191.003 394.432 191.67 396.598 188.5 400 C 183.486 402.086 179.319 405.253 176 409.5 C 175.219 410.944 175.386 412.277 176.5 413.5 C 181.852 416.052 187.186 415.885 192.5 413 C 199.044 408.227 206.044 404.227 213.5 401 C 214.833 400.333 216.167 400.333 217.5 401 C 219.231 402.63 221.231 403.797 223.5 404.5 C 227.104 404.451 229.604 402.784 231 399.5 C 230.709 394.856 230.709 390.189 231 385.5 C 235.5 379.667 240.667 374.5 246.5 370 C 255.425 365.399 264.092 360.399 272.5 355 C 287.749 351.682 302.749 347.515 317.5 342.5 C 322.21 344.014 326.876 345.847 331.5 348 C 333.833 348.667 336.167 348.667 338.5 348 C 345.982 338.918 355.649 333.418 367.5 331.5 C 374.089 332.212 376.089 335.379 373.5 341 C 370.166 341.789 366.999 342.956 364 344.5 C 363.333 345.833 363.333 347.167 364 348.5 C 369.69 350.931 375.523 351.098 381.5 349 C 388.559 343.609 395.893 338.609 403.5 334 C 412.891 332.647 421.891 333.981 430.5 338 C 438.581 341.731 437.915 343.897 428.5 344.5 C 422.859 343.003 417.192 341.837 411.5 341 C 407.5 344.667 407.5 348.333 411.5 352 C 422.037 354.318 432.704 355.985 443.5 357 C 462.6 361.029 480.267 368.362 496.5 379 C 498.769 379.758 500.936 379.591 503 378.5 C 503.318 374.295 501.818 370.795 498.5 368 C 492.599 364.89 487.266 361.056 482.5 356.5 C 483.333 356.167 484.167 355.833 485 355.5 C 491.236 358.574 497.736 359.24 504.5 357.5 C 504.41 355.304 504.077 353.137 503.5 351 C 503.615 349.105 504.282 347.438 505.5 346 C 512.467 344.539 519.133 342.206 525.5 339 C 528.255 335.571 530.922 332.071 533.5 328.5 C 541.756 323.247 550.756 320.747 560.5 321 C 563.167 323 563.167 325 560.5 327 C 557.5 327.333 554.5 327.667 551.5 328 C 549.639 329.028 548.305 330.528 547.5 332.5 C 549.804 334.938 551.47 337.771 552.5 341 C 551.899 342.605 550.899 343.938 549.5 345 C 542.502 346.333 535.835 348.666 529.5 352 C 524.136 359.955 516.803 362.455 507.5 359.5 C 506.054 360.171 505.388 361.338 505.5 363 C 507.46 367.976 510.627 372.143 515 375.5 C 516.174 379.046 516.84 382.713 517 386.5 C 523.849 394.015 531.349 400.848 539.5 407 C 551.2 412.775 561.367 420.609 570 430.5 C 570.72 432.112 570.554 433.612 569.5 435 C 566.983 435.257 564.65 434.59 562.5 433 C 554.632 425.143 545.632 418.81 535.5 414 C 517.509 399.996 498.176 387.996 477.5 378 C 473.928 376.595 470.261 376.262 466.5 377 C 464.038 380.485 464.704 383.485 468.5 386 C 480.112 391.139 491.446 396.806 502.5 403 C 515.228 412.059 528.228 420.726 541.5 429 C 549.72 437.219 559.053 443.885 569.5 449 C 573.717 452.316 576.05 456.649 576.5 462 C 579.167 462.333 581.833 462.667 584.5 463 C 587.004 467.774 590.67 468.774 595.5 466 C 598.345 461.736 598.012 457.736 594.5 454 C 590.32 451.16 585.82 448.993 581 447.5 C 580.333 446.5 580.333 445.5 581 444.5 C 583.775 441.346 586.942 440.846 590.5 443 C 602.524 458.214 615.524 459.214 629.5 446 C 631.5 445.333 633.5 445.333 635.5 446 C 647.604 452.977 651.104 450.144 646 437.5 C 634.71 423.927 625.71 408.927 619 392.5 C 611.755 383.01 604.755 373.344 598 363.5 C 588.905 346.646 580.905 329.312 574 311.5 C 569.231 306.732 565.231 301.399 562 295.5 C 558.728 290.597 555.061 290.263 551 294.5 C 550.285 298.492 550.785 302.325 552.5 306 C 552.368 308.799 551.035 310.799 548.5 312 C 541.916 313.544 535.249 313.877 528.5 313 C 525.881 312.849 523.547 312.015 521.5 310.5 C 521.709 309.914 522.043 309.414 522.5 309 C 528.163 308.918 533.496 307.584 538.5 305 C 540.677 303.503 542.01 301.503 542.5 299 C 539.048 289.554 532.381 283.554 522.5 281 C 515.062 272.723 517.062 269.057 528.5 270 C 533.833 272.667 537.833 276.667 540.5 282 C 547.968 286.021 551.468 283.854 551 275.5 C 548.829 271.156 546.163 267.156 543 263.5 C 540.941 259.323 539.274 254.99 538 250.5 C 534 245.833 530 241.167 526 236.5 C 524.396 231.023 522.396 225.689 520 220.5 C 505.328 202.169 493.995 181.836 486 159.5 C 484.32044 158.47666 482.84359 157.96176 481.57031 157.95703 z M 484.45703 253.34961 C 484.65232 253.3479 484.84633 253.34768 485.04102 253.34961 C 485.43038 253.35346 485.81867 253.36507 486.20508 253.38281 C 490.84195 253.59577 495.27375 254.801 499.5 257 C 503.792 264.143 502.125 269.81 494.5 274 C 485.835 276.211 478.668 274.044 473 267.5 C 472.333 265.5 472.333 263.5 473 261.5 C 475.074 257.923 477.907 255.256 481.5 253.5 C 482.29562 253.42512 483.08498 253.37883 483.86914 253.35938 C 484.06518 253.35451 484.26174 253.35132 484.45703 253.34961 z M 361.81836 271.40234 C 363.11394 271.42039 364.34125 271.786 365.5 272.5 L 364.5 273.5 C 358.086 276.789 351.919 280.456 346 284.5 C 344.865 289.2 346.699 291.866 351.5 292.5 C 359.453 289.905 367.453 287.405 375.5 285 C 383.936 280.782 392.602 277.115 401.5 274 C 412.45 272.454 423.45 272.121 434.5 273 C 437.646 273.11 438.646 274.443 437.5 277 C 430.266 277.633 423.099 277.133 416 275.5 C 413.144 275.871 410.311 276.371 407.5 277 C 400.926 281.119 393.926 284.453 386.5 287 C 381.985 292.818 383.485 296.318 391 297.5 C 401.022 294.453 411.188 291.953 421.5 290 C 428.011 288.968 434.344 289.468 440.5 291.5 C 441.833 293.167 441.833 294.833 440.5 296.5 C 433.452 299.154 428.452 303.821 425.5 310.5 C 415.795 317.853 405.128 323.353 393.5 327 C 374.5 329.871 355.5 330.038 336.5 327.5 C 332.092 328.73 327.759 330.23 323.5 332 C 311.591 333.796 299.758 335.963 288 338.5 C 284.622 338.765 281.788 337.765 279.5 335.5 C 285.741 331.788 291.574 327.454 297 322.5 C 300.652 314.928 298.485 311.095 290.5 311 C 283.132 314.035 279.299 319.535 279 327.5 C 270.247 337.886 261.414 338.053 252.5 328 C 247.984 326.306 243.65 324.472 239.5 322.5 C 239.709 321.914 240.043 321.414 240.5 321 C 247.185 320.334 253.851 320.501 260.5 321.5 C 266.193 321.397 271.36 319.73 276 316.5 C 276.97 313.173 275.803 311.007 272.5 310 L 276.5 306 C 285.599 302.057 294.933 298.724 304.5 296 C 323.21 287.468 341.877 279.301 360.5 271.5 C 360.947 271.42875 361.3865 271.39633 361.81836 271.40234 z M 505.94727 294.35742 C 506.32851 294.35488 506.70988 294.357 507.08984 294.36328 C 511.64947 294.43861 516.11925 295.15075 520.5 296.5 C 521.711 297.274 521.711 298.107 520.5 299 C 514.167 299.333 507.833 299.667 501.5 300 C 490.649 304.927 480.982 311.594 472.5 320 C 464.869 325.899 456.369 330.065 447 332.5 C 439.318 331.833 433.652 328.166 430 321.5 C 429.333 319.5 429.333 317.5 430 315.5 C 436.608 309.559 443.775 304.392 451.5 300 C 461.458 298.835 471.458 298.168 481.5 298 C 488.693 297.142 495.693 295.976 502.5 294.5 C 503.65481 294.41263 504.80352 294.36504 505.94727 294.35742 z M 495.5 315.5 C 502.413 315.956 508.746 318.122 514.5 322 C 518.393 325.746 518.393 329.412 514.5 333 C 506.124 335.875 498.958 334.041 493 327.5 C 490.696 322.855 491.529 318.855 495.5 315.5 z M 481.28906 327.24219 C 481.45791 327.24166 481.62546 327.24329 481.79102 327.24609 C 491.06208 327.40339 495.13225 332.82063 494 343.5 C 485.19 345.68 477.523 343.347 471 336.5 C 470.333 334.833 470.333 333.167 471 331.5 C 473.013 329.752 475.18 328.418 477.5 327.5 C 478.84466 327.33178 480.1071 327.24587 481.28906 327.24219 z M 217.00977 328.43945 C 219.51594 328.44016 222.01225 328.6265 224.5 329 C 225.597 333.296 223.931 336.296 219.5 338 C 215.096 339.132 212.096 337.632 210.5 333.5 C 211.127 331.213 212.46 329.546 214.5 328.5 C 215.3375 328.45875 216.17437 328.43922 217.00977 328.43945 z M 237.30273 337.33203 C 237.85348 337.31998 238.35412 337.35242 238.80469 337.42773 C 241.50806 337.87961 242.40675 339.90375 241.5 343.5 C 238.439 346.576 234.772 347.743 230.5 347 C 229.424 345.274 229.257 343.441 230 341.5 C 231.812 340.023 233.645 338.69 235.5 337.5 C 236.15112 337.40062 236.75198 337.34408 237.30273 337.33203 z M 567.41016 346.41992 C 567.62148 346.41799 567.83228 346.41928 568.04297 346.42188 C 570.57127 346.4529 573.0565 346.81225 575.5 347.5 C 577.336 352.536 575.669 356.036 570.5 358 C 563.44 359.271 560.94 356.438 563 349.5 C 564.045 348.627 564.878 347.627 565.5 346.5 C 566.13919 346.45294 566.77618 346.42573 567.41016 346.41992 z M 251.5 347.5 C 258.492 347.468 260.159 350.301 256.5 356 C 254.19 356.497 251.857 356.663 249.5 356.5 C 249.207 353.246 249.874 350.246 251.5 347.5 z M 539.91211 358.4082 C 540.16594 358.41199 540.41583 358.42046 540.66016 358.43359 C 547.50137 358.80131 550.61425 362.82362 550 370.5 C 546.976 374.292 542.976 375.958 538 375.5 C 530.179 376.343 527.512 373.009 530 365.5 C 532.396 362.933 534.896 360.6 537.5 358.5 C 538.34713 358.42753 539.15061 358.39685 539.91211 358.4082 z M 218.99219 360.33984 C 224.4345 360.39431 227.26987 363.44763 227.5 369.5 C 221.712 370.764 217.379 368.931 214.5 364 C 214.978 362.697 215.645 361.531 216.5 360.5 C 217.38387 360.38538 218.21471 360.33206 218.99219 360.33984 z M 550.5 381.5 C 556.216 381.387 559.05 384.054 559 389.5 C 552.142 393.304 548.809 391.304 549 383.5 C 549.717 382.956 550.217 382.289 550.5 381.5 z M 576.5 397.5 C 581.801 397.099 586.301 398.766 590 402.5 C 590.667 403.833 590.667 405.167 590 406.5 C 586.688 408.645 583.854 411.312 581.5 414.5 C 582.538 419.352 585.538 421.852 590.5 422 C 593.21 423.46 593.876 425.46 592.5 428 C 589.366 428.79 586.366 428.457 583.5 427 C 577.382 422.882 571.882 418.049 567 412.5 C 565.627 410.305 565.294 407.971 566 405.5 C 568.855 401.789 572.355 399.123 576.5 397.5 z M 85.423828 544.37109 C 85.745837 544.37206 86.066656 544.37754 86.386719 544.38867 C 90.227469 544.52222 93.9315 545.392 97.5 547 C 102.68 551.588 102.68 555.921 97.5 560 C 90.119 560.992 83.119 559.825 76.5 556.5 C 74.7438 554.809 74.2438 552.809 75 550.5 C 77.1337 547.847 79.6337 545.847 82.5 544.5 C 83.482875 544.41056 84.457802 544.3682 85.423828 544.37109 z " />
    <g
       id="g977">
      <path
         style="opacity:1"
         fill="#090b07"
         d="M 360.5,233.5 C 365.977,232.928 370.31,234.761 373.5,239C 370.215,244.873 365.215,247.54 358.5,247C 353.744,244.661 352.577,241.161 355,236.5C 356.876,235.391 358.709,234.391 360.5,233.5 Z"
         id="path975" />
    </g>
    <g
       id="g981" />
    <g
       id="g985" />
    <g
       id="g989">
      <path
         style="opacity:1"
         fill="#070a06"
         d="M 320.5,293.5 C 322.857,293.337 325.19,293.503 327.5,294C 328.885,298.326 327.218,300.992 322.5,302C 320.167,302.667 317.833,302.667 315.5,302C 314.446,300.612 314.28,299.112 315,297.5C 316.812,296.023 318.645,294.69 320.5,293.5 Z"
         id="path987" />
    </g>
    <g
       id="g993" />
    <g
       id="g997">
      <path
         style="opacity:1"
         fill="#090c07"
         d="M 339.5,310.5 C 344.032,310.069 348.365,310.569 352.5,312C 351.541,313.464 350.208,314.297 348.5,314.5C 343.867,315.448 339.201,316.114 334.5,316.5C 334.749,313.256 336.416,311.256 339.5,310.5 Z"
         id="path995" />
    </g>
    <g
       id="g1001">
      <path
         style="opacity:1"
         fill="#080b07"
         d="M 381.5,310.5 C 383.927,310.523 386.26,311.023 388.5,312C 389.799,317.689 387.466,319.689 381.5,318C 378.88,315.441 378.88,312.941 381.5,310.5 Z"
         id="path999" />
    </g>
    <g
       id="g1005" />
    <g
       id="g1009" />
    <g
       id="g1013" />
    <g
       id="g1017" />
    <g
       id="g1021" />
    <g
       id="g1025" />
    <g
       id="g1029">
      <path
         style="opacity:1"
         fill="#060805"
         d="M 303.5,351.5 C 309.448,351.179 312.281,353.845 312,359.5C 309.083,361.393 305.916,361.893 302.5,361C 298.379,357.329 298.712,354.163 303.5,351.5 Z"
         id="path1027" />
    </g>
    <g
       id="g1033" />
    <g
       id="g1037" />
    <g
       id="g1041">
      <path
         style="opacity:1"
         fill="#070905"
         d="M 272.5,364.5 C 276.691,364.584 279.358,366.584 280.5,370.5C 280.471,372.029 279.804,373.196 278.5,374C 268.777,377.361 259.777,382.027 251.5,388C 248.104,390.036 244.938,389.869 242,387.5C 241.37,385.097 242.203,383.263 244.5,382C 248.951,381.87 253.284,381.204 257.5,380C 262.758,374.911 267.758,369.745 272.5,364.5 Z"
         id="path1039" />
    </g>
    <path
       id="path1043"
       d="M 426.25781 369.4375 C 425.33928 369.43734 424.4205 369.45875 423.5 369.5 C 422.235 370.479 420.901 371.479 419.5 372.5 C 418.045 377.413 414.712 380.246 409.5 381 C 388.163 381.239 366.829 381.239 345.5 381 C 339.135 382.175 332.801 383.508 326.5 385 C 319.124 385.253 311.791 385.919 304.5 387 C 288.794 392.594 272.794 397.261 256.5 401 C 248.271 403.781 240.271 407.115 232.5 411 C 223.805 413.669 215.138 416.336 206.5 419 C 202.709 424.039 200.709 429.706 200.5 436 C 186.319 438.838 174.486 445.671 165 456.5 C 160.775 462.173 158.775 468.507 159 475.5 C 162.419 480.923 166.585 485.756 171.5 490 C 183.184 490.909 194.851 491.909 206.5 493 C 210.659 493.372 213.659 495.372 215.5 499 C 223.5 503.333 231.5 507.667 239.5 512 C 252.087 511.331 255.92 505.165 251 493.5 C 247.193 488.059 243.027 482.892 238.5 478 C 226.439 480.151 218.773 475.484 215.5 464 C 216.985 458.5 219.652 458 223.5 462.5 C 224.76 465.717 226.093 468.884 227.5 472 C 230.714 474.402 233.214 473.902 235 470.5 C 235.159 465.084 235.826 459.75 237 454.5 C 237.949 451.8 239.783 450.967 242.5 452 C 245.046 455.59 247.213 459.423 249 463.5 C 253.23 478.634 260.563 491.967 271 503.5 C 271.667 505.833 271.667 508.167 271 510.5 C 268.198 511.33 265.365 512.163 262.5 513 C 260.579 514.241 260.246 515.741 261.5 517.5 C 265.977 518.757 270.311 518.257 274.5 516 C 277.5 515.333 280.5 515.333 283.5 516 C 286.463 517.961 289.129 520.294 291.5 523 C 296.109 526.367 301.109 527.2 306.5 525.5 C 307.594 524.132 307.26 522.965 305.5 522 C 300.59 519.143 295.59 516.476 290.5 514 C 276.608 501.056 267.775 485.222 264 466.5 C 260.213 459.138 257.213 451.471 255 443.5 C 253.805 436.539 254.638 429.872 257.5 423.5 C 258.968 421.667 260.635 421.334 262.5 422.5 C 260.691 425.593 259.691 428.926 259.5 432.5 C 259.097 437.046 261.097 439.712 265.5 440.5 C 276.433 459.432 291.099 474.765 309.5 486.5 C 308.277 487.614 306.944 487.781 305.5 487 C 300.401 484.117 295.067 481.783 289.5 480 C 286.773 479.182 284.106 479.348 281.5 480.5 C 281.667 480.833 281.833 481.167 282 481.5 C 298.282 497.392 317.449 508.226 339.5 514 C 361.245 514.545 382.912 513.545 404.5 511 C 415.97 506.436 426.303 500.103 435.5 492 C 441.452 490.048 446.285 486.548 450 481.5 C 457.159 467.552 462.492 452.886 466 437.5 C 467.247 434.671 468.747 432.005 470.5 429.5 C 467.861 427.527 465.527 425.194 463.5 422.5 C 463.919 421.328 464.585 420.328 465.5 419.5 C 471.509 417.817 477.176 418.65 482.5 422 C 492.173 427.501 501.506 433.501 510.5 440 C 513.29 442.21 514.123 445.044 513 448.5 C 511 449.833 509 451.167 507 452.5 C 505.345 458.76 504.012 465.093 503 471.5 C 502.058 474.993 500.725 478.326 499 481.5 C 492.434 490.905 484.934 499.571 476.5 507.5 C 477.217 509.717 478.717 511.051 481 511.5 C 485.398 509.446 489.565 506.946 493.5 504 C 502.281 500.971 510.948 497.638 519.5 494 C 534.834 485.335 549.834 476.169 564.5 466.5 C 566.339 464.473 566.839 462.14 566 459.5 C 541.775 442.276 517.275 425.443 492.5 409 C 485.803 405.983 479.136 402.983 472.5 400 C 459.452 390.978 445.119 384.978 429.5 382 C 427.964 380.401 427.464 378.567 428 376.5 C 431.104 374.741 434.271 373.074 437.5 371.5 C 436.624 370.749 435.624 370.249 434.5 370 C 431.761 369.62575 429.01341 369.43797 426.25781 369.4375 z M 378.2793 398.44727 C 379.0488 398.45373 379.789 398.63775 380.5 399 C 375.681 406.154 369.348 411.487 361.5 415 C 356.293 422.383 357.96 427.55 366.5 430.5 C 366.833 431.333 367.167 432.167 367.5 433 C 365.729 435.941 363.395 438.441 360.5 440.5 C 357.049 453.725 349.049 457.559 336.5 452 C 325.922 444.665 318.922 434.832 315.5 422.5 C 317.163 416.665 320.829 412.498 326.5 410 C 336.779 408.043 347.112 406.376 357.5 405 C 364.504 403.498 371.171 401.331 377.5 398.5 C 377.763 398.46275 378.0228 398.44511 378.2793 398.44727 z M 423.5 410.5 L 427.5 410.5 C 427.796 422.581 426.963 434.581 425 446.5 C 419.939 462.146 410.106 473.646 395.5 481 C 391.5 481.667 387.5 481.667 383.5 481 C 371.874 473.893 366.041 477.06 366 490.5 C 363.541 493.1 361.041 493.1 358.5 490.5 C 357.219 486.625 355.886 482.791 354.5 479 C 352.577 478.192 350.577 477.692 348.5 477.5 C 344.578 478.394 340.911 479.894 337.5 482 C 331.97 482.914 326.637 482.247 321.5 480 C 312.387 473.366 303.22 466.866 294 460.5 C 291.174 454.178 287.841 448.178 284 442.5 C 282.346 436.561 281.346 430.561 281 424.5 C 283.475 421.476 286.475 420.81 290 422.5 C 290.418 424.788 289.751 426.788 288 428.5 C 286.469 437.383 288.802 445.05 295 451.5 C 303.156 460.316 312.323 467.816 322.5 474 C 326.595 476.22 330.928 476.887 335.5 476 L 337.5 474 C 328.139 468.643 319.972 461.809 313 453.5 C 312.312 452.668 312.479 452.002 313.5 451.5 C 321.814 456.325 330.148 461.159 338.5 466 C 356.897 474.517 375.231 474.517 393.5 466 C 398.22 465.214 402.886 464.214 407.5 463 C 415.93 452.351 420.93 440.185 422.5 426.5 C 420.918 420.903 421.251 415.57 423.5 410.5 z " />
    <g
       id="g1049" />
    <g
       id="g1053" />
    <g
       id="g1061" />
    <g
       id="g1065">
      <path
         style="opacity:1"
         fill="#6d975b"
         d="M 210.5,423.5 C 212.167,423.5 213.833,423.5 215.5,423.5C 215.5,425.5 215.5,427.5 215.5,429.5C 212.635,429.945 210.135,429.278 208,427.5C 207.333,426.833 207.333,426.167 208,425.5C 208.995,424.934 209.828,424.267 210.5,423.5 Z"
         id="path1063" />
    </g>
    <g
       id="g1069">
      <path
         style="opacity:1"
         fill="#040603"
         d="M 475.5,431.5 C 486.927,431.585 493.927,437.252 496.5,448.5C 491.765,457.639 487.265,466.973 483,476.5C 477.374,483.794 471.374,490.794 465,497.5C 461.006,504.797 457.006,512.131 453,519.5C 449.923,522.809 446.423,523.309 442.5,521C 438.608,518.996 437.775,516.163 440,512.5C 448.924,504.581 455.924,495.247 461,484.5C 481.251,471.962 485.085,455.462 472.5,435C 473.071,433.401 474.071,432.234 475.5,431.5 Z"
         id="path1067" />
    </g>
    <path
       id="path1071"
       style="opacity:0.998"
       d="M 644.19141 453.49609 C 642.66281 453.51073 641.09875 453.679 639.5 454 C 635.642 455.273 631.642 456.273 627.5 457 C 621.147 460.843 615.147 465.177 609.5 470 C 603.781 472.763 597.781 474.596 591.5 475.5 C 590.29 480.232 587.623 484.066 583.5 487 C 576.672 491.915 569.672 496.581 562.5 501 C 559.937 502.079 557.271 502.579 554.5 502.5 C 554.281 501.325 554.614 500.325 555.5 499.5 C 565.398 492.774 574.564 485.108 583 476.5 C 583.584 469.875 580.751 467.708 574.5 470 L 566.5 478 C 557.391 482.432 549.391 488.432 542.5 496 C 537.524 497.081 532.524 498.081 527.5 499 C 522.524 503.487 517.191 507.487 511.5 511 C 502.276 514.279 493.609 518.612 485.5 524 C 474.424 527.417 463.091 529.417 451.5 530 C 442.824 533.007 434.157 536.007 425.5 539 C 418.083 539.78 410.75 539.28 403.5 537.5 C 377.949 543.591 352.282 544.091 326.5 539 C 311.5 538.333 296.5 538.333 281.5 539 C 279.744 539.202 278.078 539.702 276.5 540.5 C 280.661 543.544 285.328 545.377 290.5 546 C 302.28 546.434 313.947 547.768 325.5 550 C 332.679 553.183 336.846 558.683 338 566.5 C 341.759 569.409 344.593 568.743 346.5 564.5 C 345.941 560.94 343.941 558.607 340.5 557.5 C 337.152 552.903 338.319 550.236 344 549.5 C 352.6 550.379 359.433 554.212 364.5 561 C 368.473 564.407 372.306 564.24 376 560.5 C 378.039 549.946 383.539 547.78 392.5 554 C 396.079 561.537 401.913 564.703 410 563.5 C 410.667 562.5 410.667 561.5 410 560.5 C 407.307 558.427 404.807 556.26 402.5 554 C 403.487 551.679 405.154 550.013 407.5 549 C 426.968 547.64 445.802 543.473 464 536.5 C 468.245 537.021 471.912 538.687 475 541.5 C 475.865 543.888 475.032 545.388 472.5 546 C 468.5 546.333 464.5 546.667 460.5 547 C 458.253 548.995 457.253 551.495 457.5 554.5 C 464.082 554.716 470.082 552.883 475.5 549 C 479.442 548.007 483.442 547.34 487.5 547 C 488.574 546.261 489.241 545.261 489.5 544 C 487.316 540.639 485.316 537.139 483.5 533.5 C 484.921 528.923 487.921 527.423 492.5 529 C 513.533 534.707 534.866 536.04 556.5 533 C 564.131 531.348 571.131 528.348 577.5 524 C 579.414 522.587 580.747 520.753 581.5 518.5 C 578.061 513.194 577.895 507.861 581 502.5 C 587.941 497.283 595.108 492.45 602.5 488 C 605.257 487.416 607.923 487.75 610.5 489 C 624.427 497.38 638.927 504.547 654 510.5 C 664.157 509.385 666.657 504.552 661.5 496 C 661.613 494.72 662.28 493.887 663.5 493.5 C 670.137 497.12 671.971 502.454 669 509.5 C 659.401 520.702 647.734 523.702 634 518.5 C 629.657 517.079 625.491 515.246 621.5 513 C 616.167 508.333 610.833 503.667 605.5 499 C 599.909 498.085 594.909 499.419 590.5 503 C 588.923 506.482 589.923 509.148 593.5 511 C 597.968 513.381 602.635 515.381 607.5 517 C 611.202 519.531 612.035 522.698 610 526.5 C 605.625 528.188 601.958 530.855 599 534.5 C 597.654 537.87 595.821 540.87 593.5 543.5 C 587.866 539.599 581.699 536.933 575 535.5 C 571.263 535.975 567.763 537.142 564.5 539 C 562.725 542.394 563.392 545.06 566.5 547 C 573.185 547.403 579.518 549.069 585.5 552 C 590.709 555.209 590.709 558.209 585.5 561 C 571.138 564.206 556.804 567.539 542.5 571 C 528.017 571.935 513.684 573.935 499.5 577 C 475.662 583.201 451.662 588.701 427.5 593.5 C 423.755 593.071 420.755 591.404 418.5 588.5 C 414.349 590.495 410.015 591.995 405.5 593 C 388.833 593.333 372.167 593.667 355.5 594 L 343.5 595.5 C 327.898 593.209 312.232 592.876 296.5 594.5 C 267.183 591.707 237.849 589.541 208.5 588 C 204.385 586.777 200.718 584.777 197.5 582 C 191.587 579.274 185.587 578.94 179.5 581 C 175.576 584.182 175.576 587.182 179.5 590 C 186.876 590.253 194.209 590.919 201.5 592 C 209.657 594.886 217.99 597.053 226.5 598.5 C 234.153 597.425 241.82 596.925 249.5 597 C 254.519 599.673 259.852 601.34 265.5 602 C 303.12 604.865 340.786 605.865 378.5 605 C 415.216 601.769 451.883 598.102 488.5 594 C 508.665 588.875 528.999 584.542 549.5 581 C 559.579 579.682 568.913 581.682 577.5 587 C 578.767 588.796 578.767 590.629 577.5 592.5 C 575.507 594.499 573.173 595.999 570.5 597 C 562.821 598.252 555.154 599.585 547.5 601 C 541.417 603.412 540.084 607.412 543.5 613 C 548.869 613.162 554.202 612.662 559.5 611.5 C 565.501 611.594 568.501 614.761 568.5 621 C 568.458 622.967 567.958 624.801 567 626.5 C 563.04 629.372 558.874 631.872 554.5 634 C 565.052 639.713 574.552 638.213 583 629.5 C 584.582 627.376 584.749 625.21 583.5 623 C 578.447 620.902 574.28 617.735 571 613.5 C 570.333 612.167 570.333 610.833 571 609.5 C 578.752 604.604 587.252 602.604 596.5 603.5 C 607.624 602.758 617.958 605.258 627.5 611 C 631.325 613.232 631.325 615.232 627.5 617 C 622.215 618.026 616.882 618.693 611.5 619 C 605.333 619.501 600.166 622.001 596 626.5 C 594.967 629.217 595.8 631.051 598.5 632 C 606.956 632.881 615.29 632.214 623.5 630 C 627.906 628.591 630.573 625.591 631.5 621 C 635.572 620.342 639.572 620.675 643.5 622 C 649.421 624.529 655.421 626.863 661.5 629 C 661.466 636.624 665.132 639.29 672.5 637 C 679.293 631.875 685.793 626.375 692 620.5 C 692.939 613.748 690.106 609.248 683.5 607 C 679.207 605.798 675.707 606.965 673 610.5 C 670.73 615.644 669.063 620.978 668 626.5 C 667.586 626.957 667.086 627.291 666.5 627.5 C 665.227 623.526 664.06 619.526 663 615.5 C 656.824 612.743 650.657 609.91 644.5 607 C 641.316 604.563 640.316 601.563 641.5 598 C 649.726 599.405 657.893 601.238 666 603.5 C 670.793 603.125 675.46 602.125 680 600.5 C 686.516 603.135 690.516 601.135 692 594.5 C 693.543 592.622 695.376 591.122 697.5 590 C 706.181 590.667 714.847 590.501 723.5 589.5 C 723.664 586.813 723.497 584.146 723 581.5 C 722.097 580.299 720.931 579.465 719.5 579 C 712.167 578.333 704.833 578.333 697.5 579 C 689.178 580.564 680.845 582.064 672.5 583.5 C 666.193 581.37 660.193 578.537 654.5 575 C 651.167 574 647.833 573 644.5 572 C 640.454 570.529 639.621 568.029 642 564.5 C 643.419 563.54 644.919 562.707 646.5 562 C 656.167 561.333 665.833 561.333 675.5 562 C 683.956 563.594 691.623 566.927 698.5 572 C 703.395 574.394 707.895 573.894 712 570.5 C 712.667 569.167 712.667 567.833 712 566.5 C 709.866 564.516 707.366 563.182 704.5 562.5 C 702.73 561.18 702.397 559.68 703.5 558 C 707.058 557.854 710.391 557.021 713.5 555.5 C 701.42 533.006 689.087 510.673 676.5 488.5 C 671.804 486.14 666.804 485.14 661.5 485.5 C 651.883 487.041 642.216 487.541 632.5 487 C 625.353 485.232 622.353 480.899 623.5 474 C 633.79 475.154 644.123 475.82 654.5 476 C 658.047 475.263 660.88 473.43 663 470.5 C 660.712 466.47 658.712 462.137 657 457.5 C 653.04675 454.78725 648.77719 453.45217 644.19141 453.49609 z M 528.80273 511.47461 C 533.72155 511.80077 535.45425 514.80987 534 520.5 C 529.925 524.41 525.925 524.41 522 520.5 C 521.377 516.412 522.877 513.412 526.5 511.5 C 527.33275 511.43712 528.10005 511.42802 528.80273 511.47461 z M 551.02344 516.49414 C 556.34448 516.5094 559.00291 519.17769 559 524.5 C 553.674 528.027 550.174 526.693 548.5 520.5 C 549.18 519.14 549.847 517.807 550.5 516.5 C 550.67719 516.49497 550.85179 516.49365 551.02344 516.49414 z M 673.04297 527.14062 C 679.72933 527.19331 685.38164 529.98011 690 535.5 C 690.411 541.933 687.244 545.266 680.5 545.5 C 674.225 545.282 669.392 542.616 666 537.5 C 664.861 533.579 665.695 530.246 668.5 527.5 C 669.58787 527.3255 670.65153 527.21355 671.69141 527.16602 C 672.14635 527.14522 672.59721 527.13711 673.04297 527.14062 z M 623.35938 532.37305 C 623.7843 532.37217 624.20855 532.37484 624.63086 532.38281 C 636.45561 532.60614 647.2455 536.31187 657 543.5 C 658.271 547.166 657.104 549.666 653.5 551 C 637.973 557.994 621.973 559.327 605.5 555 C 600.751 550.884 600.418 546.551 604.5 542 C 606.913 541.516 609.246 541.85 611.5 543 C 614.167 545.333 616.833 547.667 619.5 550 C 622.588 550.847 625.421 550.347 628 548.5 C 628.684 547.216 628.517 546.049 627.5 545 C 624.833 544.667 622.167 544.333 619.5 544 C 615.787 542.309 614.621 539.475 616 535.5 C 617.145 534.364 618.312 533.364 619.5 532.5 C 620.79863 532.41731 622.08458 532.37568 623.35938 532.37305 z M 604.33398 569.45508 C 613.42516 569.49941 622.14619 571.34872 630.5 575 C 636.372 581.225 635.705 586.558 628.5 591 C 614.718 592.971 601.718 590.637 589.5 584 C 583.94 579.478 584.273 575.478 590.5 572 C 594.312 571.205 597.979 570.371 601.5 569.5 C 602.44837 569.46597 603.39352 569.45049 604.33398 569.45508 z " />
    <g
       id="g1077">
      <path
         style="opacity:1"
         fill="#070906"
         d="M 201.5,503.5 C 207.079,503.109 210.746,505.442 212.5,510.5C 208.676,517.658 203.842,518.325 198,512.5C 196.665,508.392 197.832,505.392 201.5,503.5 Z"
         id="path1075" />
    </g>
    <g
       id="g1081" />
    <g
       id="g1085" />
    <g
       id="g1089">
      <path
         style="opacity:1"
         fill="#090d08"
         d="M 183.5,524.5 C 190.428,524.609 194.262,527.943 195,534.5C 188.243,537.214 183.41,535.047 180.5,528C 181.071,526.401 182.071,525.234 183.5,524.5 Z"
         id="path1087" />
    </g>
    <g
       id="g1093" />
    <g
       id="g1097">
      <path
         style="opacity:1"
         fill="#070906"
         d="M 218.5,532.5 C 223.447,531.628 227.613,532.961 231,536.5C 231.092,540.089 229.259,542.256 225.5,543C 221.375,543.854 217.375,543.52 213.5,542C 211.38,540.477 211.047,538.644 212.5,536.5C 214.29,534.684 216.29,533.351 218.5,532.5 Z"
         id="path1095" />
    </g>
    <g
       id="g1101" />
    <g
       id="g1105">
      <path
         style="opacity:1"
         fill="#080b07"
         d="M 163.5,543.5 C 173.491,544.681 174.158,548.181 165.5,554C 163.167,554.667 160.833,554.667 158.5,554C 157.807,549.546 159.473,546.046 163.5,543.5 Z"
         id="path1103" />
    </g>
    <g
       id="g1109" />
    <g
       id="g1113">
      <path
         style="opacity:1"
         fill="#040503"
         d="M 535.5,544.5 C 545.157,545.023 546.157,548.523 538.5,555C 531.29,557.97 523.957,560.637 516.5,563C 485.038,570.359 453.372,576.692 421.5,582C 397.816,582.381 374.149,583.214 350.5,584.5C 328.866,583.058 307.199,582.224 285.5,582C 275.821,580.748 266.155,579.415 256.5,578C 253.363,577.399 250.363,576.399 247.5,575C 244.733,572.101 245.4,570.101 249.5,569C 252.5,568.833 255.5,568.667 258.5,568.5C 268.944,569.194 279.277,570.694 289.5,573C 335.52,573.942 381.52,573.609 427.5,572C 463.804,563.513 499.804,554.346 535.5,544.5 Z"
         id="path1111" />
    </g>
    <g
       id="g1117">
      <path
         style="opacity:1"
         fill="#060805"
         d="M 282.5,551.5 C 290.765,552.838 292.098,556.338 286.5,562C 283.007,563.004 279.841,562.504 277,560.5C 276.333,559.167 276.333,557.833 277,556.5C 278.73,554.598 280.563,552.931 282.5,551.5 Z"
         id="path1115" />
    </g>
    <g
       id="g1121">
      <path
         style="opacity:1"
         fill="#050604"
         d="M 186.5,552.5 C 191.599,552.175 196.599,552.675 201.5,554C 204.394,556.909 205.227,560.409 204,564.5C 202.687,565.573 201.187,566.24 199.5,566.5C 194.798,566.06 190.464,564.56 186.5,562C 182.778,558.936 182.778,555.77 186.5,552.5 Z"
         id="path1119" />
    </g>
    <g
       id="g1125">
      <path
         style="opacity:1"
         fill="#090c07"
         d="M 434.5,553.5 C 438.377,553.231 440.544,554.898 441,558.5C 437.411,561.395 434.578,560.729 432.5,556.5C 433.193,555.482 433.859,554.482 434.5,553.5 Z"
         id="path1123" />
    </g>
    <g
       id="g1129">
      <path
         style="opacity:1"
         fill="#080a06"
         d="M 226.5,559.5 C 230.58,559.081 232.58,560.914 232.5,565C 231.795,572.18 228.128,574.513 221.5,572C 219.684,566.462 221.351,562.295 226.5,559.5 Z"
         id="path1127" />
    </g>
    <g
       id="g1133" />
    <g
       id="g1137">
      <path
         style="opacity:0.992"
         fill="#030402"
         d="M 733.5,592.5 C 737.671,598.838 741.337,605.504 744.5,612.5C 743.63,616.663 740.964,618.829 736.5,619C 734.987,621.454 735.654,623.121 738.5,624C 741.833,624.333 745.167,624.667 748.5,625C 754.06,629.522 753.727,633.522 747.5,637C 731.821,638.416 716.155,638.916 700.5,638.5C 695.896,637.324 694.896,634.99 697.5,631.5C 701.804,628.787 706.471,626.953 711.5,626C 715.077,624.148 716.077,621.482 714.5,618C 709.833,617.667 705.167,617.333 700.5,617C 698.394,613.961 696.894,610.795 696,607.5C 698.133,605.147 700.8,604.147 704,604.5C 709.402,606.1 714.902,606.6 720.5,606C 725.383,603.736 727.883,599.902 728,594.5C 729.444,592.845 731.278,592.178 733.5,592.5 Z"
         id="path1135" />
    </g>
    <g
       id="g1141">
      <path
         style="opacity:1"
         fill="#050804"
         d="M 508.5,604.5 C 514.294,603.866 518.294,606.2 520.5,611.5C 519.872,613.258 518.872,614.758 517.5,616C 509.448,620.611 501.614,620.444 494,615.5C 493.37,613.097 494.203,611.263 496.5,610C 500.451,607.855 504.451,606.021 508.5,604.5 Z"
         id="path1139" />
    </g>
    <g
       id="g1145">
      <path
         style="opacity:1"
         fill="#060805"
         d="M 172.5,605.5 C 179.005,606.252 185.005,608.418 190.5,612C 194.039,612.282 197.539,612.782 201,613.5C 205.124,612.428 209.29,612.262 213.5,613C 218.992,615.942 219.658,619.609 215.5,624C 211.833,624.667 208.167,624.667 204.5,624C 199.59,621.377 194.59,619.044 189.5,617C 182.065,616.39 174.731,616.723 167.5,618C 165.582,616.23 165.082,614.063 166,611.5C 167.494,608.686 169.66,606.686 172.5,605.5 Z"
         id="path1143" />
    </g>
    <g
       id="g1149">
      <path
         style="opacity:1"
         fill="#050604"
         d="M 469.5,609.5 C 479.16,610.19 480.16,614.024 472.5,621C 465.254,624.897 458.587,624.23 452.5,619C 457.368,614.237 463.034,611.07 469.5,609.5 Z"
         id="path1147" />
    </g>
    <g
       id="g1153">
      <path
         style="opacity:1"
         fill="#090c07"
         d="M 272.5,609.5 C 276.677,608.842 278.177,610.508 277,614.5C 273.988,618.48 271.488,618.313 269.5,614C 269.957,612.06 270.957,610.56 272.5,609.5 Z"
         id="path1151" />
    </g>
    <g
       id="g1157">
      <path
         style="opacity:1"
         fill="#030503"
         d="M 423.5,612.5 C 431.867,612.331 434.2,615.831 430.5,623C 426.125,625.085 421.958,624.918 418,622.5C 417.333,620.833 417.333,619.167 418,617.5C 419.73,615.598 421.563,613.931 423.5,612.5 Z"
         id="path1155" />
    </g>
    <g
       id="g1161">
      <path
         style="opacity:1"
         fill="#0a0d08"
         d="M 382.5,614.5 C 393.688,614.572 394.354,617.405 384.5,623C 376.276,622.042 375.61,619.209 382.5,614.5 Z"
         id="path1159" />
    </g>
    <g
       id="g1165">
      <path
         style="opacity:1"
         fill="#080b07"
         d="M 339.5,615.5 C 344.083,614.343 346.75,616.01 347.5,620.5C 345.777,625.196 342.444,627.029 337.5,626C 336.426,625.261 335.759,624.261 335.5,623C 336.457,620.251 337.79,617.751 339.5,615.5 Z"
         id="path1163" />
    </g>
    <g
       id="g1169">
      <path
         style="opacity:1"
         fill="#040604"
         d="M 522.5,628.5 C 526.967,628.133 531.3,628.633 535.5,630C 540.085,635.057 539.085,638.723 532.5,641C 527.56,642.041 522.894,641.374 518.5,639C 516.375,637.263 515.542,635.096 516,632.5C 518.013,630.752 520.18,629.418 522.5,628.5 Z"
         id="path1167" />
    </g>
    <g
       id="g1173">
      <path
         style="opacity:1"
         fill="#040603"
         d="M 275.5,629.5 C 278.518,629.335 281.518,629.502 284.5,630C 287.319,634.758 286.653,639.092 282.5,643C 276.984,644.101 271.817,643.267 267,640.5C 266.244,638.191 266.744,636.191 268.5,634.5C 270.724,632.566 273.058,630.899 275.5,629.5 Z"
         id="path1171" />
    </g>
    <g
       id="g1177">
      <path
         style="opacity:1"
         fill="#050604"
         d="M 479.5,629.5 C 485.224,628.832 490.557,629.832 495.5,632.5C 496.415,633.328 497.081,634.328 497.5,635.5C 494.286,639.869 489.952,642.369 484.5,643C 481.5,643.667 478.5,643.667 475.5,643C 473.777,642.225 472.777,640.892 472.5,639C 473.558,634.791 475.891,631.625 479.5,629.5 Z"
         id="path1175" />
    </g>
    <g
       id="g1181">
      <path
         style="opacity:1"
         fill="#080b07"
         d="M 321.5,629.5 C 323.484,629.484 324.484,630.484 324.5,632.5C 324.298,634.923 323.131,636.589 321,637.5C 319.268,637.266 318.434,636.266 318.5,634.5C 319.092,632.577 320.092,630.911 321.5,629.5 Z"
         id="path1179" />
    </g>
    <g
       id="g1185">
      <path
         style="opacity:1"
         fill="#060805"
         d="M 56.5,632.5 C 60.1625,633.266 63.8292,634.1 67.5,635C 68.7047,639.034 67.3714,642.034 63.5,644C 58.778,644.777 54.1113,644.61 49.5,643.5C 47.5558,637.048 49.8891,633.381 56.5,632.5 Z"
         id="path1183" />
    </g>
    <g
       id="g1189">
      <path
         style="opacity:1"
         fill="#0a0d08"
         d="M 350.5,633.5 C 352.857,633.337 355.19,633.503 357.5,634C 358.921,638.298 357.254,640.965 352.5,642C 344.245,640.987 343.579,638.153 350.5,633.5 Z"
         id="path1187" />
    </g>
    <g
       id="g1193">
      <path
         style="opacity:1"
         fill="#060905"
         d="M 438.5,633.5 C 443.936,632.387 447.936,634.22 450.5,639C 449.833,641 448.5,642.333 446.5,643C 443.5,643.667 440.5,643.667 437.5,643C 435.187,642.359 433.52,641.026 432.5,639C 433.759,636.236 435.759,634.403 438.5,633.5 Z"
         id="path1191" />
    </g>
    <g
       id="g1197">
      <path
         style="opacity:1"
         fill="#0a0e08"
         d="M 380.5,633.5 C 386.442,632.907 387.942,635.241 385,640.5C 381.398,644.715 378.565,644.382 376.5,639.5C 377.432,637.235 378.765,635.235 380.5,633.5 Z"
         id="path1195" />
    </g>
  </g>
</svg>
