<?xml version="1.0" encoding="utf-8"?>
<!-- Generator: Adobe Illustrator 24.0.2, SVG Export Plug-In . SVG Version: 6.00 Build 0)  -->
<svg version="1.1" id="Ebene_2_xA0_Bild_1_" xmlns="http://www.w3.org/2000/svg" xmlns:xlink="http://www.w3.org/1999/xlink"
	 x="0px" y="0px" viewBox="0 0 1474 708.7" style="enable-background:new 0 0 1474 708.7;" xml:space="preserve">
<style type="text/css">
	.st0{fill:none;stroke:#000000;stroke-width:2.834646e-02;stroke-miterlimit:10;}
	.st1{fill:#FFFFFF;stroke:#000000;stroke-width:2.834646e-03;stroke-miterlimit:10;}
</style>
<polygon class="st0" points="211.8,24.7 211.8,3.9 130.7,3.9 130.8,45.9 211.8,45.9 211.8,31.8 203.4,31.8 203.4,24.7 "/>
<polygon class="st1" points="51.4,24.4 51.4,3.7 6,3.7 6,34.3 14.5,34.3 14.5,45.6 51.4,45.6 51.4,31.5 42.9,31.5 42.9,24.4 "/>
<polygon class="st0" points="53.5,3.7 53.5,34.3 62,34.3 62,45.6 127.8,45.6 127.8,3.7 "/>
<polygon class="st0" points="212.5,69.2 212.5,48.4 131.4,48.4 131.5,90.3 212.5,90.4 212.5,76.2 204,76.2 204,69.2 "/>
<polygon class="st1" points="52,68.8 52,48.2 6.7,48.2 6.7,78.8 15.2,78.8 15.2,90.1 52,90.1 52,75.9 43.5,75.9 43.5,68.8 "/>
<polygon class="st0" points="54.2,48.2 54.2,78.8 62.7,78.8 62.7,90.1 128.4,90.1 128.4,48.2 "/>
<polygon class="st0" points="212,113.8 212,93 130.9,93 131,134.9 212,135 212,120.8 203.5,120.8 203.5,113.8 "/>
<polygon class="st1" points="51.5,113.5 51.5,92.8 6.2,92.8 6.2,123.4 14.7,123.4 14.7,134.7 51.5,134.7 51.5,120.5 43,120.5 
	43,113.5 "/>
<polygon class="st0" points="53.6,92.8 53.6,123.4 62.2,123.4 62.2,134.7 127.9,134.7 127.9,92.8 "/>
<polygon class="st0" points="421.6,24.4 421.6,3.6 340.5,3.6 340.6,45.5 421.6,45.6 421.6,31.4 413.2,31.4 413.2,24.4 "/>
<polygon class="st1" points="261.2,24 261.2,3.4 215.8,3.4 215.8,34 224.3,34 224.3,45.3 261.2,45.3 261.2,31.1 252.7,31.1 
	252.7,24 "/>
<polygon class="st0" points="263.3,3.4 263.3,34 271.8,34 271.8,45.3 337.6,45.3 337.6,3.4 "/>
<polygon class="st0" points="422.3,68.9 422.3,48.1 341.2,48.1 341.3,90 422.3,90.1 422.3,75.9 413.8,75.9 413.8,68.9 "/>
<polygon class="st1" points="261.8,68.5 261.8,47.8 216.5,47.8 216.5,78.4 225,78.4 225,89.8 261.8,89.8 261.8,75.6 253.3,75.6 
	253.3,68.5 "/>
<polygon class="st0" points="264,47.8 264,78.4 272.5,78.4 272.5,89.8 338.2,89.8 338.2,47.8 "/>
<polygon class="st0" points="421.8,113.5 421.8,92.7 340.7,92.7 340.8,134.6 421.8,134.7 421.8,120.5 413.3,120.5 413.3,113.5 "/>
<polygon class="st1" points="261.3,113.1 261.3,92.4 216,92.4 216,123 224.5,123 224.5,134.4 261.3,134.4 261.3,120.2 252.8,120.2 
	252.8,113.1 "/>
<polygon class="st0" points="263.5,92.4 263.5,123 272,123 272,134.4 337.7,134.4 337.7,92.4 "/>
<polygon class="st0" points="214.3,158.6 214.3,137.8 133.2,137.8 133.2,179.7 214.3,179.8 214.3,165.6 205.8,165.6 205.8,158.6 "/>
<polygon class="st1" points="53.8,158.3 53.8,137.6 8.5,137.6 8.5,168.2 17,168.2 17,179.5 53.8,179.5 53.8,165.3 45.3,165.3 
	45.3,158.3 "/>
<polygon class="st0" points="55.9,137.6 55.9,168.2 64.4,168.2 64.4,179.5 130.2,179.5 130.2,137.6 "/>
<polygon class="st0" points="214.9,203.1 214.9,182.3 133.8,182.3 133.9,224.2 214.9,224.3 214.9,210.1 206.4,210.1 206.4,203.1 "/>
<polygon class="st1" points="54.5,202.7 54.5,182 9.1,182 9.1,212.6 17.6,212.6 17.6,224 54.5,224 54.5,209.8 46,209.8 46,202.7 "/>
<polygon class="st0" points="56.6,182 56.6,212.6 65.1,212.6 65.1,224 130.9,224 130.9,182 "/>
<polygon class="st0" points="214.4,247.7 214.4,226.9 133.3,226.9 133.4,268.8 214.4,268.9 214.4,254.7 205.9,254.7 205.9,247.7 "/>
<polygon class="st1" points="53.9,247.3 53.9,226.6 8.6,226.6 8.6,257.3 17.1,257.3 17.1,268.6 53.9,268.6 53.9,254.4 45.4,254.4 
	45.4,247.3 "/>
<polygon class="st0" points="56.1,226.6 56.1,257.3 64.6,257.3 64.6,268.6 130.3,268.6 130.3,226.6 "/>
<polygon class="st0" points="424.1,158.3 424.1,137.5 343,137.5 343,179.4 424.1,179.5 424.1,165.3 415.6,165.3 415.6,158.3 "/>
<polygon class="st1" points="263.6,157.9 263.6,137.2 218.3,137.2 218.3,167.8 226.8,167.8 226.8,179.2 263.6,179.2 263.6,165 
	255.1,165 255.1,157.9 "/>
<polygon class="st0" points="265.7,137.2 265.7,167.8 274.2,167.8 274.2,179.2 340,179.2 340,137.2 "/>
<polygon class="st0" points="424.7,202.8 424.7,182 343.6,182 343.7,223.9 424.7,224 424.7,209.8 416.2,209.8 416.2,202.8 "/>
<polygon class="st1" points="264.3,202.4 264.3,181.7 218.9,181.7 218.9,212.3 227.4,212.3 227.4,223.7 264.3,223.7 264.3,209.5 
	255.8,209.5 255.8,202.4 "/>
<polygon class="st0" points="266.4,181.7 266.4,212.3 274.9,212.3 274.9,223.7 340.7,223.7 340.7,181.7 "/>
<polygon class="st0" points="424.2,247.4 424.2,226.6 343.1,226.6 343.2,268.5 424.2,268.6 424.2,254.4 415.7,254.4 415.7,247.4 "/>
<polygon class="st1" points="263.8,247 263.8,226.3 218.4,226.3 218.4,256.9 226.9,256.9 226.9,268.3 263.8,268.3 263.8,254.1 
	255.2,254.1 255.2,247 "/>
<polygon class="st0" points="265.9,226.3 265.9,256.9 274.4,256.9 274.4,268.3 340.1,268.3 340.1,226.3 "/>
<polygon class="st0" points="631.9,26.4 631.9,5.6 550.8,5.6 550.8,47.5 631.9,47.6 631.9,33.4 623.4,33.4 623.4,26.4 "/>
<polygon class="st1" points="471.4,26 471.4,5.3 426.1,5.3 426.1,35.9 434.6,35.9 434.6,47.3 471.4,47.3 471.4,33.1 462.9,33.1 
	462.9,26 "/>
<polygon class="st0" points="473.5,5.3 473.5,35.9 482,35.9 482,47.3 547.8,47.3 547.8,5.3 "/>
<polygon class="st0" points="632.5,70.9 632.5,50.1 551.4,50.1 551.5,92 632.5,92.1 632.5,77.9 624,77.9 624,70.9 "/>
<polygon class="st1" points="472.1,70.5 472.1,49.8 426.7,49.8 426.7,80.4 435.2,80.4 435.2,91.8 472.1,91.8 472.1,77.6 463.6,77.6 
	463.6,70.5 "/>
<polygon class="st0" points="474.2,49.8 474.2,80.4 482.7,80.4 482.7,91.8 548.5,91.8 548.5,49.8 "/>
<polygon class="st0" points="632,115.5 632,94.7 550.9,94.7 551,136.6 632,136.7 632,122.5 623.5,122.5 623.5,115.5 "/>
<polygon class="st1" points="471.5,115.1 471.5,94.4 426.2,94.4 426.2,125 434.7,125 434.7,136.4 471.5,136.4 471.5,122.2 
	463,122.2 463,115.1 "/>
<polygon class="st0" points="473.7,94.4 473.7,125 482.2,125 482.2,136.4 547.9,136.4 547.9,94.4 "/>
<polygon class="st0" points="634.3,160.3 634.3,139.5 553.2,139.5 553.3,181.4 634.3,181.5 634.3,167.3 625.8,167.3 625.8,160.3 "/>
<polygon class="st1" points="473.8,159.9 473.8,139.2 428.5,139.2 428.5,169.8 437,169.8 437,181.2 473.8,181.2 473.8,167 
	465.3,167 465.3,159.9 "/>
<polygon class="st0" points="476,139.2 476,169.8 484.5,169.8 484.5,181.2 550.2,181.2 550.2,139.2 "/>
<polygon class="st0" points="634.9,204.7 634.9,183.9 553.8,183.9 553.9,225.9 634.9,225.9 634.9,211.8 626.5,211.8 626.5,204.7 "/>
<polygon class="st1" points="474.5,204.4 474.5,183.7 429.1,183.7 429.1,214.3 437.6,214.3 437.6,225.6 474.5,225.6 474.5,211.5 
	466,211.5 466,204.4 "/>
<polygon class="st0" points="476.6,183.7 476.6,214.3 485.1,214.3 485.1,225.6 550.9,225.6 550.9,183.7 "/>
<polygon class="st0" points="634.4,249.3 634.4,228.5 553.3,228.5 553.4,270.5 634.4,270.6 634.4,256.4 625.9,256.4 625.9,249.3 "/>
<polygon class="st1" points="474,249 474,228.3 428.6,228.3 428.6,258.9 437.1,258.9 437.1,270.2 474,270.2 474,256.1 465.5,256.1 
	465.5,249 "/>
<polygon class="st0" points="476.1,228.3 476.1,258.9 484.6,258.9 484.6,270.2 550.4,270.2 550.4,228.3 "/>
</svg>
